%TF.GenerationSoftware,KiCad,Pcbnew,9.0.6*%
%TF.CreationDate,2025-12-13T17:25:46+11:00*%
%TF.ProjectId,esp32,65737033-322e-46b6-9963-61645f706362,rev?*%
%TF.SameCoordinates,Original*%
%TF.FileFunction,Copper,L1,Top*%
%TF.FilePolarity,Positive*%
%FSLAX46Y46*%
G04 Gerber Fmt 4.6, Leading zero omitted, Abs format (unit mm)*
G04 Created by KiCad (PCBNEW 9.0.6) date 2025-12-13 17:25:46*
%MOMM*%
%LPD*%
G01*
G04 APERTURE LIST*
G04 Aperture macros list*
%AMRoundRect*
0 Rectangle with rounded corners*
0 $1 Rounding radius*
0 $2 $3 $4 $5 $6 $7 $8 $9 X,Y pos of 4 corners*
0 Add a 4 corners polygon primitive as box body*
4,1,4,$2,$3,$4,$5,$6,$7,$8,$9,$2,$3,0*
0 Add four circle primitives for the rounded corners*
1,1,$1+$1,$2,$3*
1,1,$1+$1,$4,$5*
1,1,$1+$1,$6,$7*
1,1,$1+$1,$8,$9*
0 Add four rect primitives between the rounded corners*
20,1,$1+$1,$2,$3,$4,$5,0*
20,1,$1+$1,$4,$5,$6,$7,0*
20,1,$1+$1,$6,$7,$8,$9,0*
20,1,$1+$1,$8,$9,$2,$3,0*%
G04 Aperture macros list end*
%TA.AperFunction,ComponentPad*%
%ADD10R,1.308000X1.308000*%
%TD*%
%TA.AperFunction,ComponentPad*%
%ADD11C,1.308000*%
%TD*%
%TA.AperFunction,SMDPad,CuDef*%
%ADD12RoundRect,0.200000X-0.200000X-0.275000X0.200000X-0.275000X0.200000X0.275000X-0.200000X0.275000X0*%
%TD*%
%TA.AperFunction,SMDPad,CuDef*%
%ADD13RoundRect,0.200000X-0.275000X0.200000X-0.275000X-0.200000X0.275000X-0.200000X0.275000X0.200000X0*%
%TD*%
%TA.AperFunction,SMDPad,CuDef*%
%ADD14RoundRect,0.200000X0.275000X-0.200000X0.275000X0.200000X-0.275000X0.200000X-0.275000X-0.200000X0*%
%TD*%
%TA.AperFunction,SMDPad,CuDef*%
%ADD15RoundRect,0.225000X-0.225000X-0.250000X0.225000X-0.250000X0.225000X0.250000X-0.225000X0.250000X0*%
%TD*%
%TA.AperFunction,SMDPad,CuDef*%
%ADD16RoundRect,0.075000X0.225000X-0.910000X0.225000X0.910000X-0.225000X0.910000X-0.225000X-0.910000X0*%
%TD*%
%TA.AperFunction,SMDPad,CuDef*%
%ADD17R,3.302000X2.413000*%
%TD*%
%TA.AperFunction,SMDPad,CuDef*%
%ADD18RoundRect,0.200000X0.200000X0.275000X-0.200000X0.275000X-0.200000X-0.275000X0.200000X-0.275000X0*%
%TD*%
%TA.AperFunction,SMDPad,CuDef*%
%ADD19RoundRect,0.218750X0.256250X-0.218750X0.256250X0.218750X-0.256250X0.218750X-0.256250X-0.218750X0*%
%TD*%
%TA.AperFunction,SMDPad,CuDef*%
%ADD20R,0.700000X1.500000*%
%TD*%
%TA.AperFunction,SMDPad,CuDef*%
%ADD21R,1.000000X0.800000*%
%TD*%
%TA.AperFunction,SMDPad,CuDef*%
%ADD22R,1.500000X0.900000*%
%TD*%
%TA.AperFunction,SMDPad,CuDef*%
%ADD23R,0.900000X1.500000*%
%TD*%
%TA.AperFunction,SMDPad,CuDef*%
%ADD24R,0.900000X0.900000*%
%TD*%
%TA.AperFunction,ComponentPad*%
%ADD25C,0.400000*%
%TD*%
%TA.AperFunction,SMDPad,CuDef*%
%ADD26R,1.100000X0.850000*%
%TD*%
%TA.AperFunction,SMDPad,CuDef*%
%ADD27R,1.100000X0.750000*%
%TD*%
%TA.AperFunction,SMDPad,CuDef*%
%ADD28R,1.000000X1.200000*%
%TD*%
%TA.AperFunction,SMDPad,CuDef*%
%ADD29R,1.350000X1.550000*%
%TD*%
%TA.AperFunction,SMDPad,CuDef*%
%ADD30R,1.800000X1.170000*%
%TD*%
%TA.AperFunction,SMDPad,CuDef*%
%ADD31R,1.350000X1.900000*%
%TD*%
%TA.AperFunction,SMDPad,CuDef*%
%ADD32RoundRect,0.225000X0.250000X-0.225000X0.250000X0.225000X-0.250000X0.225000X-0.250000X-0.225000X0*%
%TD*%
%TA.AperFunction,SMDPad,CuDef*%
%ADD33R,1.150000X0.600000*%
%TD*%
%TA.AperFunction,SMDPad,CuDef*%
%ADD34R,1.150000X0.300000*%
%TD*%
%TA.AperFunction,ComponentPad*%
%ADD35O,2.100000X1.000000*%
%TD*%
%TA.AperFunction,ComponentPad*%
%ADD36O,1.800000X1.000000*%
%TD*%
%TA.AperFunction,SMDPad,CuDef*%
%ADD37R,1.500000X0.700000*%
%TD*%
%TA.AperFunction,SMDPad,CuDef*%
%ADD38R,1.750000X1.000000*%
%TD*%
%TA.AperFunction,SMDPad,CuDef*%
%ADD39R,1.700000X2.000000*%
%TD*%
%TA.AperFunction,SMDPad,CuDef*%
%ADD40RoundRect,0.225000X-0.250000X0.225000X-0.250000X-0.225000X0.250000X-0.225000X0.250000X0.225000X0*%
%TD*%
%TA.AperFunction,ViaPad*%
%ADD41C,0.600000*%
%TD*%
%TA.AperFunction,Conductor*%
%ADD42C,0.200000*%
%TD*%
G04 APERTURE END LIST*
D10*
%TO.P,J2,1,1*%
%TO.N,VBAT*%
X124712500Y-48500000D03*
D11*
%TO.P,J2,2,2*%
%TO.N,GND*%
X124712500Y-50500000D03*
%TD*%
D12*
%TO.P,R5,1*%
%TO.N,Net-(U1-~{CHRG})*%
X80500000Y-55500000D03*
%TO.P,R5,2*%
%TO.N,Net-(D2-K)*%
X82150000Y-55500000D03*
%TD*%
D13*
%TO.P,R2,1*%
%TO.N,GND*%
X83000000Y-31925000D03*
%TO.P,R2,2*%
%TO.N,Net-(J1-CC1)*%
X83000000Y-33575000D03*
%TD*%
D14*
%TO.P,R7,1*%
%TO.N,+3.3V*%
X125500000Y-27825000D03*
%TO.P,R7,2*%
%TO.N,Net-(U3-IO0)*%
X125500000Y-26175000D03*
%TD*%
D15*
%TO.P,C5,1*%
%TO.N,+3.3V*%
X108450000Y-53000000D03*
%TO.P,C5,2*%
%TO.N,Net-(C5-Pad2)*%
X110000000Y-53000000D03*
%TD*%
D14*
%TO.P,R6,1*%
%TO.N,+3.3V*%
X112000000Y-48650000D03*
%TO.P,R6,2*%
%TO.N,Net-(U3-EN)*%
X112000000Y-47000000D03*
%TD*%
D16*
%TO.P,U1,1,TEMP*%
%TO.N,GND*%
X73690000Y-51000000D03*
%TO.P,U1,2,PROG*%
%TO.N,Net-(U1-PROG)*%
X74960000Y-51000000D03*
%TO.P,U1,3,GND*%
%TO.N,GND*%
X76230000Y-51000000D03*
%TO.P,U1,4,VCC*%
%TO.N,Net-(U1-VCC)*%
X77500000Y-51000000D03*
%TO.P,U1,5,BAT*%
%TO.N,Net-(U1-BAT)*%
X77500000Y-46050000D03*
%TO.P,U1,6,~{STDBY}*%
%TO.N,Net-(U1-~{STDBY})*%
X76230000Y-46050000D03*
%TO.P,U1,7,~{CHRG}*%
%TO.N,Net-(U1-~{CHRG})*%
X74960000Y-46050000D03*
%TO.P,U1,8,CE*%
%TO.N,VBUS*%
X73690000Y-46050000D03*
D17*
%TO.P,U1,9,EP*%
%TO.N,GND*%
X75595000Y-48525000D03*
%TD*%
D15*
%TO.P,C6,1*%
%TO.N,Net-(C5-Pad2)*%
X109950000Y-55000000D03*
%TO.P,C6,2*%
%TO.N,GND*%
X111500000Y-55000000D03*
%TD*%
D13*
%TO.P,R1,1*%
%TO.N,Net-(J1-CC2)*%
X84000000Y-38425000D03*
%TO.P,R1,2*%
%TO.N,GND*%
X84000000Y-40075000D03*
%TD*%
D18*
%TO.P,R3,1*%
%TO.N,GND*%
X76825000Y-55500000D03*
%TO.P,R3,2*%
%TO.N,Net-(U1-PROG)*%
X75175000Y-55500000D03*
%TD*%
D19*
%TO.P,D2,1,K*%
%TO.N,Net-(D2-K)*%
X88500000Y-46000000D03*
%TO.P,D2,2,A*%
%TO.N,VBUS*%
X88500000Y-44425000D03*
%TD*%
%TO.P,D1,1,K*%
%TO.N,Net-(D1-K)*%
X86000000Y-46075000D03*
%TO.P,D1,2,A*%
%TO.N,VBUS*%
X86000000Y-44500000D03*
%TD*%
D20*
%TO.P,SW1,1*%
%TO.N,unconnected-(SW1-Pad1)*%
X119750000Y-56250000D03*
%TO.P,SW1,2*%
%TO.N,VBAT*%
X122750000Y-56250000D03*
%TO.P,SW1,3*%
%TO.N,PWR_IN*%
X124250000Y-56250000D03*
D21*
%TO.P,SW1,S1,SHIELD*%
%TO.N,Net-(SW1-SHIELD-PadS1)*%
X118350000Y-57035000D03*
%TO.P,SW1,S2,SHIELD*%
X118350000Y-58965000D03*
%TO.P,SW1,S3,SHIELD*%
X125650000Y-58965000D03*
%TO.P,SW1,S4,SHIELD*%
X125650000Y-57035000D03*
%TD*%
D22*
%TO.P,U3,1,GND*%
%TO.N,GND*%
X109150000Y-49820000D03*
%TO.P,U3,2,3V3*%
%TO.N,+3.3V*%
X109150000Y-48550000D03*
%TO.P,U3,3,EN*%
%TO.N,Net-(U3-EN)*%
X109150000Y-47280000D03*
%TO.P,U3,4,IO4*%
%TO.N,unconnected-(U3-IO4-Pad4)*%
X109150000Y-46010000D03*
%TO.P,U3,5,IO5*%
%TO.N,unconnected-(U3-IO5-Pad5)*%
X109150000Y-44740000D03*
%TO.P,U3,6,IO6*%
%TO.N,unconnected-(U3-IO6-Pad6)*%
X109150000Y-43470000D03*
%TO.P,U3,7,IO7*%
%TO.N,unconnected-(U3-IO7-Pad7)*%
X109150000Y-42200000D03*
%TO.P,U3,8,IO15*%
%TO.N,unconnected-(U3-IO15-Pad8)*%
X109150000Y-40930000D03*
%TO.P,U3,9,IO16*%
%TO.N,unconnected-(U3-IO16-Pad9)*%
X109150000Y-39660000D03*
%TO.P,U3,10,IO17*%
%TO.N,unconnected-(U3-IO17-Pad10)*%
X109150000Y-38390000D03*
%TO.P,U3,11,IO18*%
%TO.N,unconnected-(U3-IO18-Pad11)*%
X109150000Y-37120000D03*
%TO.P,U3,12,IO8*%
%TO.N,unconnected-(U3-IO8-Pad12)*%
X109150000Y-35850000D03*
%TO.P,U3,13,IO19*%
%TO.N,USB_D-*%
X109150000Y-34580000D03*
%TO.P,U3,14,IO20*%
%TO.N,USB_D+*%
X109150000Y-33310000D03*
D23*
%TO.P,U3,15,IO3*%
%TO.N,unconnected-(U3-IO3-Pad15)*%
X107385000Y-32060000D03*
%TO.P,U3,16,IO46*%
%TO.N,unconnected-(U3-IO46-Pad16)*%
X106115000Y-32060000D03*
%TO.P,U3,17,IO9*%
%TO.N,unconnected-(U3-IO9-Pad17)*%
X104845000Y-32060000D03*
%TO.P,U3,18,IO10*%
%TO.N,SD_CS*%
X103575000Y-32060000D03*
%TO.P,U3,19,IO11*%
%TO.N,SD_CMD*%
X102305000Y-32060000D03*
%TO.P,U3,20,IO12*%
%TO.N,SD_CLK*%
X101035000Y-32060000D03*
%TO.P,U3,21,IO13*%
%TO.N,SD_D0*%
X99765000Y-32060000D03*
%TO.P,U3,22,IO14*%
%TO.N,unconnected-(U3-IO14-Pad22)*%
X98495000Y-32060000D03*
%TO.P,U3,23,IO21*%
%TO.N,unconnected-(U3-IO21-Pad23)*%
X97225000Y-32060000D03*
%TO.P,U3,24,IO47*%
%TO.N,unconnected-(U3-IO47-Pad24)*%
X95955000Y-32060000D03*
%TO.P,U3,25,IO48*%
%TO.N,unconnected-(U3-IO48-Pad25)*%
X94685000Y-32060000D03*
%TO.P,U3,26,IO45*%
%TO.N,unconnected-(U3-IO45-Pad26)*%
X93415000Y-32060000D03*
D22*
%TO.P,U3,27,IO0*%
%TO.N,Net-(U3-IO0)*%
X91650000Y-33310000D03*
%TO.P,U3,28,IO35*%
%TO.N,unconnected-(U3-IO35-Pad28)*%
X91650000Y-34580000D03*
%TO.P,U3,29,IO36*%
%TO.N,unconnected-(U3-IO36-Pad29)*%
X91650000Y-35850000D03*
%TO.P,U3,30,IO37*%
%TO.N,unconnected-(U3-IO37-Pad30)*%
X91650000Y-37120000D03*
%TO.P,U3,31,IO38*%
%TO.N,unconnected-(U3-IO38-Pad31)*%
X91650000Y-38390000D03*
%TO.P,U3,32,IO39*%
%TO.N,unconnected-(U3-IO39-Pad32)*%
X91650000Y-39660000D03*
%TO.P,U3,33,IO40*%
%TO.N,unconnected-(U3-IO40-Pad33)*%
X91650000Y-40930000D03*
%TO.P,U3,34,IO41*%
%TO.N,unconnected-(U3-IO41-Pad34)*%
X91650000Y-42200000D03*
%TO.P,U3,35,IO42*%
%TO.N,unconnected-(U3-IO42-Pad35)*%
X91650000Y-43470000D03*
%TO.P,U3,36,RXD0*%
%TO.N,unconnected-(U3-RXD0-Pad36)*%
X91650000Y-44740000D03*
%TO.P,U3,37,TXD0*%
%TO.N,unconnected-(U3-TXD0-Pad37)*%
X91650000Y-46010000D03*
%TO.P,U3,38,IO2*%
%TO.N,unconnected-(U3-IO2-Pad38)*%
X91650000Y-47280000D03*
%TO.P,U3,39,IO1*%
%TO.N,unconnected-(U3-IO1-Pad39)*%
X91650000Y-48550000D03*
%TO.P,U3,40,GND*%
%TO.N,GND*%
X91650000Y-49820000D03*
D24*
%TO.P,U3,41_1,GND*%
X103300000Y-43500000D03*
%TO.P,U3,41_2,GND*%
X101900000Y-43500000D03*
%TO.P,U3,41_3,GND*%
X100500000Y-43500000D03*
%TO.P,U3,41_4,GND*%
X103300000Y-42100000D03*
%TO.P,U3,41_5,GND*%
X101900000Y-42100000D03*
%TO.P,U3,41_6,GND*%
X100500000Y-42100000D03*
%TO.P,U3,41_7,GND*%
X103300000Y-40700000D03*
%TO.P,U3,41_8,GND*%
X101900000Y-40700000D03*
%TO.P,U3,41_9,GND*%
X100500000Y-40700000D03*
D25*
%TO.P,U3,41_10*%
X102600000Y-43500000D03*
%TO.P,U3,41_11*%
X101200000Y-43500000D03*
%TO.P,U3,41_12*%
X103300000Y-42800000D03*
%TO.P,U3,41_13*%
X101900000Y-42800000D03*
%TO.P,U3,41_14*%
X100500000Y-42800000D03*
%TO.P,U3,41_15*%
X102600000Y-42100000D03*
%TO.P,U3,41_16*%
X101200000Y-42100000D03*
%TO.P,U3,41_17*%
X103300000Y-41400000D03*
%TO.P,U3,41_18*%
X101900000Y-41400000D03*
%TO.P,U3,41_19*%
X100500000Y-41400000D03*
%TO.P,U3,41_20*%
X102600000Y-40700000D03*
%TO.P,U3,41_21*%
X101200000Y-40700000D03*
%TD*%
D26*
%TO.P,J3,1,DAT2*%
%TO.N,unconnected-(J3-DAT2-Pad1)*%
X126200000Y-33895000D03*
%TO.P,J3,2,CD/DAT3*%
%TO.N,SD_CS*%
X126200000Y-34995000D03*
%TO.P,J3,3,CMD*%
%TO.N,SD_CMD*%
X126200000Y-36095000D03*
%TO.P,J3,4,VDD*%
%TO.N,+3.3V*%
X126200000Y-37195000D03*
%TO.P,J3,5,CLK*%
%TO.N,SD_CLK*%
X126200000Y-38295000D03*
%TO.P,J3,6,VSS*%
%TO.N,GND*%
X126200000Y-39395000D03*
%TO.P,J3,7,DAT0*%
%TO.N,SD_D0*%
X126200000Y-40495000D03*
D27*
%TO.P,J3,8,DAT1*%
%TO.N,unconnected-(J3-DAT1-Pad8)*%
X126200000Y-41545000D03*
D28*
%TO.P,J3,9,SW-1*%
%TO.N,unconnected-(J3-SW-1-Pad9)*%
X120050000Y-31260000D03*
%TO.P,J3,10,SW-2*%
%TO.N,unconnected-(J3-SW-2-Pad10)*%
X116350000Y-31260000D03*
D29*
%TO.P,J3,G1,GND*%
%TO.N,GND*%
X126075000Y-31435000D03*
D30*
%TO.P,J3,G2,GND*%
X125850000Y-42755000D03*
D31*
%TO.P,J3,G3,GND*%
X115375000Y-40730000D03*
%TO.P,J3,G4,GND*%
X115375000Y-34760000D03*
%TD*%
D32*
%TO.P,C7,1*%
%TO.N,GND*%
X114500000Y-50775000D03*
%TO.P,C7,2*%
%TO.N,Net-(U3-EN)*%
X114500000Y-49225000D03*
%TD*%
D15*
%TO.P,C3,1*%
%TO.N,Net-(U2-VOUT)*%
X104000000Y-53000000D03*
%TO.P,C3,2*%
%TO.N,+3.3V*%
X105550000Y-53000000D03*
%TD*%
D33*
%TO.P,J1,A1_B12,GND*%
%TO.N,GND*%
X80255000Y-33122500D03*
%TO.P,J1,A4_B9,VBUS*%
%TO.N,VBUS*%
X80255000Y-33922500D03*
D34*
%TO.P,J1,A5,CC1*%
%TO.N,Net-(J1-CC1)*%
X80255000Y-35072500D03*
%TO.P,J1,A6,DP1*%
%TO.N,USB_D+*%
X80255000Y-36072500D03*
%TO.P,J1,A7,DN1*%
%TO.N,USB_D-*%
X80255000Y-36572500D03*
%TO.P,J1,A8,SBU1*%
%TO.N,unconnected-(J1-SBU1-PadA8)*%
X80255000Y-37572500D03*
D33*
%TO.P,J1,B1_A12,GND*%
%TO.N,GND*%
X80255000Y-39522500D03*
%TO.P,J1,B4_A9,VBUS*%
%TO.N,VBUS*%
X80255000Y-38722500D03*
D34*
%TO.P,J1,B5,CC2*%
%TO.N,Net-(J1-CC2)*%
X80255000Y-38072500D03*
%TO.P,J1,B6,DP2*%
%TO.N,USB_D+*%
X80255000Y-37072500D03*
%TO.P,J1,B7,DN2*%
%TO.N,USB_D-*%
X80255000Y-35572500D03*
%TO.P,J1,B8,SBU2*%
%TO.N,unconnected-(J1-SBU2-PadB8)*%
X80255000Y-34572500D03*
D35*
%TO.P,J1,SH1,SHELL_GND*%
%TO.N,SHELL_GND*%
X79680000Y-32002500D03*
%TO.P,J1,SH2,SHELL_GND*%
X79680000Y-40642500D03*
D36*
%TO.P,J1,SH3,SHELL_GND*%
X75500000Y-32002500D03*
%TO.P,J1,SH4,SHELL_GND*%
X75500000Y-40642500D03*
%TD*%
D37*
%TO.P,U2,1,CE*%
%TO.N,PWR_IN*%
X93850000Y-56500000D03*
D38*
%TO.P,U2,2,VSS*%
%TO.N,GND*%
X93725000Y-55000000D03*
D37*
%TO.P,U2,3,NC*%
%TO.N,unconnected-(U2-NC-Pad3)*%
X93850000Y-53500000D03*
%TO.P,U2,4,VIN*%
%TO.N,Net-(U2-VIN)*%
X90150000Y-53500000D03*
%TO.P,U2,5,VOUT*%
%TO.N,Net-(U2-VOUT)*%
X90150000Y-56500000D03*
D38*
%TO.P,U2,6*%
%TO.N,GND*%
X90275000Y-55000000D03*
D39*
%TO.P,U2,7*%
X92000000Y-55000000D03*
%TD*%
D32*
%TO.P,C4,1*%
%TO.N,PWR_IN*%
X97500000Y-54775000D03*
%TO.P,C4,2*%
%TO.N,Net-(U2-VIN)*%
X97500000Y-53225000D03*
%TD*%
D40*
%TO.P,C8,1*%
%TO.N,+3.3V*%
X112000000Y-51225000D03*
%TO.P,C8,2*%
%TO.N,GND*%
X112000000Y-52775000D03*
%TD*%
D32*
%TO.P,C1,1*%
%TO.N,Net-(U1-VCC)*%
X83000000Y-43525000D03*
%TO.P,C1,2*%
%TO.N,VBUS*%
X83000000Y-41975000D03*
%TD*%
D15*
%TO.P,C2,1*%
%TO.N,Net-(U1-BAT)*%
X86000000Y-58500000D03*
%TO.P,C2,2*%
%TO.N,VBAT*%
X87550000Y-58500000D03*
%TD*%
D18*
%TO.P,R8,1*%
%TO.N,+3.3V*%
X121825000Y-27500000D03*
%TO.P,R8,2*%
%TO.N,SD_CS*%
X120175000Y-27500000D03*
%TD*%
D13*
%TO.P,R4,1*%
%TO.N,Net-(U1-~{STDBY})*%
X83000000Y-46350000D03*
%TO.P,R4,2*%
%TO.N,Net-(D1-K)*%
X83000000Y-48000000D03*
%TD*%
D41*
%TO.N,Net-(U1-VCC)*%
X81100000Y-51000000D03*
X82000000Y-45000000D03*
X79900000Y-51000000D03*
X82000000Y-47000000D03*
%TO.N,Net-(U1-BAT)*%
X79000000Y-51600000D03*
X79000000Y-50400000D03*
%TO.N,VBAT*%
X98000000Y-58500000D03*
X117500000Y-54500000D03*
X100500000Y-58400000D03*
X115900000Y-56000000D03*
%TO.N,+3.3V*%
X121750000Y-28400000D03*
X112900000Y-31750000D03*
%TO.N,Net-(U2-VOUT)*%
X97000000Y-57500000D03*
X99000000Y-57500000D03*
%TO.N,PWR_IN*%
X122825735Y-53825735D03*
X123674265Y-54674265D03*
%TO.N,Net-(U3-EN)*%
X112000000Y-44500000D03*
X113600000Y-43000000D03*
%TO.N,GND*%
X81500000Y-33000000D03*
X96900000Y-56000000D03*
X81479485Y-40020515D03*
X98100000Y-56000000D03*
X76500000Y-53000000D03*
%TO.N,SD_D0*%
X104250000Y-30750000D03*
X110650000Y-30750000D03*
X100435000Y-30750000D03*
X112251000Y-30750000D03*
%TO.N,SD_CS*%
X124751243Y-28994534D03*
X122750000Y-29000000D03*
%TO.N,SD_CMD*%
X102975000Y-27750000D03*
X123823897Y-29774632D03*
X110500000Y-28250000D03*
X113549265Y-27200735D03*
X104184313Y-27815687D03*
X122093186Y-29688844D03*
%TO.N,SD_CLK*%
X112251000Y-29750000D03*
X104175000Y-29250000D03*
X110650000Y-29750000D03*
X101500000Y-29250000D03*
%TO.N,Net-(U1-~{STDBY})*%
X79900000Y-44000000D03*
X81100000Y-45000000D03*
%TO.N,USB_D+*%
X111250000Y-27176000D03*
X110000000Y-25575000D03*
%TO.N,USB_D-*%
X104750000Y-27250000D03*
X112000000Y-27500000D03*
X103250000Y-26775000D03*
X110453863Y-27254552D03*
X89292185Y-26792185D03*
X91549265Y-26799265D03*
%TD*%
D42*
%TO.N,VBUS*%
X86000000Y-44500000D02*
X86500000Y-44500000D01*
X82224000Y-39916500D02*
X82224000Y-41199000D01*
X76701000Y-40735492D02*
X76701000Y-42054001D01*
X78978000Y-38122500D02*
X79379000Y-38523500D01*
X78978000Y-34522500D02*
X78978000Y-38122500D01*
X78899992Y-38536500D02*
X76701000Y-40735492D01*
X73690000Y-45065001D02*
X73690000Y-46050000D01*
X80255000Y-38722500D02*
X80069000Y-38536500D01*
X79379000Y-38523500D02*
X80056000Y-38523500D01*
X86500000Y-44500000D02*
X86575000Y-44425000D01*
X82224000Y-41199000D02*
X83000000Y-41975000D01*
X80255000Y-38722500D02*
X81030000Y-38722500D01*
X83475000Y-41975000D02*
X86000000Y-44500000D01*
X86575000Y-44425000D02*
X88500000Y-44425000D01*
X80056000Y-34121500D02*
X79379000Y-34121500D01*
X76701000Y-42054001D02*
X73690000Y-45065001D01*
X80255000Y-33922500D02*
X80056000Y-34121500D01*
X80056000Y-38523500D02*
X80255000Y-38722500D01*
X79379000Y-34121500D02*
X78978000Y-34522500D01*
X81030000Y-38722500D02*
X82224000Y-39916500D01*
X83000000Y-41975000D02*
X83475000Y-41975000D01*
X80069000Y-38536500D02*
X78899992Y-38536500D01*
%TO.N,Net-(U1-VCC)*%
X82000000Y-44525000D02*
X83000000Y-43525000D01*
X82016450Y-49983550D02*
X82016450Y-47016450D01*
X82016450Y-47016450D02*
X82000000Y-47000000D01*
X77500000Y-51000000D02*
X79900000Y-51000000D01*
X81100000Y-50900000D02*
X82016450Y-49983550D01*
X81100000Y-51000000D02*
X81100000Y-50900000D01*
X82000000Y-45000000D02*
X82000000Y-44525000D01*
%TO.N,Net-(U1-BAT)*%
X79500000Y-58500000D02*
X86000000Y-58500000D01*
X79000000Y-47550000D02*
X79000000Y-50400000D01*
X79000000Y-51600000D02*
X79000000Y-58000000D01*
X79000000Y-58000000D02*
X79500000Y-58500000D01*
X77500000Y-46050000D02*
X79000000Y-47550000D01*
%TO.N,VBAT*%
X124712500Y-48500000D02*
X126500000Y-48500000D01*
X122750000Y-54750000D02*
X122750000Y-56250000D01*
X124000000Y-53500000D02*
X122750000Y-54750000D01*
X116000000Y-56100000D02*
X115900000Y-56000000D01*
X115000000Y-58500000D02*
X116000000Y-57500000D01*
X127000000Y-53000000D02*
X126500000Y-53500000D01*
X118000000Y-54000000D02*
X122000000Y-54000000D01*
X100500000Y-58400000D02*
X100600000Y-58500000D01*
X87550000Y-58500000D02*
X98000000Y-58500000D01*
X100600000Y-58500000D02*
X115000000Y-58500000D01*
X127000000Y-49000000D02*
X127000000Y-53000000D01*
X122500000Y-54500000D02*
X122750000Y-54750000D01*
X117500000Y-54500000D02*
X118000000Y-54000000D01*
X126500000Y-48500000D02*
X127000000Y-49000000D01*
X126500000Y-53500000D02*
X124000000Y-53500000D01*
X116000000Y-57500000D02*
X116000000Y-56100000D01*
X122000000Y-54000000D02*
X122500000Y-54500000D01*
%TO.N,+3.3V*%
X112899000Y-31751000D02*
X112900000Y-31750000D01*
X124877900Y-37195000D02*
X126200000Y-37195000D01*
X112000000Y-51225000D02*
X112000000Y-48650000D01*
X111225000Y-52000000D02*
X112000000Y-51225000D01*
X123000000Y-35317100D02*
X124877900Y-37195000D01*
X112899000Y-39649000D02*
X112000000Y-38750000D01*
X108450000Y-53000000D02*
X108450000Y-52550000D01*
X112899000Y-47751000D02*
X112899000Y-39649000D01*
X124925000Y-27825000D02*
X125500000Y-27825000D01*
X121750000Y-27575000D02*
X121825000Y-27500000D01*
X112000000Y-38750000D02*
X112000000Y-36750000D01*
X123000000Y-29750000D02*
X124925000Y-27825000D01*
X121750000Y-28400000D02*
X121750000Y-27575000D01*
X105550000Y-53000000D02*
X108450000Y-53000000D01*
X112000000Y-48650000D02*
X109250000Y-48650000D01*
X121825000Y-27500000D02*
X125175000Y-27500000D01*
X108450000Y-52550000D02*
X109000000Y-52000000D01*
X109250000Y-48650000D02*
X109150000Y-48550000D01*
X123000000Y-29750000D02*
X123000000Y-35317100D01*
X112000000Y-36750000D02*
X112899000Y-35851000D01*
X109000000Y-52000000D02*
X111225000Y-52000000D01*
X112000000Y-48650000D02*
X112899000Y-47751000D01*
X125175000Y-27500000D02*
X125500000Y-27825000D01*
X112899000Y-35851000D02*
X112899000Y-31751000D01*
%TO.N,Net-(U2-VOUT)*%
X91000000Y-58000000D02*
X90150000Y-57150000D01*
X97000000Y-57500000D02*
X96500000Y-58000000D01*
X90150000Y-57150000D02*
X90150000Y-56500000D01*
X96500000Y-58000000D02*
X91000000Y-58000000D01*
X100500000Y-57500000D02*
X99000000Y-57500000D01*
X104000000Y-53000000D02*
X104000000Y-54000000D01*
X104000000Y-54000000D02*
X100500000Y-57500000D01*
%TO.N,PWR_IN*%
X116500000Y-58000000D02*
X115500000Y-59000000D01*
X116500000Y-54500000D02*
X116500000Y-58000000D01*
X117500000Y-53500000D02*
X116500000Y-54500000D01*
X96601000Y-56899000D02*
X96000000Y-57500000D01*
X122825735Y-53825735D02*
X122500000Y-53500000D01*
X97399000Y-56899000D02*
X96601000Y-56899000D01*
X97500000Y-57000000D02*
X97500000Y-54775000D01*
X94850000Y-57500000D02*
X93850000Y-56500000D01*
X99500000Y-59000000D02*
X97500000Y-57000000D01*
X115500000Y-59000000D02*
X99500000Y-59000000D01*
X122500000Y-53500000D02*
X117500000Y-53500000D01*
X123674265Y-54674265D02*
X124250000Y-55250000D01*
X124250000Y-55250000D02*
X124250000Y-56250000D01*
X96000000Y-57500000D02*
X94850000Y-57500000D01*
X97500000Y-57000000D02*
X97399000Y-56899000D01*
%TO.N,Net-(U2-VIN)*%
X91000000Y-51500000D02*
X90150000Y-52350000D01*
X96500000Y-51500000D02*
X91000000Y-51500000D01*
X97500000Y-53225000D02*
X97500000Y-52500000D01*
X90150000Y-52350000D02*
X90150000Y-53500000D01*
X97500000Y-52500000D02*
X96500000Y-51500000D01*
%TO.N,Net-(C5-Pad2)*%
X110000000Y-53500000D02*
X109950000Y-53550000D01*
X110000000Y-53000000D02*
X110000000Y-53500000D01*
X109950000Y-53550000D02*
X109950000Y-55000000D01*
%TO.N,Net-(U3-EN)*%
X111220000Y-47280000D02*
X109150000Y-47280000D01*
X114500000Y-43500000D02*
X114500000Y-49225000D01*
X113600000Y-43000000D02*
X114000000Y-43000000D01*
X114000000Y-43000000D02*
X114500000Y-43500000D01*
X112000000Y-47000000D02*
X111500000Y-47000000D01*
X112000000Y-47000000D02*
X112000000Y-44500000D01*
X111500000Y-47000000D02*
X111220000Y-47280000D01*
%TO.N,GND*%
X76230000Y-51000000D02*
X76230000Y-52730000D01*
X93725000Y-55000000D02*
X95900000Y-55000000D01*
X76230000Y-52730000D02*
X76500000Y-53000000D01*
X73690000Y-50430000D02*
X75595000Y-48525000D01*
X81377500Y-33122500D02*
X81500000Y-33000000D01*
X98276000Y-55824000D02*
X98276000Y-52708900D01*
X73690000Y-51000000D02*
X73690000Y-50430000D01*
X95387100Y-49820000D02*
X91650000Y-49820000D01*
X95900000Y-55000000D02*
X96900000Y-56000000D01*
X103300000Y-40700000D02*
X103300003Y-40700000D01*
X98100000Y-56000000D02*
X98276000Y-55824000D01*
X98276000Y-52708900D02*
X95387100Y-49820000D01*
X103300000Y-43500000D02*
X103300003Y-43500000D01*
X100500000Y-40700000D02*
X100500000Y-40699997D01*
X81479485Y-40020515D02*
X80753015Y-40020515D01*
X80753015Y-40020515D02*
X80255000Y-39522500D01*
X80255000Y-33122500D02*
X81377500Y-33122500D01*
%TO.N,Net-(D1-K)*%
X84925000Y-46075000D02*
X83000000Y-48000000D01*
X86000000Y-46075000D02*
X84925000Y-46075000D01*
%TO.N,Net-(D2-K)*%
X82150000Y-52350000D02*
X88500000Y-46000000D01*
X82150000Y-55500000D02*
X82150000Y-52350000D01*
%TO.N,Net-(J1-CC2)*%
X84000000Y-38425000D02*
X83000000Y-38425000D01*
X83000000Y-38425000D02*
X82647500Y-38072500D01*
X82647500Y-38072500D02*
X80255000Y-38072500D01*
%TO.N,Net-(J1-CC1)*%
X83000000Y-33575000D02*
X81502500Y-35072500D01*
X81502500Y-35072500D02*
X80255000Y-35072500D01*
%TO.N,SD_D0*%
X104250000Y-30750000D02*
X110650000Y-30750000D01*
X117755000Y-40495000D02*
X126200000Y-40495000D01*
X113500000Y-31500000D02*
X113500000Y-36250000D01*
X100250000Y-30750000D02*
X100500000Y-30750000D01*
X117750000Y-40500000D02*
X117755000Y-40495000D01*
X112251000Y-30750000D02*
X112750000Y-30750000D01*
X99765000Y-31235000D02*
X100250000Y-30750000D01*
X100500000Y-30750000D02*
X100435000Y-30750000D01*
X113500000Y-36250000D02*
X117750000Y-40500000D01*
X112750000Y-30750000D02*
X113500000Y-31500000D01*
X99765000Y-32060000D02*
X99765000Y-31235000D01*
%TO.N,SD_CS*%
X104500000Y-26576000D02*
X103575000Y-27501000D01*
X125450000Y-34995000D02*
X126200000Y-34995000D01*
X124751243Y-34296243D02*
X125450000Y-34995000D01*
X122750000Y-29000000D02*
X121250000Y-29000000D01*
X121250000Y-29000000D02*
X120175000Y-27925000D01*
X120175000Y-27925000D02*
X120175000Y-27500000D01*
X120175000Y-27500000D02*
X120175000Y-27025000D01*
X120175000Y-27025000D02*
X119726000Y-26576000D01*
X103575000Y-27501000D02*
X103575000Y-32060000D01*
X119726000Y-26576000D02*
X104500000Y-26576000D01*
X124751243Y-28994534D02*
X124751243Y-34296243D01*
X126505000Y-34995000D02*
X126200000Y-34995000D01*
%TO.N,unconnected-(J3-SW-1-Pad9)*%
X120095000Y-31550000D02*
X119899000Y-31354000D01*
%TO.N,SD_CMD*%
X102305000Y-28420000D02*
X102975000Y-27750000D01*
X113549265Y-27200735D02*
X113598530Y-27250000D01*
X124345000Y-36095000D02*
X126200000Y-36095000D01*
X104184313Y-27815687D02*
X104618626Y-28250000D01*
X122093186Y-29688844D02*
X122081295Y-29700735D01*
X123823897Y-35573897D02*
X124345000Y-36095000D01*
X104618626Y-28250000D02*
X110500000Y-28250000D01*
X116049265Y-29700735D02*
X113549265Y-27200735D01*
X123823897Y-29774632D02*
X123823897Y-35573897D01*
X122081295Y-29700735D02*
X116049265Y-29700735D01*
X102305000Y-32060000D02*
X102305000Y-28420000D01*
%TO.N,SD_CLK*%
X121289844Y-30289844D02*
X122599000Y-31599000D01*
X101035000Y-32060000D02*
X101035000Y-29715000D01*
X122599000Y-35483200D02*
X125410800Y-38295000D01*
X101035000Y-29715000D02*
X101500000Y-29250000D01*
X104175000Y-29250000D02*
X104250000Y-29250000D01*
X104750000Y-29750000D02*
X110650000Y-29750000D01*
X112790844Y-30289844D02*
X121289844Y-30289844D01*
X125410800Y-38295000D02*
X126200000Y-38295000D01*
X112251000Y-29750000D02*
X112790844Y-30289844D01*
X122599000Y-31599000D02*
X122599000Y-35483200D01*
X104250000Y-29250000D02*
X104750000Y-29750000D01*
%TO.N,Net-(U1-PROG)*%
X74960000Y-51000000D02*
X74960000Y-55285000D01*
X74960000Y-55285000D02*
X75175000Y-55500000D01*
%TO.N,Net-(U1-~{STDBY})*%
X82450000Y-46350000D02*
X81100000Y-45000000D01*
X77092101Y-43500000D02*
X76230000Y-44362101D01*
X79400000Y-43500000D02*
X77092101Y-43500000D01*
X83000000Y-46350000D02*
X82450000Y-46350000D01*
X76230000Y-44362101D02*
X76230000Y-46050000D01*
X79900000Y-44000000D02*
X79400000Y-43500000D01*
%TO.N,Net-(U1-~{CHRG})*%
X77000000Y-43025001D02*
X77000000Y-43000000D01*
X80000000Y-43000000D02*
X80500000Y-43500000D01*
X74960000Y-46050000D02*
X74960000Y-45065001D01*
X80500000Y-43500000D02*
X80500000Y-55500000D01*
X77000000Y-43000000D02*
X80000000Y-43000000D01*
X74960000Y-45065001D02*
X77000000Y-43025001D01*
%TO.N,Net-(U3-IO0)*%
X89000000Y-32500000D02*
X89810000Y-33310000D01*
X91325000Y-26175000D02*
X89000000Y-28500000D01*
X89000000Y-28500000D02*
X89000000Y-32500000D01*
X125500000Y-26175000D02*
X91325000Y-26175000D01*
X89810000Y-33310000D02*
X91650000Y-33310000D01*
%TO.N,Net-(SW1-SHIELD-PadS1)*%
X125650000Y-58965000D02*
X125650000Y-57035000D01*
X118350000Y-58965000D02*
X125650000Y-58965000D01*
X118350000Y-57035000D02*
X118350000Y-58965000D01*
%TO.N,USB_D+*%
X91357900Y-25575000D02*
X88500000Y-28432900D01*
X111250000Y-27000000D02*
X111250000Y-27176000D01*
X88500000Y-28432900D02*
X88500000Y-35000000D01*
X80255000Y-37072500D02*
X86427500Y-37072500D01*
X111250000Y-32750000D02*
X111250000Y-27000000D01*
X109150000Y-33310000D02*
X110690000Y-33310000D01*
X88500000Y-35000000D02*
X87427500Y-36072500D01*
X86427500Y-37072500D02*
X87427500Y-36072500D01*
X110000000Y-25575000D02*
X91357900Y-25575000D01*
X110690000Y-33310000D02*
X111250000Y-32750000D01*
X87427500Y-36072500D02*
X80255000Y-36072500D01*
%TO.N,USB_D-*%
X103225735Y-26799265D02*
X103250000Y-26775000D01*
X91549265Y-26799265D02*
X103225735Y-26799265D01*
X79379000Y-36523500D02*
X79379000Y-35621500D01*
X109987100Y-34580000D02*
X111651000Y-32916100D01*
X109150000Y-34580000D02*
X109987100Y-34580000D01*
X79379000Y-35621500D02*
X79428000Y-35572500D01*
X79428000Y-35572500D02*
X80255000Y-35572500D01*
X111651000Y-27849000D02*
X112000000Y-27500000D01*
X79428000Y-36572500D02*
X79379000Y-36523500D01*
X110449311Y-27250000D02*
X110453863Y-27254552D01*
X104750000Y-27250000D02*
X110449311Y-27250000D01*
X88099000Y-34401000D02*
X88099000Y-27985370D01*
X80255000Y-36572500D02*
X79428000Y-36572500D01*
X88099000Y-27985370D02*
X89292185Y-26792185D01*
X80255000Y-35572500D02*
X86927500Y-35572500D01*
X111651000Y-32916100D02*
X111651000Y-27849000D01*
X86927500Y-35572500D02*
X88099000Y-34401000D01*
%TD*%
%TA.AperFunction,Conductor*%
%TO.N,GND*%
G36*
X73883039Y-51019685D02*
G01*
X73928794Y-51072489D01*
X73940000Y-51124000D01*
X73940000Y-52485000D01*
X73952683Y-52485000D01*
X73952697Y-52484999D01*
X74065104Y-52470199D01*
X74065108Y-52470198D01*
X74188048Y-52419276D01*
X74257517Y-52411807D01*
X74319996Y-52443082D01*
X74355648Y-52503171D01*
X74359500Y-52533837D01*
X74359500Y-54854544D01*
X74341618Y-54918692D01*
X74331523Y-54935390D01*
X74280913Y-55097807D01*
X74274500Y-55168386D01*
X74274500Y-55831613D01*
X74280913Y-55902192D01*
X74280913Y-55902194D01*
X74280914Y-55902196D01*
X74331522Y-56064606D01*
X74413058Y-56199483D01*
X74419530Y-56210188D01*
X74539811Y-56330469D01*
X74539813Y-56330470D01*
X74539815Y-56330472D01*
X74685394Y-56418478D01*
X74847804Y-56469086D01*
X74918384Y-56475500D01*
X74918387Y-56475500D01*
X75431613Y-56475500D01*
X75431616Y-56475500D01*
X75502196Y-56469086D01*
X75664606Y-56418478D01*
X75810185Y-56330472D01*
X75912673Y-56227983D01*
X75973994Y-56194499D01*
X76043685Y-56199483D01*
X76088034Y-56227984D01*
X76190122Y-56330072D01*
X76335604Y-56418019D01*
X76335603Y-56418019D01*
X76497894Y-56468590D01*
X76497893Y-56468590D01*
X76568408Y-56474998D01*
X76568426Y-56474999D01*
X77075000Y-56474999D01*
X77081581Y-56474999D01*
X77152102Y-56468591D01*
X77152107Y-56468590D01*
X77314396Y-56418018D01*
X77459877Y-56330072D01*
X77580072Y-56209877D01*
X77668019Y-56064395D01*
X77718590Y-55902106D01*
X77725000Y-55831572D01*
X77725000Y-55750000D01*
X77075000Y-55750000D01*
X77075000Y-56474999D01*
X76568426Y-56474999D01*
X76574999Y-56474998D01*
X76575000Y-56474998D01*
X76575000Y-55250000D01*
X77075000Y-55250000D01*
X77724999Y-55250000D01*
X77724999Y-55168417D01*
X77718591Y-55097897D01*
X77718590Y-55097892D01*
X77668018Y-54935603D01*
X77580072Y-54790122D01*
X77459877Y-54669927D01*
X77314395Y-54581980D01*
X77314396Y-54581980D01*
X77152105Y-54531409D01*
X77152106Y-54531409D01*
X77081572Y-54525000D01*
X77075000Y-54525000D01*
X77075000Y-55250000D01*
X76575000Y-55250000D01*
X76575000Y-54525000D01*
X76574999Y-54524999D01*
X76568436Y-54525000D01*
X76568417Y-54525001D01*
X76497897Y-54531408D01*
X76497892Y-54531409D01*
X76335603Y-54581981D01*
X76190122Y-54669927D01*
X76190121Y-54669928D01*
X76088035Y-54772015D01*
X76026712Y-54805500D01*
X75957020Y-54800516D01*
X75912673Y-54772015D01*
X75810188Y-54669530D01*
X75810185Y-54669528D01*
X75664606Y-54581522D01*
X75664604Y-54581521D01*
X75664602Y-54581520D01*
X75647609Y-54576225D01*
X75589462Y-54537487D01*
X75561488Y-54473462D01*
X75560500Y-54457840D01*
X75560500Y-52533837D01*
X75580185Y-52466798D01*
X75632989Y-52421043D01*
X75702147Y-52411099D01*
X75731952Y-52419276D01*
X75854891Y-52470198D01*
X75854895Y-52470199D01*
X75967302Y-52484999D01*
X75967317Y-52485000D01*
X75980000Y-52485000D01*
X75980000Y-51124000D01*
X75999685Y-51056961D01*
X76052489Y-51011206D01*
X76104000Y-51000000D01*
X76356000Y-51000000D01*
X76423039Y-51019685D01*
X76468794Y-51072489D01*
X76480000Y-51124000D01*
X76480000Y-52485000D01*
X76492683Y-52485000D01*
X76492697Y-52484999D01*
X76605104Y-52470199D01*
X76605108Y-52470198D01*
X76744978Y-52412263D01*
X76789103Y-52378405D01*
X76854272Y-52353211D01*
X76922717Y-52367249D01*
X76940077Y-52378406D01*
X76984765Y-52412697D01*
X76984769Y-52412699D01*
X77000648Y-52419276D01*
X77124764Y-52470687D01*
X77231586Y-52484750D01*
X77233474Y-52484999D01*
X77237280Y-52485500D01*
X77237287Y-52485500D01*
X77762713Y-52485500D01*
X77762720Y-52485500D01*
X77875236Y-52470687D01*
X78015233Y-52412698D01*
X78135451Y-52320451D01*
X78177125Y-52266139D01*
X78233552Y-52224938D01*
X78303298Y-52220783D01*
X78364218Y-52254995D01*
X78396971Y-52316712D01*
X78399500Y-52341627D01*
X78399500Y-57913330D01*
X78399499Y-57913348D01*
X78399499Y-58079054D01*
X78399498Y-58079054D01*
X78438030Y-58222853D01*
X78440423Y-58231785D01*
X78460468Y-58266503D01*
X78492023Y-58321158D01*
X78516539Y-58363623D01*
X78519480Y-58368716D01*
X78631284Y-58480520D01*
X78631285Y-58480521D01*
X79131284Y-58980520D01*
X79131286Y-58980521D01*
X79131290Y-58980524D01*
X79242711Y-59044852D01*
X79268216Y-59059577D01*
X79420943Y-59100501D01*
X79420945Y-59100501D01*
X79586654Y-59100501D01*
X79586670Y-59100500D01*
X85069575Y-59100500D01*
X85136614Y-59120185D01*
X85163685Y-59143758D01*
X85170014Y-59151134D01*
X85202032Y-59203044D01*
X85290155Y-59291167D01*
X85293236Y-59294758D01*
X85305727Y-59322469D01*
X85320292Y-59349142D01*
X85319944Y-59354007D01*
X85321949Y-59358455D01*
X85317476Y-59388515D01*
X85315308Y-59418834D01*
X85312383Y-59422740D01*
X85311666Y-59427564D01*
X85291651Y-59450434D01*
X85273436Y-59474767D01*
X85268865Y-59476471D01*
X85265653Y-59480143D01*
X85236444Y-59488564D01*
X85207972Y-59499184D01*
X85199126Y-59499500D01*
X73124500Y-59499500D01*
X73057461Y-59479815D01*
X73011706Y-59427011D01*
X73000500Y-59375500D01*
X73000500Y-52525552D01*
X73020185Y-52458513D01*
X73072989Y-52412758D01*
X73142147Y-52402814D01*
X73171953Y-52410991D01*
X73314895Y-52470199D01*
X73427302Y-52484999D01*
X73427317Y-52485000D01*
X73440000Y-52485000D01*
X73440000Y-51124000D01*
X73459685Y-51056961D01*
X73512489Y-51011206D01*
X73564000Y-51000000D01*
X73816000Y-51000000D01*
X73883039Y-51019685D01*
G37*
%TD.AperFunction*%
%TA.AperFunction,Conductor*%
G36*
X127942539Y-25020185D02*
G01*
X127988294Y-25072989D01*
X127999500Y-25124500D01*
X127999500Y-59375500D01*
X127979815Y-59442539D01*
X127927011Y-59488294D01*
X127875500Y-59499500D01*
X126774500Y-59499500D01*
X126707461Y-59479815D01*
X126661706Y-59427011D01*
X126650500Y-59375500D01*
X126650499Y-58517129D01*
X126650498Y-58517123D01*
X126650497Y-58517116D01*
X126644091Y-58457517D01*
X126610970Y-58368716D01*
X126593797Y-58322671D01*
X126593793Y-58322664D01*
X126507547Y-58207455D01*
X126507544Y-58207452D01*
X126392335Y-58121206D01*
X126392326Y-58121201D01*
X126378868Y-58116182D01*
X126322934Y-58074312D01*
X126298516Y-58008847D01*
X126313367Y-57940574D01*
X126362772Y-57891168D01*
X126378868Y-57883818D01*
X126392326Y-57878798D01*
X126392326Y-57878797D01*
X126392331Y-57878796D01*
X126507546Y-57792546D01*
X126593796Y-57677331D01*
X126644091Y-57542483D01*
X126650500Y-57482873D01*
X126650499Y-56587128D01*
X126644389Y-56530286D01*
X126644091Y-56527516D01*
X126593797Y-56392671D01*
X126593793Y-56392664D01*
X126507547Y-56277455D01*
X126507544Y-56277452D01*
X126392335Y-56191206D01*
X126392328Y-56191202D01*
X126257482Y-56140908D01*
X126257483Y-56140908D01*
X126197883Y-56134501D01*
X126197881Y-56134500D01*
X126197873Y-56134500D01*
X126197865Y-56134500D01*
X125224499Y-56134500D01*
X125157460Y-56114815D01*
X125111705Y-56062011D01*
X125100499Y-56010500D01*
X125100499Y-55452129D01*
X125100498Y-55452123D01*
X125100497Y-55452116D01*
X125094091Y-55392517D01*
X125091867Y-55386555D01*
X125043797Y-55257671D01*
X125043793Y-55257664D01*
X124957547Y-55142455D01*
X124957544Y-55142452D01*
X124843632Y-55057177D01*
X124837547Y-55050321D01*
X124832373Y-55047654D01*
X124810556Y-55019911D01*
X124805002Y-55010292D01*
X124761760Y-54935394D01*
X124744112Y-54904827D01*
X124730521Y-54881285D01*
X124614385Y-54765149D01*
X124614374Y-54765139D01*
X124508839Y-54659604D01*
X124475354Y-54598281D01*
X124474903Y-54596114D01*
X124456111Y-54501644D01*
X124444002Y-54440768D01*
X124428064Y-54402289D01*
X124383662Y-54295092D01*
X124383654Y-54295077D01*
X124382528Y-54293392D01*
X124382209Y-54292373D01*
X124380786Y-54289711D01*
X124381290Y-54289441D01*
X124361649Y-54226715D01*
X124380133Y-54159334D01*
X124432111Y-54112644D01*
X124485629Y-54100500D01*
X126413331Y-54100500D01*
X126413347Y-54100501D01*
X126420943Y-54100501D01*
X126579054Y-54100501D01*
X126579057Y-54100501D01*
X126731785Y-54059577D01*
X126792538Y-54024501D01*
X126868716Y-53980520D01*
X126980520Y-53868716D01*
X126980521Y-53868714D01*
X127480520Y-53368716D01*
X127559577Y-53231784D01*
X127600501Y-53079057D01*
X127600501Y-52920942D01*
X127600501Y-52913347D01*
X127600500Y-52913329D01*
X127600500Y-49089060D01*
X127600501Y-49089047D01*
X127600501Y-48920944D01*
X127595023Y-48900500D01*
X127559577Y-48768216D01*
X127515172Y-48691303D01*
X127480524Y-48631290D01*
X127480518Y-48631282D01*
X126868717Y-48019481D01*
X126868716Y-48019480D01*
X126781904Y-47969360D01*
X126781904Y-47969359D01*
X126781900Y-47969358D01*
X126731785Y-47940423D01*
X126579057Y-47899499D01*
X126420943Y-47899499D01*
X126413347Y-47899499D01*
X126413331Y-47899500D01*
X125989281Y-47899500D01*
X125922242Y-47879815D01*
X125876487Y-47827011D01*
X125865991Y-47788753D01*
X125864821Y-47777872D01*
X125860591Y-47738517D01*
X125810296Y-47603669D01*
X125810295Y-47603668D01*
X125810293Y-47603664D01*
X125724047Y-47488455D01*
X125724044Y-47488452D01*
X125608835Y-47402206D01*
X125608828Y-47402202D01*
X125473982Y-47351908D01*
X125473983Y-47351908D01*
X125414383Y-47345501D01*
X125414381Y-47345500D01*
X125414373Y-47345500D01*
X125414364Y-47345500D01*
X124010629Y-47345500D01*
X124010623Y-47345501D01*
X123951016Y-47351908D01*
X123816171Y-47402202D01*
X123816164Y-47402206D01*
X123700955Y-47488452D01*
X123700952Y-47488455D01*
X123614706Y-47603664D01*
X123614702Y-47603671D01*
X123564408Y-47738517D01*
X123558001Y-47798116D01*
X123558000Y-47798135D01*
X123558000Y-49201870D01*
X123558001Y-49201876D01*
X123564408Y-49261483D01*
X123614702Y-49396328D01*
X123614706Y-49396335D01*
X123700952Y-49511544D01*
X123700955Y-49511547D01*
X123816164Y-49597793D01*
X123816171Y-49597797D01*
X123861118Y-49614561D01*
X123951017Y-49648091D01*
X124010627Y-49654500D01*
X124169193Y-49654499D01*
X124236230Y-49674183D01*
X124256872Y-49690818D01*
X124666054Y-50100000D01*
X124659839Y-50100000D01*
X124558106Y-50127259D01*
X124466894Y-50179920D01*
X124392420Y-50254394D01*
X124339759Y-50345606D01*
X124312500Y-50447339D01*
X124312500Y-50453553D01*
X123737549Y-49878602D01*
X123737548Y-49878603D01*
X123725518Y-49895161D01*
X123725512Y-49895170D01*
X123643048Y-50057015D01*
X123586915Y-50229774D01*
X123558500Y-50409178D01*
X123558500Y-50590821D01*
X123586915Y-50770225D01*
X123643048Y-50942984D01*
X123725512Y-51104830D01*
X123725514Y-51104834D01*
X123737548Y-51121395D01*
X123737549Y-51121396D01*
X124312500Y-50546445D01*
X124312500Y-50552661D01*
X124339759Y-50654394D01*
X124392420Y-50745606D01*
X124466894Y-50820080D01*
X124558106Y-50872741D01*
X124659839Y-50900000D01*
X124666054Y-50900000D01*
X124091102Y-51474949D01*
X124091103Y-51474950D01*
X124107665Y-51486985D01*
X124107679Y-51486993D01*
X124269512Y-51569450D01*
X124442274Y-51625584D01*
X124621679Y-51654000D01*
X124803321Y-51654000D01*
X124982725Y-51625584D01*
X125155484Y-51569451D01*
X125317331Y-51486986D01*
X125333896Y-51474949D01*
X124758947Y-50900000D01*
X124765161Y-50900000D01*
X124866894Y-50872741D01*
X124958106Y-50820080D01*
X125032580Y-50745606D01*
X125085241Y-50654394D01*
X125112500Y-50552661D01*
X125112500Y-50546446D01*
X125687449Y-51121395D01*
X125699486Y-51104831D01*
X125781951Y-50942984D01*
X125838084Y-50770225D01*
X125866500Y-50590821D01*
X125866500Y-50409178D01*
X125838084Y-50229774D01*
X125781950Y-50057012D01*
X125699493Y-49895179D01*
X125699485Y-49895165D01*
X125687450Y-49878603D01*
X125687449Y-49878602D01*
X125112500Y-50453552D01*
X125112500Y-50447339D01*
X125085241Y-50345606D01*
X125032580Y-50254394D01*
X124958106Y-50179920D01*
X124866894Y-50127259D01*
X124765161Y-50100000D01*
X124758947Y-50100000D01*
X125168127Y-49690818D01*
X125229450Y-49657333D01*
X125255806Y-49654499D01*
X125414372Y-49654499D01*
X125473983Y-49648091D01*
X125608831Y-49597796D01*
X125724046Y-49511546D01*
X125810296Y-49396331D01*
X125860591Y-49261483D01*
X125865992Y-49211241D01*
X125866869Y-49209124D01*
X125866543Y-49206853D01*
X125880172Y-49177009D01*
X125892729Y-49146694D01*
X125894614Y-49145384D01*
X125895568Y-49143297D01*
X125923169Y-49125558D01*
X125950121Y-49106846D01*
X125953017Y-49106376D01*
X125954346Y-49105523D01*
X125989281Y-49100500D01*
X126199903Y-49100500D01*
X126266942Y-49120185D01*
X126287584Y-49136819D01*
X126363181Y-49212416D01*
X126396666Y-49273739D01*
X126399500Y-49300097D01*
X126399500Y-52699901D01*
X126379815Y-52766940D01*
X126363182Y-52787582D01*
X126287584Y-52863181D01*
X126226261Y-52896666D01*
X126199902Y-52899500D01*
X124086669Y-52899500D01*
X124086653Y-52899499D01*
X124079057Y-52899499D01*
X123920943Y-52899499D01*
X123813587Y-52928265D01*
X123768210Y-52940424D01*
X123768209Y-52940425D01*
X123718096Y-52969359D01*
X123718095Y-52969360D01*
X123674689Y-52994420D01*
X123631285Y-53019479D01*
X123631282Y-53019481D01*
X123519478Y-53131286D01*
X123519477Y-53131287D01*
X123474397Y-53176366D01*
X123413074Y-53209851D01*
X123343382Y-53204865D01*
X123317826Y-53191786D01*
X123204920Y-53116344D01*
X123204907Y-53116337D01*
X123059236Y-53055999D01*
X123059224Y-53055996D01*
X122904583Y-53025235D01*
X122900009Y-53024785D01*
X122889948Y-53021552D01*
X122882931Y-53021887D01*
X122850177Y-53008774D01*
X122850165Y-53008770D01*
X122781904Y-52969360D01*
X122731785Y-52940423D01*
X122579057Y-52899499D01*
X122420943Y-52899499D01*
X122413347Y-52899499D01*
X122413331Y-52899500D01*
X117586670Y-52899500D01*
X117586654Y-52899499D01*
X117579058Y-52899499D01*
X117420943Y-52899499D01*
X117369263Y-52913347D01*
X117268214Y-52940423D01*
X117268209Y-52940426D01*
X117131290Y-53019475D01*
X117131282Y-53019481D01*
X116019479Y-54131284D01*
X115999707Y-54165532D01*
X115983418Y-54193746D01*
X115940423Y-54268215D01*
X115899499Y-54420943D01*
X115899499Y-54420945D01*
X115899499Y-54589046D01*
X115899500Y-54589059D01*
X115899500Y-55082152D01*
X115879815Y-55149191D01*
X115827011Y-55194946D01*
X115799692Y-55203769D01*
X115666508Y-55230261D01*
X115666498Y-55230264D01*
X115520827Y-55290602D01*
X115520814Y-55290609D01*
X115389711Y-55378210D01*
X115389707Y-55378213D01*
X115278213Y-55489707D01*
X115278210Y-55489711D01*
X115190609Y-55620814D01*
X115190602Y-55620827D01*
X115130264Y-55766498D01*
X115130261Y-55766510D01*
X115099500Y-55921153D01*
X115099500Y-56078846D01*
X115130261Y-56233489D01*
X115130264Y-56233501D01*
X115190602Y-56379172D01*
X115190609Y-56379185D01*
X115278209Y-56510287D01*
X115278210Y-56510288D01*
X115278211Y-56510289D01*
X115363182Y-56595260D01*
X115396666Y-56656581D01*
X115399500Y-56682940D01*
X115399500Y-57199902D01*
X115379815Y-57266941D01*
X115363181Y-57287583D01*
X114787584Y-57863181D01*
X114726261Y-57896666D01*
X114699903Y-57899500D01*
X101249096Y-57899500D01*
X101182057Y-57879815D01*
X101136302Y-57827011D01*
X101126358Y-57757853D01*
X101155383Y-57694297D01*
X101161415Y-57687819D01*
X102754062Y-56095172D01*
X104358506Y-54490728D01*
X104358511Y-54490724D01*
X104368714Y-54480520D01*
X104368716Y-54480520D01*
X104480520Y-54368716D01*
X104559577Y-54231784D01*
X104594754Y-54100501D01*
X104600500Y-54079058D01*
X104600500Y-53936797D01*
X104600666Y-53933592D01*
X104611210Y-53903528D01*
X104620185Y-53872965D01*
X104622846Y-53870351D01*
X104623791Y-53867660D01*
X104632532Y-53860843D01*
X104659403Y-53834465D01*
X104678044Y-53822968D01*
X104687319Y-53813693D01*
X104748642Y-53780208D01*
X104818334Y-53785192D01*
X104862681Y-53813693D01*
X104871955Y-53822967D01*
X104871959Y-53822970D01*
X105016294Y-53911998D01*
X105016297Y-53911999D01*
X105016303Y-53912003D01*
X105177292Y-53965349D01*
X105276655Y-53975500D01*
X105823344Y-53975499D01*
X105823352Y-53975498D01*
X105823355Y-53975498D01*
X105877760Y-53969940D01*
X105922708Y-53965349D01*
X106083697Y-53912003D01*
X106228044Y-53822968D01*
X106347968Y-53703044D01*
X106374887Y-53659402D01*
X106426835Y-53612678D01*
X106480425Y-53600500D01*
X107519575Y-53600500D01*
X107586614Y-53620185D01*
X107625113Y-53659402D01*
X107652031Y-53703043D01*
X107771955Y-53822967D01*
X107771959Y-53822970D01*
X107916294Y-53911998D01*
X107916297Y-53911999D01*
X107916303Y-53912003D01*
X108077292Y-53965349D01*
X108176655Y-53975500D01*
X108723344Y-53975499D01*
X108723352Y-53975498D01*
X108723355Y-53975498D01*
X108777760Y-53969940D01*
X108822708Y-53965349D01*
X108983697Y-53912003D01*
X109128044Y-53822968D01*
X109137319Y-53813693D01*
X109145264Y-53809354D01*
X109150690Y-53802107D01*
X109175449Y-53792872D01*
X109198642Y-53780208D01*
X109207671Y-53780853D01*
X109216154Y-53777690D01*
X109241974Y-53783306D01*
X109268334Y-53785192D01*
X109277387Y-53791010D01*
X109284427Y-53792542D01*
X109312681Y-53813693D01*
X109313181Y-53814193D01*
X109346666Y-53875516D01*
X109349500Y-53901874D01*
X109349500Y-54059995D01*
X109329815Y-54127034D01*
X109290600Y-54165531D01*
X109286464Y-54168082D01*
X109271954Y-54177033D01*
X109152029Y-54296959D01*
X109063001Y-54441294D01*
X109062996Y-54441305D01*
X109009651Y-54602290D01*
X108999500Y-54701647D01*
X108999500Y-55298337D01*
X108999501Y-55298355D01*
X109009650Y-55397707D01*
X109009651Y-55397710D01*
X109062996Y-55558694D01*
X109063001Y-55558705D01*
X109152029Y-55703040D01*
X109152032Y-55703044D01*
X109271955Y-55822967D01*
X109271959Y-55822970D01*
X109416294Y-55911998D01*
X109416297Y-55911999D01*
X109416303Y-55912003D01*
X109577292Y-55965349D01*
X109676655Y-55975500D01*
X110223344Y-55975499D01*
X110223352Y-55975498D01*
X110223355Y-55975498D01*
X110277760Y-55969940D01*
X110322708Y-55965349D01*
X110483697Y-55912003D01*
X110628044Y-55822968D01*
X110637668Y-55813343D01*
X110698987Y-55779856D01*
X110768679Y-55784835D01*
X110813034Y-55813339D01*
X110822267Y-55822572D01*
X110822271Y-55822575D01*
X110966507Y-55911542D01*
X110966518Y-55911547D01*
X111127393Y-55964855D01*
X111226683Y-55974999D01*
X111750000Y-55974999D01*
X111773308Y-55974999D01*
X111773322Y-55974998D01*
X111872607Y-55964855D01*
X112033481Y-55911547D01*
X112033492Y-55911542D01*
X112177728Y-55822575D01*
X112177732Y-55822572D01*
X112297572Y-55702732D01*
X112297575Y-55702728D01*
X112386542Y-55558492D01*
X112386547Y-55558481D01*
X112439855Y-55397606D01*
X112449999Y-55298322D01*
X112450000Y-55298309D01*
X112450000Y-55250000D01*
X111750000Y-55250000D01*
X111750000Y-55974999D01*
X111226683Y-55974999D01*
X111250000Y-55974998D01*
X111250000Y-54750000D01*
X111750000Y-54750000D01*
X112449999Y-54750000D01*
X112449999Y-54701692D01*
X112449998Y-54701677D01*
X112439855Y-54602392D01*
X112386547Y-54441518D01*
X112386542Y-54441507D01*
X112297575Y-54297271D01*
X112297572Y-54297267D01*
X112177732Y-54177427D01*
X112177728Y-54177424D01*
X112033492Y-54088457D01*
X112033481Y-54088452D01*
X111872606Y-54035144D01*
X111773322Y-54025000D01*
X111750000Y-54025000D01*
X111750000Y-54750000D01*
X111250000Y-54750000D01*
X111250000Y-54024999D01*
X111226693Y-54025000D01*
X111226674Y-54025001D01*
X111127392Y-54035144D01*
X110966518Y-54088452D01*
X110966507Y-54088457D01*
X110822271Y-54177424D01*
X110822264Y-54177430D01*
X110813028Y-54186665D01*
X110812384Y-54187016D01*
X110812026Y-54187656D01*
X110781752Y-54203740D01*
X110751703Y-54220146D01*
X110750972Y-54220093D01*
X110750324Y-54220438D01*
X110716164Y-54217601D01*
X110682011Y-54215157D01*
X110681180Y-54214697D01*
X110680694Y-54214657D01*
X110678338Y-54213124D01*
X110649913Y-54197389D01*
X110643435Y-54192423D01*
X110628044Y-54177032D01*
X110604054Y-54162234D01*
X110599060Y-54158406D01*
X110582003Y-54135071D01*
X110562677Y-54113582D01*
X110561043Y-54106394D01*
X110557830Y-54101998D01*
X110557034Y-54088752D01*
X110550500Y-54059995D01*
X110550500Y-53970845D01*
X110570185Y-53903806D01*
X110609403Y-53865307D01*
X110659404Y-53834465D01*
X110678044Y-53822968D01*
X110797968Y-53703044D01*
X110887003Y-53558697D01*
X110927697Y-53435886D01*
X110967469Y-53378443D01*
X111031985Y-53351619D01*
X111100761Y-53363934D01*
X111150941Y-53409792D01*
X111177428Y-53452733D01*
X111297267Y-53572572D01*
X111297271Y-53572575D01*
X111441507Y-53661542D01*
X111441518Y-53661547D01*
X111602393Y-53714855D01*
X111701683Y-53724999D01*
X112250000Y-53724999D01*
X112298308Y-53724999D01*
X112298322Y-53724998D01*
X112397607Y-53714855D01*
X112558481Y-53661547D01*
X112558492Y-53661542D01*
X112702728Y-53572575D01*
X112702732Y-53572572D01*
X112822572Y-53452732D01*
X112822575Y-53452728D01*
X112911542Y-53308492D01*
X112911547Y-53308481D01*
X112964855Y-53147606D01*
X112974999Y-53048322D01*
X112975000Y-53048309D01*
X112975000Y-53025000D01*
X112250000Y-53025000D01*
X112250000Y-53724999D01*
X111701683Y-53724999D01*
X111749999Y-53724998D01*
X111750000Y-53724998D01*
X111750000Y-52899000D01*
X111769685Y-52831961D01*
X111822489Y-52786206D01*
X111874000Y-52775000D01*
X112000000Y-52775000D01*
X112000000Y-52649000D01*
X112019685Y-52581961D01*
X112072489Y-52536206D01*
X112124000Y-52525000D01*
X112974999Y-52525000D01*
X112974999Y-52501692D01*
X112974998Y-52501677D01*
X112964855Y-52402392D01*
X112911547Y-52241518D01*
X112911542Y-52241507D01*
X112822575Y-52097271D01*
X112822572Y-52097267D01*
X112813339Y-52088034D01*
X112779854Y-52026711D01*
X112784838Y-51957019D01*
X112813343Y-51912668D01*
X112822968Y-51903044D01*
X112912003Y-51758697D01*
X112965349Y-51597708D01*
X112975500Y-51498345D01*
X112975499Y-51048322D01*
X113525001Y-51048322D01*
X113535144Y-51147607D01*
X113588452Y-51308481D01*
X113588457Y-51308492D01*
X113677424Y-51452728D01*
X113677427Y-51452732D01*
X113797267Y-51572572D01*
X113797271Y-51572575D01*
X113941507Y-51661542D01*
X113941518Y-51661547D01*
X114102393Y-51714855D01*
X114201683Y-51724999D01*
X114750000Y-51724999D01*
X114798308Y-51724999D01*
X114798322Y-51724998D01*
X114897607Y-51714855D01*
X115058481Y-51661547D01*
X115058492Y-51661542D01*
X115202728Y-51572575D01*
X115202732Y-51572572D01*
X115322572Y-51452732D01*
X115322575Y-51452728D01*
X115378173Y-51362592D01*
X115411542Y-51308492D01*
X115411547Y-51308481D01*
X115464855Y-51147606D01*
X115474999Y-51048322D01*
X115475000Y-51048309D01*
X115475000Y-51025000D01*
X114750000Y-51025000D01*
X114750000Y-51724999D01*
X114201683Y-51724999D01*
X114249999Y-51724998D01*
X114250000Y-51724998D01*
X114250000Y-51025000D01*
X113525001Y-51025000D01*
X113525001Y-51048322D01*
X112975499Y-51048322D01*
X112975499Y-50951656D01*
X112974351Y-50940422D01*
X112965349Y-50852292D01*
X112965348Y-50852289D01*
X112919310Y-50713355D01*
X112912003Y-50691303D01*
X112911999Y-50691297D01*
X112911998Y-50691294D01*
X112822970Y-50546959D01*
X112822969Y-50546958D01*
X112822968Y-50546956D01*
X112703044Y-50427032D01*
X112703043Y-50427031D01*
X112703042Y-50427030D01*
X112659402Y-50400112D01*
X112612678Y-50348163D01*
X112600500Y-50294574D01*
X112600500Y-49541715D01*
X112620185Y-49474676D01*
X112660349Y-49435598D01*
X112710185Y-49405472D01*
X112830472Y-49285185D01*
X112918478Y-49139606D01*
X112969086Y-48977196D01*
X112975500Y-48906616D01*
X112975500Y-48575096D01*
X112995185Y-48508057D01*
X113011815Y-48487419D01*
X113257506Y-48241727D01*
X113257511Y-48241724D01*
X113267714Y-48231520D01*
X113267716Y-48231520D01*
X113379520Y-48119716D01*
X113440084Y-48014815D01*
X113454166Y-47990425D01*
X113454167Y-47990424D01*
X113455956Y-47987324D01*
X113458577Y-47982785D01*
X113499501Y-47830057D01*
X113499501Y-47671943D01*
X113499501Y-47664348D01*
X113499500Y-47664330D01*
X113499500Y-43924500D01*
X113500092Y-43922480D01*
X113499566Y-43920442D01*
X113509897Y-43889089D01*
X113519185Y-43857461D01*
X113520774Y-43856083D01*
X113521434Y-43854082D01*
X113547079Y-43833289D01*
X113571989Y-43811706D01*
X113574586Y-43810989D01*
X113575708Y-43810080D01*
X113583650Y-43808487D01*
X113609879Y-43801250D01*
X113616666Y-43800500D01*
X113678842Y-43800500D01*
X113756571Y-43785038D01*
X113761879Y-43784452D01*
X113791223Y-43789656D01*
X113820899Y-43792312D01*
X113825249Y-43795691D01*
X113830675Y-43796654D01*
X113852545Y-43816894D01*
X113876077Y-43835174D01*
X113877909Y-43840369D01*
X113881954Y-43844112D01*
X113889410Y-43872967D01*
X113899322Y-43901063D01*
X113899500Y-43907702D01*
X113899500Y-48294574D01*
X113879815Y-48361613D01*
X113840598Y-48400112D01*
X113796957Y-48427030D01*
X113677029Y-48546959D01*
X113588001Y-48691294D01*
X113587996Y-48691305D01*
X113534651Y-48852290D01*
X113524500Y-48951647D01*
X113524500Y-49498337D01*
X113524501Y-49498355D01*
X113534650Y-49597707D01*
X113534651Y-49597710D01*
X113587996Y-49758694D01*
X113588001Y-49758705D01*
X113677029Y-49903040D01*
X113677032Y-49903044D01*
X113686660Y-49912672D01*
X113720145Y-49973995D01*
X113715161Y-50043687D01*
X113686663Y-50088031D01*
X113677428Y-50097265D01*
X113677424Y-50097271D01*
X113588457Y-50241507D01*
X113588452Y-50241518D01*
X113535144Y-50402393D01*
X113525000Y-50501677D01*
X113525000Y-50525000D01*
X115474999Y-50525000D01*
X115474999Y-50501692D01*
X115474998Y-50501674D01*
X115466339Y-50416907D01*
X115464855Y-50402392D01*
X115411547Y-50241518D01*
X115411542Y-50241507D01*
X115322575Y-50097271D01*
X115322572Y-50097267D01*
X115313339Y-50088034D01*
X115279854Y-50026711D01*
X115284838Y-49957019D01*
X115313343Y-49912668D01*
X115322968Y-49903044D01*
X115412003Y-49758697D01*
X115465349Y-49597708D01*
X115475500Y-49498345D01*
X115475499Y-48951656D01*
X115470273Y-48900500D01*
X115465349Y-48852292D01*
X115465348Y-48852289D01*
X115437489Y-48768216D01*
X115412003Y-48691303D01*
X115411999Y-48691297D01*
X115411998Y-48691294D01*
X115322970Y-48546959D01*
X115322969Y-48546958D01*
X115322968Y-48546956D01*
X115203044Y-48427032D01*
X115203043Y-48427031D01*
X115203042Y-48427030D01*
X115159402Y-48400112D01*
X115112678Y-48348163D01*
X115100500Y-48294574D01*
X115100500Y-43589060D01*
X115100501Y-43589047D01*
X115100501Y-43420944D01*
X115100501Y-43420943D01*
X115091632Y-43387844D01*
X124450000Y-43387844D01*
X124456401Y-43447372D01*
X124456403Y-43447379D01*
X124506645Y-43582086D01*
X124506649Y-43582093D01*
X124592809Y-43697187D01*
X124592812Y-43697190D01*
X124707906Y-43783350D01*
X124707913Y-43783354D01*
X124842620Y-43833596D01*
X124842627Y-43833598D01*
X124902155Y-43839999D01*
X124902172Y-43840000D01*
X125600000Y-43840000D01*
X126100000Y-43840000D01*
X126797828Y-43840000D01*
X126797844Y-43839999D01*
X126857372Y-43833598D01*
X126857379Y-43833596D01*
X126992086Y-43783354D01*
X126992093Y-43783350D01*
X127107187Y-43697190D01*
X127107190Y-43697187D01*
X127193350Y-43582093D01*
X127193354Y-43582086D01*
X127243596Y-43447379D01*
X127243598Y-43447372D01*
X127249999Y-43387844D01*
X127250000Y-43387827D01*
X127250000Y-43005000D01*
X126100000Y-43005000D01*
X126100000Y-43840000D01*
X125600000Y-43840000D01*
X125600000Y-43005000D01*
X124450000Y-43005000D01*
X124450000Y-43387844D01*
X115091632Y-43387844D01*
X115059577Y-43268216D01*
X115049060Y-43250000D01*
X114980524Y-43131290D01*
X114980518Y-43131282D01*
X114368717Y-42519481D01*
X114368716Y-42519480D01*
X114342532Y-42504363D01*
X114288580Y-42473214D01*
X114288577Y-42473213D01*
X114281904Y-42469360D01*
X114231785Y-42440423D01*
X114174637Y-42425110D01*
X114166759Y-42421784D01*
X114151001Y-42408908D01*
X114127307Y-42395228D01*
X114110292Y-42378213D01*
X114110288Y-42378210D01*
X113979185Y-42290609D01*
X113979172Y-42290602D01*
X113833501Y-42230264D01*
X113833489Y-42230261D01*
X113678845Y-42199500D01*
X113678842Y-42199500D01*
X113623500Y-42199500D01*
X113556461Y-42179815D01*
X113510706Y-42127011D01*
X113499500Y-42075500D01*
X113499500Y-41727844D01*
X114200000Y-41727844D01*
X114206401Y-41787372D01*
X114206403Y-41787379D01*
X114256645Y-41922086D01*
X114256649Y-41922093D01*
X114342809Y-42037187D01*
X114342812Y-42037190D01*
X114457906Y-42123350D01*
X114457913Y-42123354D01*
X114592620Y-42173596D01*
X114592627Y-42173598D01*
X114652155Y-42179999D01*
X114652172Y-42180000D01*
X115125000Y-42180000D01*
X115625000Y-42180000D01*
X116097828Y-42180000D01*
X116097844Y-42179999D01*
X116157372Y-42173598D01*
X116157379Y-42173596D01*
X116292086Y-42123354D01*
X116292093Y-42123350D01*
X116407187Y-42037190D01*
X116407190Y-42037187D01*
X116493350Y-41922093D01*
X116493354Y-41922086D01*
X116543596Y-41787379D01*
X116543598Y-41787372D01*
X116549999Y-41727844D01*
X116550000Y-41727827D01*
X116550000Y-40980000D01*
X115625000Y-40980000D01*
X115625000Y-42180000D01*
X115125000Y-42180000D01*
X115125000Y-40980000D01*
X114200000Y-40980000D01*
X114200000Y-41727844D01*
X113499500Y-41727844D01*
X113499500Y-39738046D01*
X113499501Y-39732155D01*
X114200000Y-39732155D01*
X114200000Y-40480000D01*
X115125000Y-40480000D01*
X115125000Y-39280000D01*
X114652155Y-39280000D01*
X114592627Y-39286401D01*
X114592620Y-39286403D01*
X114457913Y-39336645D01*
X114457906Y-39336649D01*
X114342812Y-39422809D01*
X114342809Y-39422812D01*
X114256649Y-39537906D01*
X114256645Y-39537913D01*
X114206403Y-39672620D01*
X114206401Y-39672627D01*
X114200000Y-39732155D01*
X113499501Y-39732155D01*
X113499501Y-39728838D01*
X113499501Y-39569945D01*
X113499501Y-39569943D01*
X113458577Y-39417215D01*
X113404182Y-39323001D01*
X113379520Y-39280284D01*
X113267716Y-39168480D01*
X113267713Y-39168478D01*
X112636819Y-38537584D01*
X112603334Y-38476261D01*
X112600500Y-38449903D01*
X112600500Y-37050096D01*
X112620185Y-36983057D01*
X112636815Y-36962419D01*
X112912318Y-36686915D01*
X112920263Y-36682577D01*
X112925688Y-36675331D01*
X112950447Y-36666095D01*
X112973641Y-36653431D01*
X112982670Y-36654076D01*
X112991152Y-36650913D01*
X113016974Y-36656529D01*
X113043333Y-36658415D01*
X113052385Y-36664232D01*
X113059425Y-36665764D01*
X113087676Y-36686913D01*
X113087679Y-36686915D01*
X113131284Y-36730520D01*
X113131286Y-36730521D01*
X115588681Y-39187917D01*
X115622166Y-39249239D01*
X115625000Y-39275597D01*
X115625000Y-40480000D01*
X116550000Y-40480000D01*
X116550000Y-40448597D01*
X116569685Y-40381558D01*
X116622489Y-40335803D01*
X116691647Y-40325859D01*
X116755203Y-40354884D01*
X116761668Y-40360904D01*
X117381284Y-40980520D01*
X117457462Y-41024501D01*
X117518215Y-41059577D01*
X117670943Y-41100501D01*
X117670946Y-41100501D01*
X117829056Y-41100501D01*
X117829058Y-41100501D01*
X117831958Y-41099723D01*
X117864047Y-41095500D01*
X125025500Y-41095500D01*
X125092539Y-41115185D01*
X125138294Y-41167989D01*
X125149500Y-41219500D01*
X125149500Y-41542627D01*
X125149501Y-41546000D01*
X125129817Y-41613039D01*
X125077013Y-41658794D01*
X125025501Y-41670000D01*
X124902155Y-41670000D01*
X124842627Y-41676401D01*
X124842620Y-41676403D01*
X124707913Y-41726645D01*
X124707906Y-41726649D01*
X124592812Y-41812809D01*
X124592809Y-41812812D01*
X124506649Y-41927906D01*
X124506645Y-41927913D01*
X124456403Y-42062620D01*
X124456401Y-42062627D01*
X124450000Y-42122155D01*
X124450000Y-42505000D01*
X127250000Y-42505000D01*
X127250000Y-42122172D01*
X127249999Y-42122160D01*
X127243380Y-42060604D01*
X127243380Y-42034089D01*
X127244089Y-42027485D01*
X127244091Y-42027483D01*
X127250500Y-41967873D01*
X127250499Y-41122128D01*
X127244091Y-41062517D01*
X127244089Y-41062513D01*
X127243632Y-41058255D01*
X127243633Y-41031745D01*
X127248230Y-40988985D01*
X127250500Y-40967873D01*
X127250499Y-40022128D01*
X127244091Y-39962517D01*
X127244090Y-39962516D01*
X127243380Y-39955904D01*
X127243381Y-39929393D01*
X127249999Y-39867842D01*
X127250000Y-39867827D01*
X127250000Y-39645000D01*
X127058403Y-39645000D01*
X126998975Y-39629832D01*
X126992328Y-39626202D01*
X126857482Y-39575908D01*
X126857483Y-39575908D01*
X126797883Y-39569501D01*
X126797881Y-39569500D01*
X126797873Y-39569500D01*
X126797865Y-39569500D01*
X125602129Y-39569500D01*
X125602123Y-39569501D01*
X125542516Y-39575908D01*
X125407671Y-39626202D01*
X125401025Y-39629832D01*
X125341597Y-39645000D01*
X125150000Y-39645000D01*
X125150000Y-39770500D01*
X125130315Y-39837539D01*
X125077511Y-39883294D01*
X125026000Y-39894500D01*
X118045098Y-39894500D01*
X117978059Y-39874815D01*
X117957417Y-39858181D01*
X114516468Y-36417232D01*
X114482983Y-36355909D01*
X114487967Y-36286217D01*
X114529839Y-36230284D01*
X114595303Y-36205867D01*
X114617407Y-36206262D01*
X114652160Y-36209999D01*
X114652172Y-36210000D01*
X115125000Y-36210000D01*
X115625000Y-36210000D01*
X116097828Y-36210000D01*
X116097844Y-36209999D01*
X116157372Y-36203598D01*
X116157379Y-36203596D01*
X116292086Y-36153354D01*
X116292093Y-36153350D01*
X116407187Y-36067190D01*
X116407190Y-36067187D01*
X116493350Y-35952093D01*
X116493354Y-35952086D01*
X116543596Y-35817379D01*
X116543598Y-35817372D01*
X116549999Y-35757844D01*
X116550000Y-35757827D01*
X116550000Y-35010000D01*
X115625000Y-35010000D01*
X115625000Y-36210000D01*
X115125000Y-36210000D01*
X115125000Y-34510000D01*
X115625000Y-34510000D01*
X116550000Y-34510000D01*
X116550000Y-33762172D01*
X116549999Y-33762155D01*
X116543598Y-33702627D01*
X116543596Y-33702620D01*
X116493354Y-33567913D01*
X116493350Y-33567906D01*
X116407190Y-33452812D01*
X116407187Y-33452809D01*
X116292093Y-33366649D01*
X116292086Y-33366645D01*
X116157379Y-33316403D01*
X116157372Y-33316401D01*
X116097844Y-33310000D01*
X115625000Y-33310000D01*
X115625000Y-34510000D01*
X115125000Y-34510000D01*
X115125000Y-33310000D01*
X114652155Y-33310000D01*
X114592627Y-33316401D01*
X114592620Y-33316403D01*
X114457913Y-33366645D01*
X114457906Y-33366649D01*
X114342812Y-33452809D01*
X114323766Y-33478252D01*
X114267832Y-33520122D01*
X114198140Y-33525106D01*
X114136818Y-33491620D01*
X114103333Y-33430297D01*
X114100500Y-33403940D01*
X114100500Y-31420945D01*
X114100500Y-31420943D01*
X114081625Y-31350500D01*
X114059577Y-31268215D01*
X114021646Y-31202517D01*
X113980520Y-31131284D01*
X113943996Y-31094760D01*
X113938027Y-31086400D01*
X113929794Y-31062711D01*
X113917776Y-31040702D01*
X113918521Y-31030276D01*
X113915090Y-31020403D01*
X113920970Y-30996025D01*
X113922760Y-30971010D01*
X113929025Y-30962640D01*
X113931476Y-30952482D01*
X113949602Y-30935154D01*
X113964632Y-30915077D01*
X113974424Y-30911424D01*
X113981981Y-30904201D01*
X114006601Y-30899422D01*
X114030096Y-30890660D01*
X114038942Y-30890344D01*
X115225500Y-30890344D01*
X115292539Y-30910029D01*
X115338294Y-30962833D01*
X115349500Y-31014344D01*
X115349500Y-31907870D01*
X115349501Y-31907876D01*
X115355908Y-31967483D01*
X115406202Y-32102328D01*
X115406206Y-32102335D01*
X115492452Y-32217544D01*
X115492455Y-32217547D01*
X115607664Y-32303793D01*
X115607671Y-32303797D01*
X115742517Y-32354091D01*
X115742516Y-32354091D01*
X115749444Y-32354835D01*
X115802127Y-32360500D01*
X116897872Y-32360499D01*
X116957483Y-32354091D01*
X117092331Y-32303796D01*
X117207546Y-32217546D01*
X117293796Y-32102331D01*
X117344091Y-31967483D01*
X117350500Y-31907873D01*
X117350499Y-31014343D01*
X117370183Y-30947305D01*
X117422987Y-30901550D01*
X117474499Y-30890344D01*
X118925500Y-30890344D01*
X118992539Y-30910029D01*
X119038294Y-30962833D01*
X119049500Y-31014344D01*
X119049500Y-31907870D01*
X119049501Y-31907876D01*
X119055908Y-31967483D01*
X119106202Y-32102328D01*
X119106206Y-32102335D01*
X119192452Y-32217544D01*
X119192455Y-32217547D01*
X119307664Y-32303793D01*
X119307671Y-32303797D01*
X119442517Y-32354091D01*
X119442516Y-32354091D01*
X119449444Y-32354835D01*
X119502127Y-32360500D01*
X120597872Y-32360499D01*
X120657483Y-32354091D01*
X120792331Y-32303796D01*
X120907546Y-32217546D01*
X120993796Y-32102331D01*
X121044091Y-31967483D01*
X121050500Y-31907873D01*
X121050499Y-31199094D01*
X121070183Y-31132057D01*
X121122987Y-31086302D01*
X121192146Y-31076358D01*
X121255702Y-31105383D01*
X121262180Y-31111415D01*
X121962181Y-31811416D01*
X121995666Y-31872739D01*
X121998500Y-31899097D01*
X121998500Y-35396530D01*
X121998499Y-35396548D01*
X121998499Y-35562254D01*
X121998498Y-35562254D01*
X122018950Y-35638583D01*
X122039423Y-35714985D01*
X122044050Y-35722999D01*
X122118477Y-35851912D01*
X122118481Y-35851917D01*
X122237349Y-35970785D01*
X122237354Y-35970789D01*
X125042084Y-38775520D01*
X125042085Y-38775521D01*
X125042087Y-38775522D01*
X125088617Y-38802386D01*
X125136832Y-38852953D01*
X125149526Y-38918812D01*
X125150178Y-38918847D01*
X125150037Y-38921465D01*
X125150056Y-38921560D01*
X125150006Y-38922045D01*
X125150000Y-38922172D01*
X125150000Y-39145000D01*
X125341597Y-39145000D01*
X125401025Y-39160168D01*
X125407671Y-39163797D01*
X125420222Y-39168478D01*
X125542517Y-39214091D01*
X125602127Y-39220500D01*
X126797872Y-39220499D01*
X126857483Y-39214091D01*
X126992331Y-39163796D01*
X126992334Y-39163793D01*
X126998975Y-39160168D01*
X127058403Y-39145000D01*
X127250000Y-39145000D01*
X127250000Y-38922172D01*
X127249999Y-38922160D01*
X127243380Y-38860604D01*
X127243380Y-38834089D01*
X127244089Y-38827485D01*
X127244091Y-38827483D01*
X127250500Y-38767873D01*
X127250499Y-37822128D01*
X127244091Y-37762517D01*
X127244089Y-37762513D01*
X127243632Y-37758255D01*
X127243633Y-37731745D01*
X127245791Y-37711669D01*
X127250500Y-37667873D01*
X127250499Y-36722128D01*
X127244091Y-36662517D01*
X127244089Y-36662513D01*
X127243632Y-36658255D01*
X127243633Y-36631745D01*
X127247689Y-36594015D01*
X127250500Y-36567873D01*
X127250499Y-35622128D01*
X127244091Y-35562517D01*
X127244089Y-35562513D01*
X127243632Y-35558255D01*
X127243633Y-35531745D01*
X127248042Y-35490732D01*
X127250500Y-35467873D01*
X127250499Y-34522128D01*
X127244091Y-34462517D01*
X127244089Y-34462513D01*
X127243632Y-34458255D01*
X127243633Y-34431745D01*
X127247555Y-34395265D01*
X127250500Y-34367873D01*
X127250499Y-33422128D01*
X127244091Y-33362517D01*
X127240472Y-33352815D01*
X127193797Y-33227671D01*
X127193793Y-33227664D01*
X127107547Y-33112455D01*
X127107544Y-33112452D01*
X126992335Y-33026206D01*
X126992328Y-33026202D01*
X126857482Y-32975908D01*
X126857483Y-32975908D01*
X126797883Y-32969501D01*
X126797881Y-32969500D01*
X126797873Y-32969500D01*
X126797864Y-32969500D01*
X125602129Y-32969500D01*
X125602123Y-32969501D01*
X125542517Y-32975908D01*
X125519074Y-32984652D01*
X125449382Y-32989635D01*
X125388060Y-32956148D01*
X125354576Y-32894824D01*
X125351743Y-32868469D01*
X125351743Y-32834000D01*
X125371428Y-32766961D01*
X125424232Y-32721206D01*
X125475743Y-32710000D01*
X125825000Y-32710000D01*
X126325000Y-32710000D01*
X126797828Y-32710000D01*
X126797844Y-32709999D01*
X126857372Y-32703598D01*
X126857379Y-32703596D01*
X126992086Y-32653354D01*
X126992093Y-32653350D01*
X127107187Y-32567190D01*
X127107190Y-32567187D01*
X127193350Y-32452093D01*
X127193354Y-32452086D01*
X127243596Y-32317379D01*
X127243598Y-32317372D01*
X127249999Y-32257844D01*
X127250000Y-32257827D01*
X127250000Y-31685000D01*
X126325000Y-31685000D01*
X126325000Y-32710000D01*
X125825000Y-32710000D01*
X125825000Y-31185000D01*
X126325000Y-31185000D01*
X127250000Y-31185000D01*
X127250000Y-30612172D01*
X127249999Y-30612155D01*
X127243598Y-30552627D01*
X127243596Y-30552620D01*
X127193354Y-30417913D01*
X127193350Y-30417906D01*
X127107190Y-30302812D01*
X127107187Y-30302809D01*
X126992093Y-30216649D01*
X126992086Y-30216645D01*
X126857379Y-30166403D01*
X126857372Y-30166401D01*
X126797844Y-30160000D01*
X126325000Y-30160000D01*
X126325000Y-31185000D01*
X125825000Y-31185000D01*
X125825000Y-30160000D01*
X125475743Y-30160000D01*
X125408704Y-30140315D01*
X125362949Y-30087511D01*
X125351743Y-30036000D01*
X125351743Y-29574299D01*
X125371428Y-29507260D01*
X125372641Y-29505408D01*
X125460633Y-29373719D01*
X125460633Y-29373718D01*
X125460637Y-29373713D01*
X125461833Y-29370827D01*
X125516142Y-29239711D01*
X125520980Y-29228031D01*
X125551743Y-29073376D01*
X125551743Y-28915692D01*
X125551743Y-28915689D01*
X125543389Y-28873692D01*
X125549616Y-28804100D01*
X125592479Y-28748923D01*
X125658369Y-28725678D01*
X125665006Y-28725500D01*
X125831613Y-28725500D01*
X125831616Y-28725500D01*
X125902196Y-28719086D01*
X126064606Y-28668478D01*
X126210185Y-28580472D01*
X126330472Y-28460185D01*
X126418478Y-28314606D01*
X126469086Y-28152196D01*
X126475500Y-28081616D01*
X126475500Y-27568384D01*
X126469086Y-27497804D01*
X126418478Y-27335394D01*
X126330472Y-27189815D01*
X126330470Y-27189813D01*
X126330469Y-27189811D01*
X126228339Y-27087681D01*
X126194854Y-27026358D01*
X126199838Y-26956666D01*
X126228339Y-26912319D01*
X126330468Y-26810189D01*
X126330469Y-26810188D01*
X126330472Y-26810185D01*
X126418478Y-26664606D01*
X126469086Y-26502196D01*
X126475500Y-26431616D01*
X126475500Y-25918384D01*
X126469086Y-25847804D01*
X126418478Y-25685394D01*
X126330472Y-25539815D01*
X126330470Y-25539813D01*
X126330469Y-25539811D01*
X126210188Y-25419530D01*
X126081116Y-25341503D01*
X126064606Y-25331522D01*
X125902196Y-25280914D01*
X125902194Y-25280913D01*
X125902192Y-25280913D01*
X125852778Y-25276423D01*
X125831616Y-25274500D01*
X125168384Y-25274500D01*
X125149145Y-25276248D01*
X125097807Y-25280913D01*
X124935393Y-25331522D01*
X124789811Y-25419530D01*
X124789810Y-25419531D01*
X124671161Y-25538181D01*
X124609838Y-25571666D01*
X124583480Y-25574500D01*
X110917848Y-25574500D01*
X110850809Y-25554815D01*
X110805054Y-25502011D01*
X110796231Y-25474692D01*
X110769738Y-25341508D01*
X110769737Y-25341507D01*
X110769737Y-25341503D01*
X110765603Y-25331522D01*
X110709397Y-25195827D01*
X110709390Y-25195814D01*
X110707771Y-25193391D01*
X110707312Y-25191927D01*
X110706521Y-25190446D01*
X110706801Y-25190295D01*
X110686893Y-25126713D01*
X110705378Y-25059333D01*
X110757356Y-25012643D01*
X110810873Y-25000500D01*
X127875500Y-25000500D01*
X127942539Y-25020185D01*
G37*
%TD.AperFunction*%
%TA.AperFunction,Conductor*%
G36*
X106771890Y-33286676D02*
G01*
X106776358Y-33286357D01*
X106793327Y-33291338D01*
X106827517Y-33304091D01*
X106887127Y-33310500D01*
X107775500Y-33310499D01*
X107842539Y-33330183D01*
X107888294Y-33382987D01*
X107899500Y-33434499D01*
X107899500Y-33807869D01*
X107899501Y-33807876D01*
X107905908Y-33867481D01*
X107918659Y-33901669D01*
X107923642Y-33971361D01*
X107918659Y-33988331D01*
X107905908Y-34022518D01*
X107899501Y-34082116D01*
X107899501Y-34082123D01*
X107899500Y-34082135D01*
X107899500Y-35077870D01*
X107899501Y-35077876D01*
X107905908Y-35137481D01*
X107918659Y-35171669D01*
X107923642Y-35241361D01*
X107918659Y-35258331D01*
X107905908Y-35292518D01*
X107899501Y-35352116D01*
X107899501Y-35352123D01*
X107899500Y-35352135D01*
X107899500Y-36347870D01*
X107899501Y-36347876D01*
X107905908Y-36407481D01*
X107918659Y-36441669D01*
X107923642Y-36511361D01*
X107918659Y-36528331D01*
X107905908Y-36562518D01*
X107902522Y-36594015D01*
X107899501Y-36622123D01*
X107899500Y-36622135D01*
X107899500Y-37617870D01*
X107899501Y-37617876D01*
X107905908Y-37677481D01*
X107918659Y-37711669D01*
X107923642Y-37781361D01*
X107918659Y-37798331D01*
X107905908Y-37832518D01*
X107899501Y-37892116D01*
X107899501Y-37892123D01*
X107899500Y-37892135D01*
X107899500Y-38887870D01*
X107899501Y-38887876D01*
X107905908Y-38947481D01*
X107918659Y-38981669D01*
X107923642Y-39051361D01*
X107918659Y-39068331D01*
X107905908Y-39102518D01*
X107899612Y-39161084D01*
X107899501Y-39162123D01*
X107899500Y-39162135D01*
X107899500Y-40157870D01*
X107899501Y-40157876D01*
X107905908Y-40217481D01*
X107918659Y-40251669D01*
X107923642Y-40321361D01*
X107918659Y-40338331D01*
X107905908Y-40372518D01*
X107899962Y-40427832D01*
X107899501Y-40432123D01*
X107899500Y-40432135D01*
X107899500Y-41427870D01*
X107899501Y-41427876D01*
X107905908Y-41487481D01*
X107918659Y-41521669D01*
X107923642Y-41591361D01*
X107918659Y-41608331D01*
X107905908Y-41642518D01*
X107901930Y-41679521D01*
X107899501Y-41702123D01*
X107899500Y-41702135D01*
X107899500Y-42697870D01*
X107899501Y-42697876D01*
X107905908Y-42757481D01*
X107918659Y-42791669D01*
X107923642Y-42861361D01*
X107918659Y-42878331D01*
X107905908Y-42912518D01*
X107899501Y-42972116D01*
X107899500Y-42972127D01*
X107899500Y-43967870D01*
X107899501Y-43967876D01*
X107905908Y-44027481D01*
X107918659Y-44061669D01*
X107923642Y-44131361D01*
X107918659Y-44148331D01*
X107905908Y-44182518D01*
X107899891Y-44238491D01*
X107899501Y-44242123D01*
X107899500Y-44242135D01*
X107899500Y-45237870D01*
X107899501Y-45237876D01*
X107905908Y-45297481D01*
X107918659Y-45331669D01*
X107923642Y-45401361D01*
X107918659Y-45418331D01*
X107905908Y-45452518D01*
X107899501Y-45512116D01*
X107899501Y-45512123D01*
X107899500Y-45512135D01*
X107899500Y-46507870D01*
X107899501Y-46507876D01*
X107905908Y-46567481D01*
X107918659Y-46601669D01*
X107923642Y-46671361D01*
X107918659Y-46688331D01*
X107905908Y-46722518D01*
X107901085Y-46767383D01*
X107899501Y-46782123D01*
X107899500Y-46782135D01*
X107899500Y-47777870D01*
X107899501Y-47777876D01*
X107905908Y-47837481D01*
X107918659Y-47871669D01*
X107923642Y-47941361D01*
X107918659Y-47958331D01*
X107905908Y-47992518D01*
X107899782Y-48049500D01*
X107899501Y-48052123D01*
X107899500Y-48052135D01*
X107899500Y-49047870D01*
X107899501Y-49047876D01*
X107905908Y-49107483D01*
X107918925Y-49142381D01*
X107923909Y-49212072D01*
X107918925Y-49229047D01*
X107906403Y-49262619D01*
X107906401Y-49262627D01*
X107900000Y-49322155D01*
X107900000Y-49570000D01*
X110400000Y-49570000D01*
X110400000Y-49374500D01*
X110419685Y-49307461D01*
X110472489Y-49261706D01*
X110524000Y-49250500D01*
X111083480Y-49250500D01*
X111150519Y-49270185D01*
X111171161Y-49286819D01*
X111289811Y-49405469D01*
X111289813Y-49405470D01*
X111289815Y-49405472D01*
X111339650Y-49435598D01*
X111386838Y-49487126D01*
X111399500Y-49541715D01*
X111399500Y-50294574D01*
X111379815Y-50361613D01*
X111340598Y-50400112D01*
X111296957Y-50427030D01*
X111177029Y-50546959D01*
X111088001Y-50691294D01*
X111087996Y-50691305D01*
X111034651Y-50852290D01*
X111024500Y-50951647D01*
X111024500Y-51275500D01*
X111004815Y-51342539D01*
X110952011Y-51388294D01*
X110900500Y-51399500D01*
X108920941Y-51399500D01*
X108880800Y-51410255D01*
X108880801Y-51410256D01*
X108768214Y-51440423D01*
X108768209Y-51440426D01*
X108631290Y-51519475D01*
X108631282Y-51519481D01*
X108519478Y-51631286D01*
X108151723Y-51999040D01*
X108090400Y-52032525D01*
X108077953Y-52034508D01*
X108077294Y-52034649D01*
X107916305Y-52087996D01*
X107916294Y-52088001D01*
X107771959Y-52177029D01*
X107771955Y-52177032D01*
X107652031Y-52296956D01*
X107625113Y-52340598D01*
X107573165Y-52387322D01*
X107519575Y-52399500D01*
X106480425Y-52399500D01*
X106413386Y-52379815D01*
X106374887Y-52340598D01*
X106347968Y-52296956D01*
X106228044Y-52177032D01*
X106228040Y-52177029D01*
X106083705Y-52088001D01*
X106083699Y-52087998D01*
X106083697Y-52087997D01*
X106083694Y-52087996D01*
X105922709Y-52034651D01*
X105823346Y-52024500D01*
X105276662Y-52024500D01*
X105276644Y-52024501D01*
X105177292Y-52034650D01*
X105177289Y-52034651D01*
X105016305Y-52087996D01*
X105016294Y-52088001D01*
X104871959Y-52177029D01*
X104871955Y-52177032D01*
X104862681Y-52186307D01*
X104801358Y-52219792D01*
X104731666Y-52214808D01*
X104687319Y-52186307D01*
X104678044Y-52177032D01*
X104678040Y-52177029D01*
X104533705Y-52088001D01*
X104533699Y-52087998D01*
X104533697Y-52087997D01*
X104533694Y-52087996D01*
X104372709Y-52034651D01*
X104273346Y-52024500D01*
X103726662Y-52024500D01*
X103726644Y-52024501D01*
X103627292Y-52034650D01*
X103627289Y-52034651D01*
X103466305Y-52087996D01*
X103466294Y-52088001D01*
X103321959Y-52177029D01*
X103321955Y-52177032D01*
X103202032Y-52296955D01*
X103202029Y-52296959D01*
X103113001Y-52441294D01*
X103112996Y-52441305D01*
X103059651Y-52602290D01*
X103049500Y-52701647D01*
X103049500Y-53298337D01*
X103049501Y-53298355D01*
X103059650Y-53397707D01*
X103059651Y-53397710D01*
X103112996Y-53558694D01*
X103113001Y-53558705D01*
X103202029Y-53703040D01*
X103202032Y-53703044D01*
X103237195Y-53738208D01*
X103270680Y-53799531D01*
X103265694Y-53869223D01*
X103237194Y-53913569D01*
X100287584Y-56863181D01*
X100226261Y-56896666D01*
X100199903Y-56899500D01*
X99579766Y-56899500D01*
X99512727Y-56879815D01*
X99510875Y-56878602D01*
X99379185Y-56790609D01*
X99379172Y-56790602D01*
X99233501Y-56730264D01*
X99233489Y-56730261D01*
X99078845Y-56699500D01*
X99078842Y-56699500D01*
X98921158Y-56699500D01*
X98921155Y-56699500D01*
X98766510Y-56730261D01*
X98766498Y-56730264D01*
X98620827Y-56790602D01*
X98620814Y-56790609D01*
X98489711Y-56878210D01*
X98489707Y-56878213D01*
X98446259Y-56921662D01*
X98438313Y-56926000D01*
X98432888Y-56933248D01*
X98408128Y-56942482D01*
X98384936Y-56955147D01*
X98375906Y-56954501D01*
X98367424Y-56957665D01*
X98341603Y-56952048D01*
X98315244Y-56950163D01*
X98306190Y-56944344D01*
X98299151Y-56942813D01*
X98270897Y-56921662D01*
X98136819Y-56787584D01*
X98103334Y-56726261D01*
X98100500Y-56699903D01*
X98100500Y-55705424D01*
X98120185Y-55638385D01*
X98159402Y-55599886D01*
X98203044Y-55572968D01*
X98322968Y-55453044D01*
X98412003Y-55308697D01*
X98465349Y-55147708D01*
X98475500Y-55048345D01*
X98475499Y-54501656D01*
X98474382Y-54490724D01*
X98465349Y-54402292D01*
X98465348Y-54402289D01*
X98448187Y-54350500D01*
X98412003Y-54241303D01*
X98411999Y-54241297D01*
X98411998Y-54241294D01*
X98322970Y-54096959D01*
X98322967Y-54096955D01*
X98313693Y-54087681D01*
X98280208Y-54026358D01*
X98285192Y-53956666D01*
X98313693Y-53912319D01*
X98314014Y-53911998D01*
X98322968Y-53903044D01*
X98412003Y-53758697D01*
X98465349Y-53597708D01*
X98475500Y-53498345D01*
X98475499Y-52951656D01*
X98465349Y-52852292D01*
X98412003Y-52691303D01*
X98411999Y-52691297D01*
X98411998Y-52691294D01*
X98322970Y-52546959D01*
X98322967Y-52546955D01*
X98203045Y-52427033D01*
X98203044Y-52427032D01*
X98124075Y-52378323D01*
X98077354Y-52326378D01*
X98069402Y-52304886D01*
X98059577Y-52268216D01*
X98028742Y-52214808D01*
X97980524Y-52131290D01*
X97980518Y-52131282D01*
X97503236Y-51654000D01*
X96987589Y-51138354D01*
X96987588Y-51138352D01*
X96868717Y-51019481D01*
X96868716Y-51019480D01*
X96764960Y-50959577D01*
X96764959Y-50959576D01*
X96731783Y-50940422D01*
X96675881Y-50925443D01*
X96579057Y-50899499D01*
X96420943Y-50899499D01*
X96413347Y-50899499D01*
X96413331Y-50899500D01*
X92765985Y-50899500D01*
X92698946Y-50879815D01*
X92653191Y-50827011D01*
X92643247Y-50757853D01*
X92672272Y-50694297D01*
X92691674Y-50676233D01*
X92757190Y-50627186D01*
X92843350Y-50512093D01*
X92843354Y-50512086D01*
X92893596Y-50377379D01*
X92893598Y-50377372D01*
X92899999Y-50317844D01*
X107900000Y-50317844D01*
X107906401Y-50377372D01*
X107906403Y-50377379D01*
X107956645Y-50512086D01*
X107956649Y-50512093D01*
X108042809Y-50627187D01*
X108042812Y-50627190D01*
X108157906Y-50713350D01*
X108157913Y-50713354D01*
X108292620Y-50763596D01*
X108292627Y-50763598D01*
X108352155Y-50769999D01*
X108352172Y-50770000D01*
X108900000Y-50770000D01*
X109400000Y-50770000D01*
X109947828Y-50770000D01*
X109947844Y-50769999D01*
X110007372Y-50763598D01*
X110007379Y-50763596D01*
X110142086Y-50713354D01*
X110142093Y-50713350D01*
X110257187Y-50627190D01*
X110257190Y-50627187D01*
X110343350Y-50512093D01*
X110343354Y-50512086D01*
X110393596Y-50377379D01*
X110393598Y-50377372D01*
X110399999Y-50317844D01*
X110400000Y-50317827D01*
X110400000Y-50070000D01*
X109400000Y-50070000D01*
X109400000Y-50770000D01*
X108900000Y-50770000D01*
X108900000Y-50070000D01*
X107900000Y-50070000D01*
X107900000Y-50317844D01*
X92899999Y-50317844D01*
X92900000Y-50317827D01*
X92900000Y-50070000D01*
X90400000Y-50070000D01*
X90400000Y-50317844D01*
X90406401Y-50377372D01*
X90406403Y-50377379D01*
X90456645Y-50512086D01*
X90456649Y-50512093D01*
X90542809Y-50627187D01*
X90542812Y-50627190D01*
X90657906Y-50713350D01*
X90657915Y-50713355D01*
X90717265Y-50735491D01*
X90773199Y-50777362D01*
X90797617Y-50842826D01*
X90782766Y-50911099D01*
X90735933Y-50959060D01*
X90631287Y-51019477D01*
X90631282Y-51019481D01*
X89669481Y-51981282D01*
X89669479Y-51981285D01*
X89652213Y-52011191D01*
X89623898Y-52060236D01*
X89619361Y-52068094D01*
X89619359Y-52068096D01*
X89590425Y-52118209D01*
X89590424Y-52118210D01*
X89586842Y-52131578D01*
X89549499Y-52270943D01*
X89549499Y-52270945D01*
X89549499Y-52439046D01*
X89549500Y-52439059D01*
X89549500Y-52525500D01*
X89529815Y-52592539D01*
X89477011Y-52638294D01*
X89425502Y-52649500D01*
X89352130Y-52649500D01*
X89352123Y-52649501D01*
X89292516Y-52655908D01*
X89157671Y-52706202D01*
X89157664Y-52706206D01*
X89042455Y-52792452D01*
X89042452Y-52792455D01*
X88956206Y-52907664D01*
X88956202Y-52907671D01*
X88905908Y-53042517D01*
X88901980Y-53079057D01*
X88899501Y-53102123D01*
X88899500Y-53102135D01*
X88899500Y-53897870D01*
X88899501Y-53897876D01*
X88905908Y-53957483D01*
X88956202Y-54092327D01*
X88956204Y-54092331D01*
X88962773Y-54101106D01*
X88987190Y-54166571D01*
X88972338Y-54234843D01*
X88962775Y-54249725D01*
X88956646Y-54257912D01*
X88956645Y-54257913D01*
X88906403Y-54392620D01*
X88906401Y-54392627D01*
X88900000Y-54452155D01*
X88900000Y-54750000D01*
X91750000Y-54750000D01*
X91750000Y-53500000D01*
X92250000Y-53500000D01*
X92250000Y-54750000D01*
X95100000Y-54750000D01*
X95100000Y-54452172D01*
X95099999Y-54452155D01*
X95093598Y-54392627D01*
X95093597Y-54392623D01*
X95043350Y-54257907D01*
X95037228Y-54249729D01*
X95012809Y-54184265D01*
X95027659Y-54115992D01*
X95037227Y-54101106D01*
X95043796Y-54092331D01*
X95094091Y-53957483D01*
X95100500Y-53897873D01*
X95100499Y-53102128D01*
X95094091Y-53042517D01*
X95087645Y-53025235D01*
X95043797Y-52907671D01*
X95043793Y-52907664D01*
X94957547Y-52792455D01*
X94957544Y-52792452D01*
X94842335Y-52706206D01*
X94842328Y-52706202D01*
X94707482Y-52655908D01*
X94707483Y-52655908D01*
X94647883Y-52649501D01*
X94647881Y-52649500D01*
X94647873Y-52649500D01*
X94647864Y-52649500D01*
X93052129Y-52649500D01*
X93052123Y-52649501D01*
X92992516Y-52655908D01*
X92857671Y-52706202D01*
X92857664Y-52706206D01*
X92742455Y-52792452D01*
X92742452Y-52792455D01*
X92656206Y-52907664D01*
X92656202Y-52907671D01*
X92605910Y-53042513D01*
X92605909Y-53042517D01*
X92599500Y-53102127D01*
X92599500Y-53376002D01*
X92579817Y-53443039D01*
X92527013Y-53488794D01*
X92475501Y-53500000D01*
X92250000Y-53500000D01*
X91750000Y-53500000D01*
X91524499Y-53500000D01*
X91457460Y-53480315D01*
X91411705Y-53427511D01*
X91400499Y-53376000D01*
X91400499Y-53102129D01*
X91400498Y-53102123D01*
X91400497Y-53102116D01*
X91394091Y-53042517D01*
X91387645Y-53025235D01*
X91343797Y-52907671D01*
X91343793Y-52907664D01*
X91257547Y-52792455D01*
X91257544Y-52792452D01*
X91142335Y-52706206D01*
X91142328Y-52706202D01*
X91007483Y-52655908D01*
X90981511Y-52653116D01*
X90916961Y-52626377D01*
X90877114Y-52568983D01*
X90874622Y-52499158D01*
X90907084Y-52442150D01*
X91212419Y-52136816D01*
X91273740Y-52103334D01*
X91300098Y-52100500D01*
X96199903Y-52100500D01*
X96266942Y-52120185D01*
X96287584Y-52136819D01*
X96615595Y-52464830D01*
X96649080Y-52526153D01*
X96644096Y-52595845D01*
X96633453Y-52617608D01*
X96587998Y-52691300D01*
X96587996Y-52691305D01*
X96534651Y-52852290D01*
X96524500Y-52951647D01*
X96524500Y-53498337D01*
X96524501Y-53498355D01*
X96534650Y-53597707D01*
X96534651Y-53597710D01*
X96587996Y-53758694D01*
X96588001Y-53758705D01*
X96677029Y-53903040D01*
X96677032Y-53903044D01*
X96686307Y-53912319D01*
X96719792Y-53973642D01*
X96714808Y-54043334D01*
X96686307Y-54087681D01*
X96677032Y-54096955D01*
X96677029Y-54096959D01*
X96588001Y-54241294D01*
X96587996Y-54241305D01*
X96534651Y-54402290D01*
X96524500Y-54501647D01*
X96524500Y-55048337D01*
X96524501Y-55048355D01*
X96534650Y-55147707D01*
X96534651Y-55147710D01*
X96587996Y-55308694D01*
X96588001Y-55308705D01*
X96677029Y-55453040D01*
X96677032Y-55453044D01*
X96796956Y-55572968D01*
X96840597Y-55599886D01*
X96887321Y-55651832D01*
X96899500Y-55705424D01*
X96899500Y-56174500D01*
X96879815Y-56241539D01*
X96827011Y-56287294D01*
X96775500Y-56298500D01*
X96521940Y-56298500D01*
X96486013Y-56308126D01*
X96486014Y-56308127D01*
X96369214Y-56339423D01*
X96369209Y-56339426D01*
X96232290Y-56418475D01*
X96232282Y-56418481D01*
X96175766Y-56474998D01*
X96120480Y-56530284D01*
X96120478Y-56530286D01*
X95950862Y-56699903D01*
X95787584Y-56863181D01*
X95726261Y-56896666D01*
X95699903Y-56899500D01*
X95224500Y-56899500D01*
X95157461Y-56879815D01*
X95111706Y-56827011D01*
X95100500Y-56775500D01*
X95100499Y-56102129D01*
X95100498Y-56102123D01*
X95100497Y-56102116D01*
X95094091Y-56042517D01*
X95094091Y-56042516D01*
X95043797Y-55907670D01*
X95043796Y-55907668D01*
X95037229Y-55898897D01*
X95012809Y-55833433D01*
X95027659Y-55765160D01*
X95037229Y-55750268D01*
X95043351Y-55742089D01*
X95093597Y-55607376D01*
X95093598Y-55607372D01*
X95099999Y-55547844D01*
X95100000Y-55547827D01*
X95100000Y-55250000D01*
X92250000Y-55250000D01*
X92250000Y-56500000D01*
X92475501Y-56500000D01*
X92542540Y-56519685D01*
X92588295Y-56572489D01*
X92599501Y-56624000D01*
X92599501Y-56897876D01*
X92605908Y-56957483D01*
X92656202Y-57092328D01*
X92656206Y-57092335D01*
X92737695Y-57201189D01*
X92762113Y-57266653D01*
X92747262Y-57334926D01*
X92697857Y-57384332D01*
X92638429Y-57399500D01*
X91361572Y-57399500D01*
X91294533Y-57379815D01*
X91248778Y-57327011D01*
X91238834Y-57257853D01*
X91262305Y-57201189D01*
X91268623Y-57192747D01*
X91343796Y-57092331D01*
X91394091Y-56957483D01*
X91400500Y-56897873D01*
X91400499Y-56623997D01*
X91420183Y-56556961D01*
X91472987Y-56511206D01*
X91524499Y-56500000D01*
X91750000Y-56500000D01*
X91750000Y-55250000D01*
X88900000Y-55250000D01*
X88900000Y-55547844D01*
X88906401Y-55607372D01*
X88906403Y-55607379D01*
X88956645Y-55742086D01*
X88956650Y-55742095D01*
X88962774Y-55750276D01*
X88987189Y-55815741D01*
X88972335Y-55884013D01*
X88962775Y-55898890D01*
X88956205Y-55907666D01*
X88956202Y-55907671D01*
X88905908Y-56042517D01*
X88899501Y-56102116D01*
X88899501Y-56102123D01*
X88899500Y-56102135D01*
X88899500Y-56897870D01*
X88899501Y-56897876D01*
X88905908Y-56957483D01*
X88956202Y-57092328D01*
X88956206Y-57092335D01*
X89042452Y-57207544D01*
X89042455Y-57207547D01*
X89157664Y-57293793D01*
X89157671Y-57293797D01*
X89202618Y-57310561D01*
X89292517Y-57344091D01*
X89352127Y-57350500D01*
X89500769Y-57350499D01*
X89567808Y-57370183D01*
X89608156Y-57412500D01*
X89669475Y-57518709D01*
X89669481Y-57518717D01*
X89788349Y-57637585D01*
X89788355Y-57637590D01*
X89838584Y-57687819D01*
X89872069Y-57749142D01*
X89867085Y-57818834D01*
X89825213Y-57874767D01*
X89759749Y-57899184D01*
X89750903Y-57899500D01*
X88480425Y-57899500D01*
X88413386Y-57879815D01*
X88374887Y-57840598D01*
X88347968Y-57796956D01*
X88228044Y-57677032D01*
X88228040Y-57677029D01*
X88083705Y-57588001D01*
X88083699Y-57587998D01*
X88083697Y-57587997D01*
X88056528Y-57578994D01*
X87922709Y-57534651D01*
X87823346Y-57524500D01*
X87276662Y-57524500D01*
X87276644Y-57524501D01*
X87177292Y-57534650D01*
X87177289Y-57534651D01*
X87016305Y-57587996D01*
X87016294Y-57588001D01*
X86871959Y-57677029D01*
X86871955Y-57677032D01*
X86862681Y-57686307D01*
X86801358Y-57719792D01*
X86731666Y-57714808D01*
X86687319Y-57686307D01*
X86678044Y-57677032D01*
X86678040Y-57677029D01*
X86533705Y-57588001D01*
X86533699Y-57587998D01*
X86533697Y-57587997D01*
X86506528Y-57578994D01*
X86372709Y-57534651D01*
X86273346Y-57524500D01*
X85726662Y-57524500D01*
X85726644Y-57524501D01*
X85627292Y-57534650D01*
X85627289Y-57534651D01*
X85466305Y-57587996D01*
X85466294Y-57588001D01*
X85321959Y-57677029D01*
X85321955Y-57677032D01*
X85202031Y-57796956D01*
X85175113Y-57840598D01*
X85123165Y-57887322D01*
X85069575Y-57899500D01*
X79800098Y-57899500D01*
X79770657Y-57890855D01*
X79740671Y-57884332D01*
X79735655Y-57880577D01*
X79733059Y-57879815D01*
X79712417Y-57863181D01*
X79636819Y-57787583D01*
X79603334Y-57726260D01*
X79600500Y-57699902D01*
X79600500Y-56365520D01*
X79620185Y-56298481D01*
X79672989Y-56252726D01*
X79742147Y-56242782D01*
X79805703Y-56271807D01*
X79812181Y-56277839D01*
X79864811Y-56330469D01*
X79864813Y-56330470D01*
X79864815Y-56330472D01*
X80010394Y-56418478D01*
X80172804Y-56469086D01*
X80243384Y-56475500D01*
X80243387Y-56475500D01*
X80756613Y-56475500D01*
X80756616Y-56475500D01*
X80827196Y-56469086D01*
X80989606Y-56418478D01*
X81135185Y-56330472D01*
X81178363Y-56287294D01*
X81237319Y-56228339D01*
X81298642Y-56194854D01*
X81368334Y-56199838D01*
X81412681Y-56228339D01*
X81514811Y-56330469D01*
X81514813Y-56330470D01*
X81514815Y-56330472D01*
X81660394Y-56418478D01*
X81822804Y-56469086D01*
X81893384Y-56475500D01*
X81893387Y-56475500D01*
X82406613Y-56475500D01*
X82406616Y-56475500D01*
X82477196Y-56469086D01*
X82639606Y-56418478D01*
X82785185Y-56330472D01*
X82905472Y-56210185D01*
X82993478Y-56064606D01*
X83044086Y-55902196D01*
X83050500Y-55831616D01*
X83050500Y-55168384D01*
X83044086Y-55097804D01*
X82993478Y-54935394D01*
X82905472Y-54789815D01*
X82905470Y-54789813D01*
X82905469Y-54789811D01*
X82786819Y-54671161D01*
X82753334Y-54609838D01*
X82750500Y-54583480D01*
X82750500Y-52650097D01*
X82770185Y-52583058D01*
X82786819Y-52562416D01*
X88374916Y-46974319D01*
X88436239Y-46940834D01*
X88462597Y-46938000D01*
X88804169Y-46938000D01*
X88804174Y-46938000D01*
X88902685Y-46927936D01*
X89062287Y-46875049D01*
X89205391Y-46786781D01*
X89324281Y-46667891D01*
X89412549Y-46524787D01*
X89465436Y-46365185D01*
X89475500Y-46266674D01*
X89475500Y-45733326D01*
X89465436Y-45634815D01*
X89412549Y-45475213D01*
X89412545Y-45475207D01*
X89412544Y-45475204D01*
X89324283Y-45332112D01*
X89324280Y-45332108D01*
X89292353Y-45300181D01*
X89258868Y-45238858D01*
X89263852Y-45169166D01*
X89292353Y-45124819D01*
X89324281Y-45092891D01*
X89412549Y-44949787D01*
X89465436Y-44790185D01*
X89475500Y-44691674D01*
X89475500Y-44158326D01*
X89465436Y-44059815D01*
X89412549Y-43900213D01*
X89412545Y-43900207D01*
X89412544Y-43900204D01*
X89324283Y-43757112D01*
X89324280Y-43757108D01*
X89205391Y-43638219D01*
X89205387Y-43638216D01*
X89062295Y-43549955D01*
X89062289Y-43549952D01*
X89062287Y-43549951D01*
X88902685Y-43497064D01*
X88902683Y-43497063D01*
X88804181Y-43487000D01*
X88804174Y-43487000D01*
X88195826Y-43487000D01*
X88195818Y-43487000D01*
X88097316Y-43497063D01*
X88097315Y-43497064D01*
X88084357Y-43501358D01*
X87937715Y-43549950D01*
X87937704Y-43549955D01*
X87794612Y-43638216D01*
X87794608Y-43638219D01*
X87675719Y-43757108D01*
X87675716Y-43757112D01*
X87670483Y-43765597D01*
X87618535Y-43812322D01*
X87564945Y-43824500D01*
X86868034Y-43824500D01*
X86800995Y-43804815D01*
X86780353Y-43788181D01*
X86705391Y-43713219D01*
X86705387Y-43713216D01*
X86562295Y-43624955D01*
X86562289Y-43624952D01*
X86562287Y-43624951D01*
X86402685Y-43572064D01*
X86402683Y-43572063D01*
X86304181Y-43562000D01*
X86304174Y-43562000D01*
X85962597Y-43562000D01*
X85895558Y-43542315D01*
X85874916Y-43525681D01*
X83992980Y-41643745D01*
X83962955Y-41595068D01*
X83953892Y-41567717D01*
X83912003Y-41441303D01*
X83911999Y-41441297D01*
X83911998Y-41441294D01*
X83822970Y-41296959D01*
X83822967Y-41296955D01*
X83712691Y-41186679D01*
X83679206Y-41125356D01*
X83684190Y-41055664D01*
X83715801Y-41013436D01*
X83713682Y-41011317D01*
X83749999Y-40974999D01*
X84250000Y-40974999D01*
X84331581Y-40974999D01*
X84402102Y-40968591D01*
X84402107Y-40968590D01*
X84564396Y-40918018D01*
X84709877Y-40830072D01*
X84830072Y-40709877D01*
X84918019Y-40564395D01*
X84968590Y-40402106D01*
X84975000Y-40331572D01*
X84975000Y-40325000D01*
X84250000Y-40325000D01*
X84250000Y-40974999D01*
X83749999Y-40974999D01*
X83750000Y-40974998D01*
X83750000Y-40199000D01*
X83769685Y-40131961D01*
X83822489Y-40086206D01*
X83874000Y-40075000D01*
X84000000Y-40075000D01*
X84000000Y-39949000D01*
X84019685Y-39881961D01*
X84072489Y-39836206D01*
X84124000Y-39825000D01*
X84974999Y-39825000D01*
X84974999Y-39818417D01*
X84968591Y-39747897D01*
X84968590Y-39747892D01*
X84918018Y-39585603D01*
X84830072Y-39440122D01*
X84727984Y-39338034D01*
X84694499Y-39276711D01*
X84699483Y-39207019D01*
X84727983Y-39162673D01*
X84830472Y-39060185D01*
X84918478Y-38914606D01*
X84969086Y-38752196D01*
X84975500Y-38681616D01*
X84975500Y-38168384D01*
X84969086Y-38097804D01*
X84918478Y-37935394D01*
X84873594Y-37861147D01*
X84855759Y-37793596D01*
X84877276Y-37727122D01*
X84931317Y-37682834D01*
X84979712Y-37673000D01*
X86340831Y-37673000D01*
X86340847Y-37673001D01*
X86348443Y-37673001D01*
X86506554Y-37673001D01*
X86506557Y-37673001D01*
X86659285Y-37632077D01*
X86728733Y-37591981D01*
X86796216Y-37553020D01*
X86908020Y-37441216D01*
X86908020Y-37441214D01*
X86918224Y-37431011D01*
X86918227Y-37431006D01*
X87908020Y-36441216D01*
X87908020Y-36441214D01*
X87918224Y-36431011D01*
X87918228Y-36431006D01*
X88868713Y-35480521D01*
X88868716Y-35480520D01*
X88980520Y-35368716D01*
X89030639Y-35281904D01*
X89059577Y-35231785D01*
X89100501Y-35079057D01*
X89100501Y-34920943D01*
X89100501Y-34913348D01*
X89100500Y-34913330D01*
X89100500Y-33749097D01*
X89106738Y-33727851D01*
X89108318Y-33705763D01*
X89116390Y-33694979D01*
X89120185Y-33682058D01*
X89136918Y-33667558D01*
X89150190Y-33649830D01*
X89162810Y-33645122D01*
X89172989Y-33636303D01*
X89194906Y-33633151D01*
X89215654Y-33625413D01*
X89228814Y-33628275D01*
X89242147Y-33626359D01*
X89262290Y-33635558D01*
X89283927Y-33640265D01*
X89301652Y-33653533D01*
X89305703Y-33655384D01*
X89312181Y-33661416D01*
X89325139Y-33674374D01*
X89325149Y-33674385D01*
X89329479Y-33678715D01*
X89329480Y-33678716D01*
X89441284Y-33790520D01*
X89512465Y-33831616D01*
X89578215Y-33869577D01*
X89730943Y-33910501D01*
X89730946Y-33910501D01*
X89896653Y-33910501D01*
X89896669Y-33910500D01*
X90279906Y-33910500D01*
X90346945Y-33930185D01*
X90392700Y-33982989D01*
X90403195Y-34047752D01*
X90399500Y-34082127D01*
X90399500Y-34082128D01*
X90399500Y-34082132D01*
X90399500Y-35077870D01*
X90399501Y-35077876D01*
X90405908Y-35137481D01*
X90418659Y-35171669D01*
X90423642Y-35241361D01*
X90418659Y-35258331D01*
X90405908Y-35292518D01*
X90399501Y-35352116D01*
X90399501Y-35352123D01*
X90399500Y-35352135D01*
X90399500Y-36347870D01*
X90399501Y-36347876D01*
X90405908Y-36407481D01*
X90418659Y-36441669D01*
X90423642Y-36511361D01*
X90418659Y-36528331D01*
X90405908Y-36562518D01*
X90402522Y-36594015D01*
X90399501Y-36622123D01*
X90399500Y-36622135D01*
X90399500Y-37617870D01*
X90399501Y-37617876D01*
X90405908Y-37677481D01*
X90418659Y-37711669D01*
X90423642Y-37781361D01*
X90418659Y-37798331D01*
X90405908Y-37832518D01*
X90399501Y-37892116D01*
X90399501Y-37892123D01*
X90399500Y-37892135D01*
X90399500Y-38887870D01*
X90399501Y-38887876D01*
X90405908Y-38947481D01*
X90418659Y-38981669D01*
X90423642Y-39051361D01*
X90418659Y-39068331D01*
X90405908Y-39102518D01*
X90399612Y-39161084D01*
X90399501Y-39162123D01*
X90399500Y-39162135D01*
X90399500Y-40157870D01*
X90399501Y-40157876D01*
X90405908Y-40217481D01*
X90418659Y-40251669D01*
X90423642Y-40321361D01*
X90418659Y-40338331D01*
X90405908Y-40372518D01*
X90399962Y-40427832D01*
X90399501Y-40432123D01*
X90399500Y-40432135D01*
X90399500Y-41427870D01*
X90399501Y-41427876D01*
X90405908Y-41487481D01*
X90418659Y-41521669D01*
X90423642Y-41591361D01*
X90418659Y-41608331D01*
X90405908Y-41642518D01*
X90401930Y-41679521D01*
X90399501Y-41702123D01*
X90399500Y-41702135D01*
X90399500Y-42697870D01*
X90399501Y-42697876D01*
X90405908Y-42757481D01*
X90418659Y-42791669D01*
X90423642Y-42861361D01*
X90418659Y-42878331D01*
X90405908Y-42912518D01*
X90399501Y-42972116D01*
X90399500Y-42972127D01*
X90399500Y-43967870D01*
X90399501Y-43967876D01*
X90405908Y-44027481D01*
X90418659Y-44061669D01*
X90423642Y-44131361D01*
X90418659Y-44148331D01*
X90405908Y-44182518D01*
X90399891Y-44238491D01*
X90399501Y-44242123D01*
X90399500Y-44242135D01*
X90399500Y-45237870D01*
X90399501Y-45237876D01*
X90405908Y-45297481D01*
X90418659Y-45331669D01*
X90423642Y-45401361D01*
X90418659Y-45418331D01*
X90405908Y-45452518D01*
X90399501Y-45512116D01*
X90399501Y-45512123D01*
X90399500Y-45512135D01*
X90399500Y-46507870D01*
X90399501Y-46507876D01*
X90405908Y-46567481D01*
X90418659Y-46601669D01*
X90423642Y-46671361D01*
X90418659Y-46688331D01*
X90405908Y-46722518D01*
X90401085Y-46767383D01*
X90399501Y-46782123D01*
X90399500Y-46782135D01*
X90399500Y-47777870D01*
X90399501Y-47777876D01*
X90405908Y-47837481D01*
X90418659Y-47871669D01*
X90423642Y-47941361D01*
X90418659Y-47958331D01*
X90405908Y-47992518D01*
X90399782Y-48049500D01*
X90399501Y-48052123D01*
X90399500Y-48052135D01*
X90399500Y-49047870D01*
X90399501Y-49047876D01*
X90405908Y-49107483D01*
X90418925Y-49142381D01*
X90423909Y-49212072D01*
X90418925Y-49229047D01*
X90406403Y-49262619D01*
X90406401Y-49262627D01*
X90400000Y-49322155D01*
X90400000Y-49570000D01*
X92900000Y-49570000D01*
X92900000Y-49322172D01*
X92899999Y-49322155D01*
X92893597Y-49262622D01*
X92893597Y-49262620D01*
X92881075Y-49229048D01*
X92876089Y-49159356D01*
X92881071Y-49142390D01*
X92894091Y-49107483D01*
X92900500Y-49047873D01*
X92900499Y-48052128D01*
X92894091Y-47992517D01*
X92881340Y-47958332D01*
X92876357Y-47888642D01*
X92881340Y-47871669D01*
X92894091Y-47837483D01*
X92900500Y-47777873D01*
X92900499Y-46782128D01*
X92894091Y-46722517D01*
X92881340Y-46688332D01*
X92876357Y-46618642D01*
X92881340Y-46601669D01*
X92894091Y-46567483D01*
X92900500Y-46507873D01*
X92900499Y-45512128D01*
X92894091Y-45452517D01*
X92881340Y-45418332D01*
X92876357Y-45348642D01*
X92881340Y-45331669D01*
X92894091Y-45297483D01*
X92900500Y-45237873D01*
X92900499Y-44242128D01*
X92894091Y-44182517D01*
X92881340Y-44148332D01*
X92876357Y-44078642D01*
X92881340Y-44061669D01*
X92894091Y-44027483D01*
X92897278Y-43997844D01*
X99550000Y-43997844D01*
X99556401Y-44057372D01*
X99556403Y-44057379D01*
X99606645Y-44192086D01*
X99606649Y-44192093D01*
X99692809Y-44307187D01*
X99692812Y-44307190D01*
X99807906Y-44393350D01*
X99807913Y-44393354D01*
X99942620Y-44443596D01*
X99942627Y-44443598D01*
X100002155Y-44449999D01*
X100002172Y-44450000D01*
X100250000Y-44450000D01*
X100750000Y-44450000D01*
X100997828Y-44450000D01*
X100997844Y-44449999D01*
X101057372Y-44443598D01*
X101057376Y-44443597D01*
X101156666Y-44406564D01*
X101226358Y-44401580D01*
X101243334Y-44406564D01*
X101342623Y-44443597D01*
X101342627Y-44443598D01*
X101402155Y-44449999D01*
X101402172Y-44450000D01*
X101650000Y-44450000D01*
X102150000Y-44450000D01*
X102397828Y-44450000D01*
X102397844Y-44449999D01*
X102457372Y-44443598D01*
X102457376Y-44443597D01*
X102556666Y-44406564D01*
X102626358Y-44401580D01*
X102643334Y-44406564D01*
X102742623Y-44443597D01*
X102742627Y-44443598D01*
X102802155Y-44449999D01*
X102802172Y-44450000D01*
X103050000Y-44450000D01*
X103550000Y-44450000D01*
X103797828Y-44450000D01*
X103797844Y-44449999D01*
X103857372Y-44443598D01*
X103857379Y-44443596D01*
X103992086Y-44393354D01*
X103992093Y-44393350D01*
X104107187Y-44307190D01*
X104107190Y-44307187D01*
X104193350Y-44192093D01*
X104193354Y-44192086D01*
X104243596Y-44057379D01*
X104243598Y-44057372D01*
X104249999Y-43997844D01*
X104250000Y-43997827D01*
X104250000Y-43750000D01*
X103550000Y-43750000D01*
X103550000Y-44450000D01*
X103050000Y-44450000D01*
X103050000Y-43750000D01*
X102150000Y-43750000D01*
X102150000Y-44450000D01*
X101650000Y-44450000D01*
X101650000Y-43750000D01*
X100750000Y-43750000D01*
X100750000Y-44450000D01*
X100250000Y-44450000D01*
X100250000Y-43750000D01*
X99550000Y-43750000D01*
X99550000Y-43997844D01*
X92897278Y-43997844D01*
X92900500Y-43967873D01*
X92900499Y-43480109D01*
X101100000Y-43480109D01*
X101100000Y-43519891D01*
X101115224Y-43556645D01*
X101143355Y-43584776D01*
X101180109Y-43600000D01*
X101219891Y-43600000D01*
X101256645Y-43584776D01*
X101284776Y-43556645D01*
X101300000Y-43519891D01*
X101300000Y-43480109D01*
X102500000Y-43480109D01*
X102500000Y-43519891D01*
X102515224Y-43556645D01*
X102543355Y-43584776D01*
X102580109Y-43600000D01*
X102619891Y-43600000D01*
X102656645Y-43584776D01*
X102684776Y-43556645D01*
X102700000Y-43519891D01*
X102700000Y-43480109D01*
X102684776Y-43443355D01*
X102656645Y-43415224D01*
X102619891Y-43400000D01*
X102580109Y-43400000D01*
X102543355Y-43415224D01*
X102515224Y-43443355D01*
X102500000Y-43480109D01*
X101300000Y-43480109D01*
X101284776Y-43443355D01*
X101256645Y-43415224D01*
X101219891Y-43400000D01*
X101180109Y-43400000D01*
X101143355Y-43415224D01*
X101115224Y-43443355D01*
X101100000Y-43480109D01*
X92900499Y-43480109D01*
X92900499Y-43447379D01*
X92900499Y-42972126D01*
X92900498Y-42972123D01*
X92900497Y-42972116D01*
X92894091Y-42912517D01*
X92881340Y-42878332D01*
X92876357Y-42808642D01*
X92881340Y-42791669D01*
X92894091Y-42757483D01*
X92900500Y-42697873D01*
X92900500Y-42597844D01*
X99550000Y-42597844D01*
X99556401Y-42657372D01*
X99556403Y-42657383D01*
X99593434Y-42756668D01*
X99598418Y-42826360D01*
X99593434Y-42843332D01*
X99556403Y-42942616D01*
X99556401Y-42942627D01*
X99550000Y-43002155D01*
X99550000Y-43250000D01*
X100250000Y-43250000D01*
X103550000Y-43250000D01*
X104250000Y-43250000D01*
X104250000Y-43002172D01*
X104249999Y-43002155D01*
X104243598Y-42942627D01*
X104243597Y-42942623D01*
X104206564Y-42843334D01*
X104201580Y-42773642D01*
X104206564Y-42756666D01*
X104243597Y-42657376D01*
X104243598Y-42657372D01*
X104249999Y-42597844D01*
X104250000Y-42597827D01*
X104250000Y-42350000D01*
X103550000Y-42350000D01*
X103550000Y-43250000D01*
X100250000Y-43250000D01*
X100250000Y-42780109D01*
X100400000Y-42780109D01*
X100400000Y-42819891D01*
X100415224Y-42856645D01*
X100443355Y-42884776D01*
X100480109Y-42900000D01*
X100519891Y-42900000D01*
X100556645Y-42884776D01*
X100584776Y-42856645D01*
X100600000Y-42819891D01*
X100600000Y-42799999D01*
X100782842Y-42799999D01*
X100954970Y-42972126D01*
X100954970Y-42972127D01*
X101200000Y-43217157D01*
X101617157Y-42800000D01*
X101597266Y-42780109D01*
X101800000Y-42780109D01*
X101800000Y-42819891D01*
X101815224Y-42856645D01*
X101843355Y-42884776D01*
X101880109Y-42900000D01*
X101919891Y-42900000D01*
X101956645Y-42884776D01*
X101984776Y-42856645D01*
X102000000Y-42819891D01*
X102000000Y-42799999D01*
X102182842Y-42799999D01*
X102354970Y-42972126D01*
X102354970Y-42972127D01*
X102600000Y-43217157D01*
X103017157Y-42800000D01*
X102997266Y-42780109D01*
X103200000Y-42780109D01*
X103200000Y-42819891D01*
X103215224Y-42856645D01*
X103243355Y-42884776D01*
X103280109Y-42900000D01*
X103319891Y-42900000D01*
X103356645Y-42884776D01*
X103384776Y-42856645D01*
X103400000Y-42819891D01*
X103400000Y-42780109D01*
X103384776Y-42743355D01*
X103356645Y-42715224D01*
X103319891Y-42700000D01*
X103280109Y-42700000D01*
X103243355Y-42715224D01*
X103215224Y-42743355D01*
X103200000Y-42780109D01*
X102997266Y-42780109D01*
X102762634Y-42545477D01*
X102762633Y-42545477D01*
X102603477Y-42386319D01*
X102603475Y-42386316D01*
X102600001Y-42382842D01*
X102599999Y-42382842D01*
X102437365Y-42545477D01*
X102182842Y-42799999D01*
X102000000Y-42799999D01*
X102000000Y-42780109D01*
X101984776Y-42743355D01*
X101956645Y-42715224D01*
X101919891Y-42700000D01*
X101880109Y-42700000D01*
X101843355Y-42715224D01*
X101815224Y-42743355D01*
X101800000Y-42780109D01*
X101597266Y-42780109D01*
X101362634Y-42545477D01*
X101362632Y-42545474D01*
X101200001Y-42382842D01*
X101199999Y-42382842D01*
X101037365Y-42545477D01*
X100782842Y-42799999D01*
X100600000Y-42799999D01*
X100600000Y-42780109D01*
X100584776Y-42743355D01*
X100556645Y-42715224D01*
X100519891Y-42700000D01*
X100480109Y-42700000D01*
X100443355Y-42715224D01*
X100415224Y-42743355D01*
X100400000Y-42780109D01*
X100250000Y-42780109D01*
X100250000Y-42350000D01*
X99550000Y-42350000D01*
X99550000Y-42597844D01*
X92900500Y-42597844D01*
X92900499Y-42200000D01*
X92900499Y-42080109D01*
X101100000Y-42080109D01*
X101100000Y-42119891D01*
X101115224Y-42156645D01*
X101143355Y-42184776D01*
X101180109Y-42200000D01*
X101219891Y-42200000D01*
X101256645Y-42184776D01*
X101284776Y-42156645D01*
X101300000Y-42119891D01*
X101300000Y-42080109D01*
X102500000Y-42080109D01*
X102500000Y-42119891D01*
X102515224Y-42156645D01*
X102543355Y-42184776D01*
X102580109Y-42200000D01*
X102619891Y-42200000D01*
X102656645Y-42184776D01*
X102684776Y-42156645D01*
X102700000Y-42119891D01*
X102700000Y-42080109D01*
X102684776Y-42043355D01*
X102656645Y-42015224D01*
X102619891Y-42000000D01*
X102580109Y-42000000D01*
X102543355Y-42015224D01*
X102515224Y-42043355D01*
X102500000Y-42080109D01*
X101300000Y-42080109D01*
X101284776Y-42043355D01*
X101256645Y-42015224D01*
X101219891Y-42000000D01*
X101180109Y-42000000D01*
X101143355Y-42015224D01*
X101115224Y-42043355D01*
X101100000Y-42080109D01*
X92900499Y-42080109D01*
X92900499Y-41702129D01*
X92900498Y-41702123D01*
X92900497Y-41702116D01*
X92894091Y-41642517D01*
X92881340Y-41608332D01*
X92876357Y-41538642D01*
X92881340Y-41521669D01*
X92894091Y-41487483D01*
X92900500Y-41427873D01*
X92900500Y-41197844D01*
X99550000Y-41197844D01*
X99556401Y-41257372D01*
X99556403Y-41257383D01*
X99593434Y-41356668D01*
X99598418Y-41426360D01*
X99593434Y-41443332D01*
X99556403Y-41542616D01*
X99556401Y-41542627D01*
X99550000Y-41602155D01*
X99550000Y-41850000D01*
X100250000Y-41850000D01*
X103550000Y-41850000D01*
X104250000Y-41850000D01*
X104250000Y-41602172D01*
X104249999Y-41602155D01*
X104243598Y-41542627D01*
X104243597Y-41542623D01*
X104206564Y-41443334D01*
X104201580Y-41373642D01*
X104206564Y-41356666D01*
X104243597Y-41257376D01*
X104243598Y-41257372D01*
X104249999Y-41197844D01*
X104250000Y-41197827D01*
X104250000Y-40950000D01*
X103550000Y-40950000D01*
X103550000Y-41850000D01*
X100250000Y-41850000D01*
X100250000Y-41380109D01*
X100400000Y-41380109D01*
X100400000Y-41419891D01*
X100415224Y-41456645D01*
X100443355Y-41484776D01*
X100480109Y-41500000D01*
X100519891Y-41500000D01*
X100556645Y-41484776D01*
X100584776Y-41456645D01*
X100600000Y-41419891D01*
X100600000Y-41399999D01*
X100782842Y-41399999D01*
X100782842Y-41400000D01*
X100947828Y-41564986D01*
X100947843Y-41565000D01*
X101200000Y-41817157D01*
X101617157Y-41400000D01*
X101597266Y-41380109D01*
X101800000Y-41380109D01*
X101800000Y-41419891D01*
X101815224Y-41456645D01*
X101843355Y-41484776D01*
X101880109Y-41500000D01*
X101919891Y-41500000D01*
X101956645Y-41484776D01*
X101984776Y-41456645D01*
X102000000Y-41419891D01*
X102000000Y-41399999D01*
X102182842Y-41399999D01*
X102182842Y-41400000D01*
X102347828Y-41564986D01*
X102347843Y-41565000D01*
X102600000Y-41817157D01*
X103017157Y-41400000D01*
X102997266Y-41380109D01*
X103200000Y-41380109D01*
X103200000Y-41419891D01*
X103215224Y-41456645D01*
X103243355Y-41484776D01*
X103280109Y-41500000D01*
X103319891Y-41500000D01*
X103356645Y-41484776D01*
X103384776Y-41456645D01*
X103400000Y-41419891D01*
X103400000Y-41380109D01*
X103384776Y-41343355D01*
X103356645Y-41315224D01*
X103319891Y-41300000D01*
X103280109Y-41300000D01*
X103243355Y-41315224D01*
X103215224Y-41343355D01*
X103200000Y-41380109D01*
X102997266Y-41380109D01*
X102762634Y-41145477D01*
X102762633Y-41145477D01*
X102603477Y-40986319D01*
X102603475Y-40986316D01*
X102600001Y-40982842D01*
X102599999Y-40982842D01*
X102437365Y-41145477D01*
X102182842Y-41399999D01*
X102000000Y-41399999D01*
X102000000Y-41380109D01*
X101984776Y-41343355D01*
X101956645Y-41315224D01*
X101919891Y-41300000D01*
X101880109Y-41300000D01*
X101843355Y-41315224D01*
X101815224Y-41343355D01*
X101800000Y-41380109D01*
X101597266Y-41380109D01*
X101362634Y-41145477D01*
X101362632Y-41145474D01*
X101200001Y-40982842D01*
X101199999Y-40982842D01*
X101037365Y-41145477D01*
X100782842Y-41399999D01*
X100600000Y-41399999D01*
X100600000Y-41380109D01*
X100584776Y-41343355D01*
X100556645Y-41315224D01*
X100519891Y-41300000D01*
X100480109Y-41300000D01*
X100443355Y-41315224D01*
X100415224Y-41343355D01*
X100400000Y-41380109D01*
X100250000Y-41380109D01*
X100250000Y-40950000D01*
X99550000Y-40950000D01*
X99550000Y-41197844D01*
X92900500Y-41197844D01*
X92900499Y-40680109D01*
X101100000Y-40680109D01*
X101100000Y-40719891D01*
X101115224Y-40756645D01*
X101143355Y-40784776D01*
X101180109Y-40800000D01*
X101219891Y-40800000D01*
X101256645Y-40784776D01*
X101284776Y-40756645D01*
X101300000Y-40719891D01*
X101300000Y-40680109D01*
X102500000Y-40680109D01*
X102500000Y-40719891D01*
X102515224Y-40756645D01*
X102543355Y-40784776D01*
X102580109Y-40800000D01*
X102619891Y-40800000D01*
X102656645Y-40784776D01*
X102684776Y-40756645D01*
X102700000Y-40719891D01*
X102700000Y-40680109D01*
X102684776Y-40643355D01*
X102656645Y-40615224D01*
X102619891Y-40600000D01*
X102580109Y-40600000D01*
X102543355Y-40615224D01*
X102515224Y-40643355D01*
X102500000Y-40680109D01*
X101300000Y-40680109D01*
X101284776Y-40643355D01*
X101256645Y-40615224D01*
X101219891Y-40600000D01*
X101180109Y-40600000D01*
X101143355Y-40615224D01*
X101115224Y-40643355D01*
X101100000Y-40680109D01*
X92900499Y-40680109D01*
X92900499Y-40432128D01*
X92894091Y-40372517D01*
X92881340Y-40338332D01*
X92879967Y-40319133D01*
X92873666Y-40300948D01*
X92877093Y-40278939D01*
X92876357Y-40268642D01*
X92877007Y-40265813D01*
X92878750Y-40258611D01*
X92894091Y-40217483D01*
X92895739Y-40202155D01*
X99550000Y-40202155D01*
X99550000Y-40450000D01*
X100250000Y-40450000D01*
X100750000Y-40450000D01*
X101650000Y-40450000D01*
X102150000Y-40450000D01*
X103050000Y-40450000D01*
X103550000Y-40450000D01*
X104250000Y-40450000D01*
X104250000Y-40202172D01*
X104249999Y-40202155D01*
X104243598Y-40142627D01*
X104243596Y-40142620D01*
X104193354Y-40007913D01*
X104193350Y-40007906D01*
X104107190Y-39892812D01*
X104107187Y-39892809D01*
X103992093Y-39806649D01*
X103992086Y-39806645D01*
X103857379Y-39756403D01*
X103857372Y-39756401D01*
X103797844Y-39750000D01*
X103550000Y-39750000D01*
X103550000Y-40450000D01*
X103050000Y-40450000D01*
X103050000Y-39750000D01*
X102802155Y-39750000D01*
X102742627Y-39756401D01*
X102742616Y-39756403D01*
X102643332Y-39793434D01*
X102573640Y-39798418D01*
X102556668Y-39793434D01*
X102457383Y-39756403D01*
X102457372Y-39756401D01*
X102397844Y-39750000D01*
X102150000Y-39750000D01*
X102150000Y-40450000D01*
X101650000Y-40450000D01*
X101650000Y-39750000D01*
X101402155Y-39750000D01*
X101342627Y-39756401D01*
X101342616Y-39756403D01*
X101243332Y-39793434D01*
X101173640Y-39798418D01*
X101156668Y-39793434D01*
X101057383Y-39756403D01*
X101057372Y-39756401D01*
X100997844Y-39750000D01*
X100750000Y-39750000D01*
X100750000Y-40450000D01*
X100250000Y-40450000D01*
X100250000Y-39750000D01*
X100002155Y-39750000D01*
X99942627Y-39756401D01*
X99942620Y-39756403D01*
X99807913Y-39806645D01*
X99807906Y-39806649D01*
X99692812Y-39892809D01*
X99692809Y-39892812D01*
X99606649Y-40007906D01*
X99606645Y-40007913D01*
X99556403Y-40142620D01*
X99556401Y-40142627D01*
X99550000Y-40202155D01*
X92895739Y-40202155D01*
X92900500Y-40157873D01*
X92900499Y-39162128D01*
X92894091Y-39102517D01*
X92881340Y-39068332D01*
X92876357Y-38998642D01*
X92881340Y-38981669D01*
X92894091Y-38947483D01*
X92900500Y-38887873D01*
X92900499Y-37892128D01*
X92894091Y-37832517D01*
X92881340Y-37798332D01*
X92876357Y-37728642D01*
X92881340Y-37711669D01*
X92894091Y-37677483D01*
X92900500Y-37617873D01*
X92900499Y-36622128D01*
X92894091Y-36562517D01*
X92881340Y-36528332D01*
X92876357Y-36458642D01*
X92881340Y-36441669D01*
X92894091Y-36407483D01*
X92900500Y-36347873D01*
X92900499Y-35352128D01*
X92894091Y-35292517D01*
X92881340Y-35258332D01*
X92876357Y-35188642D01*
X92881340Y-35171669D01*
X92894091Y-35137483D01*
X92900500Y-35077873D01*
X92900499Y-34082128D01*
X92894091Y-34022517D01*
X92881340Y-33988332D01*
X92876357Y-33918642D01*
X92881340Y-33901669D01*
X92894091Y-33867483D01*
X92900500Y-33807873D01*
X92900499Y-33434498D01*
X92920183Y-33367460D01*
X92972987Y-33321705D01*
X93024494Y-33310499D01*
X93912872Y-33310499D01*
X93972483Y-33304091D01*
X94006667Y-33291340D01*
X94076358Y-33286357D01*
X94093327Y-33291338D01*
X94127517Y-33304091D01*
X94187127Y-33310500D01*
X95182872Y-33310499D01*
X95242483Y-33304091D01*
X95276667Y-33291340D01*
X95346358Y-33286357D01*
X95363327Y-33291338D01*
X95397517Y-33304091D01*
X95457127Y-33310500D01*
X96452872Y-33310499D01*
X96512483Y-33304091D01*
X96546667Y-33291340D01*
X96616358Y-33286357D01*
X96633327Y-33291338D01*
X96667517Y-33304091D01*
X96727127Y-33310500D01*
X97722872Y-33310499D01*
X97782483Y-33304091D01*
X97816667Y-33291340D01*
X97886358Y-33286357D01*
X97903327Y-33291338D01*
X97937517Y-33304091D01*
X97997127Y-33310500D01*
X98992872Y-33310499D01*
X99052483Y-33304091D01*
X99086667Y-33291340D01*
X99156358Y-33286357D01*
X99173327Y-33291338D01*
X99207517Y-33304091D01*
X99267127Y-33310500D01*
X100262872Y-33310499D01*
X100322483Y-33304091D01*
X100356667Y-33291340D01*
X100426358Y-33286357D01*
X100443327Y-33291338D01*
X100477517Y-33304091D01*
X100537127Y-33310500D01*
X101532872Y-33310499D01*
X101592483Y-33304091D01*
X101626667Y-33291340D01*
X101696358Y-33286357D01*
X101713327Y-33291338D01*
X101747517Y-33304091D01*
X101807127Y-33310500D01*
X102802872Y-33310499D01*
X102862483Y-33304091D01*
X102896667Y-33291340D01*
X102966358Y-33286357D01*
X102983327Y-33291338D01*
X103017517Y-33304091D01*
X103077127Y-33310500D01*
X104072872Y-33310499D01*
X104132483Y-33304091D01*
X104166667Y-33291340D01*
X104236358Y-33286357D01*
X104253327Y-33291338D01*
X104287517Y-33304091D01*
X104347127Y-33310500D01*
X105342872Y-33310499D01*
X105402483Y-33304091D01*
X105436667Y-33291340D01*
X105506358Y-33286357D01*
X105523327Y-33291338D01*
X105557517Y-33304091D01*
X105617127Y-33310500D01*
X106612872Y-33310499D01*
X106672483Y-33304091D01*
X106706667Y-33291340D01*
X106733027Y-33289455D01*
X106758847Y-33283839D01*
X106771890Y-33286676D01*
G37*
%TD.AperFunction*%
%TA.AperFunction,Conductor*%
G36*
X73139105Y-47453792D02*
G01*
X73142147Y-47453355D01*
X73157567Y-47457585D01*
X73166487Y-47459418D01*
X73174029Y-47462132D01*
X73174767Y-47462698D01*
X73314764Y-47520687D01*
X73349424Y-47525250D01*
X73361987Y-47529771D01*
X73418401Y-47570992D01*
X73443573Y-47636170D01*
X73444000Y-47646446D01*
X73444000Y-48275000D01*
X77746000Y-48275000D01*
X77746000Y-47646446D01*
X77765685Y-47579407D01*
X77818489Y-47533652D01*
X77829717Y-47529172D01*
X77841482Y-47525130D01*
X77875236Y-47520687D01*
X77976340Y-47478808D01*
X77979959Y-47477565D01*
X78011175Y-47476150D01*
X78042258Y-47472809D01*
X78045800Y-47474582D01*
X78049757Y-47474403D01*
X78076780Y-47490089D01*
X78104737Y-47504083D01*
X78107923Y-47507158D01*
X78363181Y-47762416D01*
X78396666Y-47823739D01*
X78399500Y-47850097D01*
X78399500Y-49658372D01*
X78379815Y-49725411D01*
X78327011Y-49771166D01*
X78257853Y-49781110D01*
X78194297Y-49752085D01*
X78177125Y-49733859D01*
X78144098Y-49690818D01*
X78135451Y-49679549D01*
X78015233Y-49587302D01*
X78015229Y-49587300D01*
X77875236Y-49529313D01*
X77853811Y-49526492D01*
X77789915Y-49498223D01*
X77751446Y-49439897D01*
X77746000Y-49403553D01*
X77746000Y-48775000D01*
X73444000Y-48775000D01*
X73444000Y-49404058D01*
X73424315Y-49471097D01*
X73371511Y-49516852D01*
X73336186Y-49526997D01*
X73314896Y-49529800D01*
X73314891Y-49529801D01*
X73171952Y-49589008D01*
X73102483Y-49596477D01*
X73040004Y-49565202D01*
X73004352Y-49505112D01*
X73000500Y-49474447D01*
X73000500Y-47576093D01*
X73008951Y-47547310D01*
X73014988Y-47517929D01*
X73018692Y-47514138D01*
X73020185Y-47509054D01*
X73042847Y-47489416D01*
X73063818Y-47467955D01*
X73068985Y-47466768D01*
X73072989Y-47463299D01*
X73102675Y-47459030D01*
X73131915Y-47452315D01*
X73139105Y-47453792D01*
G37*
%TD.AperFunction*%
%TA.AperFunction,Conductor*%
G36*
X90850841Y-25020185D02*
G01*
X90896596Y-25072989D01*
X90906540Y-25142147D01*
X90877515Y-25205703D01*
X90871483Y-25212181D01*
X89940848Y-26142815D01*
X89879525Y-26176300D01*
X89809833Y-26171316D01*
X89784276Y-26158236D01*
X89671370Y-26082794D01*
X89671357Y-26082787D01*
X89525686Y-26022449D01*
X89525674Y-26022446D01*
X89371030Y-25991685D01*
X89371027Y-25991685D01*
X89213343Y-25991685D01*
X89213340Y-25991685D01*
X89058695Y-26022446D01*
X89058683Y-26022449D01*
X88913012Y-26082787D01*
X88912999Y-26082794D01*
X88781896Y-26170395D01*
X88781892Y-26170398D01*
X88670398Y-26281892D01*
X88670395Y-26281896D01*
X88582794Y-26412999D01*
X88582787Y-26413012D01*
X88522449Y-26558683D01*
X88522446Y-26558693D01*
X88491546Y-26714035D01*
X88459161Y-26775946D01*
X88457610Y-26777524D01*
X87618481Y-27616652D01*
X87618480Y-27616654D01*
X87585640Y-27673535D01*
X87539423Y-27753585D01*
X87498499Y-27906313D01*
X87498499Y-27906315D01*
X87498499Y-28074416D01*
X87498500Y-28074429D01*
X87498500Y-34100903D01*
X87478815Y-34167942D01*
X87462181Y-34188584D01*
X86715084Y-34935681D01*
X86653761Y-34969166D01*
X86627403Y-34972000D01*
X82751597Y-34972000D01*
X82684558Y-34952315D01*
X82638803Y-34899511D01*
X82628859Y-34830353D01*
X82657884Y-34766797D01*
X82663916Y-34760319D01*
X82912416Y-34511819D01*
X82973739Y-34478334D01*
X83000097Y-34475500D01*
X83331613Y-34475500D01*
X83331616Y-34475500D01*
X83402196Y-34469086D01*
X83564606Y-34418478D01*
X83710185Y-34330472D01*
X83830472Y-34210185D01*
X83918478Y-34064606D01*
X83969086Y-33902196D01*
X83975500Y-33831616D01*
X83975500Y-33318384D01*
X83969086Y-33247804D01*
X83918478Y-33085394D01*
X83830472Y-32939815D01*
X83830470Y-32939813D01*
X83830469Y-32939811D01*
X83727984Y-32837326D01*
X83694499Y-32776003D01*
X83699483Y-32706311D01*
X83727985Y-32661963D01*
X83830071Y-32559878D01*
X83830072Y-32559877D01*
X83918019Y-32414395D01*
X83968590Y-32252106D01*
X83975000Y-32181572D01*
X83975000Y-32175000D01*
X82025001Y-32175000D01*
X82025001Y-32181582D01*
X82031408Y-32252102D01*
X82031409Y-32252107D01*
X82081981Y-32414396D01*
X82169927Y-32559877D01*
X82272015Y-32661965D01*
X82305500Y-32723288D01*
X82300516Y-32792980D01*
X82272015Y-32837327D01*
X82169531Y-32939810D01*
X82169530Y-32939811D01*
X82081522Y-33085393D01*
X82030913Y-33247807D01*
X82026531Y-33296031D01*
X82025217Y-33310500D01*
X82024500Y-33318386D01*
X82024500Y-33649902D01*
X82004815Y-33716941D01*
X81988181Y-33737583D01*
X81542180Y-34183583D01*
X81480857Y-34217068D01*
X81411165Y-34212084D01*
X81355232Y-34170212D01*
X81330815Y-34104748D01*
X81330499Y-34095922D01*
X81330499Y-33574628D01*
X81326067Y-33533398D01*
X81326068Y-33506893D01*
X81329999Y-33470333D01*
X81330000Y-33470319D01*
X81330000Y-33372500D01*
X81329948Y-33372448D01*
X81263085Y-33352815D01*
X81230859Y-33322813D01*
X81187546Y-33264954D01*
X81164637Y-33247804D01*
X81072335Y-33178706D01*
X81072328Y-33178702D01*
X80937482Y-33128408D01*
X80937483Y-33128408D01*
X80877883Y-33122001D01*
X80877881Y-33122000D01*
X80877873Y-33122000D01*
X80877865Y-33122000D01*
X80763284Y-33122000D01*
X80758352Y-33120552D01*
X80753322Y-33121599D01*
X80725169Y-33110808D01*
X80696245Y-33102315D01*
X80692880Y-33098431D01*
X80688080Y-33096592D01*
X80670227Y-33072288D01*
X80650490Y-33049511D01*
X80649758Y-33044425D01*
X80646716Y-33040283D01*
X80644837Y-33010195D01*
X80640546Y-32980353D01*
X80642681Y-32975677D01*
X80642361Y-32970549D01*
X80657045Y-32944224D01*
X80669571Y-32916797D01*
X80674572Y-32912803D01*
X80676398Y-32909531D01*
X80704842Y-32888636D01*
X80707649Y-32887136D01*
X80766091Y-32872500D01*
X81330000Y-32872500D01*
X81330000Y-32774672D01*
X81329999Y-32774655D01*
X81323598Y-32715127D01*
X81323596Y-32715120D01*
X81273354Y-32580413D01*
X81273352Y-32580410D01*
X81187042Y-32465116D01*
X81162624Y-32399652D01*
X81171746Y-32343355D01*
X81192051Y-32294335D01*
X81214481Y-32181572D01*
X81230500Y-32101043D01*
X81230500Y-31903956D01*
X81192052Y-31710670D01*
X81192051Y-31710669D01*
X81192051Y-31710665D01*
X81174556Y-31668427D01*
X82025000Y-31668427D01*
X82025000Y-31675000D01*
X82750000Y-31675000D01*
X83250000Y-31675000D01*
X83974999Y-31675000D01*
X83974999Y-31668417D01*
X83968591Y-31597897D01*
X83968590Y-31597892D01*
X83918018Y-31435603D01*
X83830072Y-31290122D01*
X83709877Y-31169927D01*
X83564395Y-31081980D01*
X83564396Y-31081980D01*
X83402105Y-31031409D01*
X83402106Y-31031409D01*
X83331572Y-31025000D01*
X83250000Y-31025000D01*
X83250000Y-31675000D01*
X82750000Y-31675000D01*
X82750000Y-31025000D01*
X82749999Y-31024999D01*
X82668417Y-31025000D01*
X82597897Y-31031408D01*
X82597892Y-31031409D01*
X82435603Y-31081981D01*
X82290122Y-31169927D01*
X82169927Y-31290122D01*
X82081980Y-31435604D01*
X82031409Y-31597893D01*
X82025000Y-31668427D01*
X81174556Y-31668427D01*
X81125709Y-31550500D01*
X81116635Y-31528592D01*
X81116628Y-31528579D01*
X81007139Y-31364718D01*
X81007136Y-31364714D01*
X80867785Y-31225363D01*
X80867781Y-31225360D01*
X80703920Y-31115871D01*
X80703907Y-31115864D01*
X80521839Y-31040450D01*
X80521829Y-31040447D01*
X80328543Y-31002000D01*
X80328541Y-31002000D01*
X79031459Y-31002000D01*
X79031457Y-31002000D01*
X78838170Y-31040447D01*
X78838160Y-31040450D01*
X78656092Y-31115864D01*
X78656079Y-31115871D01*
X78492218Y-31225360D01*
X78492214Y-31225363D01*
X78352863Y-31364714D01*
X78352860Y-31364718D01*
X78243371Y-31528579D01*
X78243364Y-31528592D01*
X78167950Y-31710660D01*
X78167947Y-31710670D01*
X78129500Y-31903956D01*
X78129500Y-31903959D01*
X78129500Y-32101041D01*
X78129500Y-32101043D01*
X78129499Y-32101043D01*
X78167947Y-32294329D01*
X78167950Y-32294339D01*
X78243364Y-32476407D01*
X78243371Y-32476420D01*
X78352860Y-32640281D01*
X78352863Y-32640285D01*
X78492214Y-32779636D01*
X78492218Y-32779639D01*
X78656079Y-32889128D01*
X78656083Y-32889130D01*
X78656086Y-32889132D01*
X78763818Y-32933756D01*
X78818218Y-32977594D01*
X78840284Y-33043888D01*
X78823005Y-33111587D01*
X78804049Y-33135992D01*
X78799504Y-33140536D01*
X78799504Y-33140537D01*
X78736905Y-33248963D01*
X78720896Y-33308711D01*
X78704500Y-33369899D01*
X78704500Y-33495101D01*
X78724010Y-33567913D01*
X78736905Y-33616036D01*
X78798524Y-33722765D01*
X78805088Y-33749826D01*
X78814820Y-33775918D01*
X78813211Y-33783312D01*
X78814995Y-33790665D01*
X78805887Y-33816979D01*
X78799968Y-33844191D01*
X78793461Y-33852882D01*
X78792143Y-33856692D01*
X78778817Y-33872445D01*
X78602217Y-34049046D01*
X78602214Y-34049048D01*
X78602215Y-34049049D01*
X78497480Y-34153784D01*
X78464283Y-34211284D01*
X78460944Y-34217068D01*
X78418423Y-34290714D01*
X78418423Y-34290715D01*
X78377499Y-34443443D01*
X78377499Y-34443445D01*
X78377499Y-34611546D01*
X78377500Y-34611559D01*
X78377500Y-38043439D01*
X78377499Y-38043443D01*
X78377499Y-38097804D01*
X78377499Y-38158396D01*
X78357814Y-38225435D01*
X78357811Y-38225437D01*
X78341180Y-38246076D01*
X76717520Y-39869736D01*
X76656197Y-39903221D01*
X76586505Y-39898237D01*
X76542158Y-39869736D01*
X76537785Y-39865363D01*
X76537781Y-39865360D01*
X76373920Y-39755871D01*
X76373907Y-39755864D01*
X76191839Y-39680450D01*
X76191829Y-39680447D01*
X75998543Y-39642000D01*
X75998541Y-39642000D01*
X75001459Y-39642000D01*
X75001457Y-39642000D01*
X74808170Y-39680447D01*
X74808160Y-39680450D01*
X74626092Y-39755864D01*
X74626079Y-39755871D01*
X74462218Y-39865360D01*
X74462214Y-39865363D01*
X74322863Y-40004714D01*
X74322860Y-40004718D01*
X74213371Y-40168579D01*
X74213364Y-40168592D01*
X74137950Y-40350660D01*
X74137947Y-40350670D01*
X74099500Y-40543956D01*
X74099500Y-40543959D01*
X74099500Y-40741041D01*
X74099500Y-40741043D01*
X74099499Y-40741043D01*
X74137947Y-40934329D01*
X74137950Y-40934339D01*
X74213364Y-41116407D01*
X74213371Y-41116420D01*
X74322860Y-41280281D01*
X74322863Y-41280285D01*
X74462214Y-41419636D01*
X74462218Y-41419639D01*
X74626079Y-41529128D01*
X74626092Y-41529135D01*
X74802711Y-41602292D01*
X74808165Y-41604551D01*
X74808169Y-41604551D01*
X74808170Y-41604552D01*
X75001456Y-41643000D01*
X75963404Y-41643000D01*
X76030443Y-41662685D01*
X76076198Y-41715489D01*
X76086142Y-41784647D01*
X76057117Y-41848203D01*
X76051085Y-41854681D01*
X73352159Y-44553605D01*
X73345227Y-44558236D01*
X73342285Y-44562475D01*
X73311932Y-44580485D01*
X73171954Y-44638467D01*
X73102484Y-44645936D01*
X73040005Y-44614662D01*
X73004352Y-44554573D01*
X73000500Y-44523906D01*
X73000500Y-32101043D01*
X74099499Y-32101043D01*
X74137947Y-32294329D01*
X74137950Y-32294339D01*
X74213364Y-32476407D01*
X74213371Y-32476420D01*
X74322860Y-32640281D01*
X74322863Y-32640285D01*
X74462214Y-32779636D01*
X74462218Y-32779639D01*
X74626079Y-32889128D01*
X74626092Y-32889135D01*
X74787878Y-32956148D01*
X74808165Y-32964551D01*
X74808169Y-32964551D01*
X74808170Y-32964552D01*
X75001456Y-33003000D01*
X75001459Y-33003000D01*
X75998543Y-33003000D01*
X76161681Y-32970549D01*
X76191835Y-32964551D01*
X76373914Y-32889132D01*
X76537782Y-32779639D01*
X76677139Y-32640282D01*
X76786632Y-32476414D01*
X76862051Y-32294335D01*
X76884481Y-32181572D01*
X76900500Y-32101043D01*
X76900500Y-31903956D01*
X76862052Y-31710670D01*
X76862051Y-31710669D01*
X76862051Y-31710665D01*
X76844556Y-31668427D01*
X76786635Y-31528592D01*
X76786628Y-31528579D01*
X76677139Y-31364718D01*
X76677136Y-31364714D01*
X76537785Y-31225363D01*
X76537781Y-31225360D01*
X76373920Y-31115871D01*
X76373907Y-31115864D01*
X76191839Y-31040450D01*
X76191829Y-31040447D01*
X75998543Y-31002000D01*
X75998541Y-31002000D01*
X75001459Y-31002000D01*
X75001457Y-31002000D01*
X74808170Y-31040447D01*
X74808160Y-31040450D01*
X74626092Y-31115864D01*
X74626079Y-31115871D01*
X74462218Y-31225360D01*
X74462214Y-31225363D01*
X74322863Y-31364714D01*
X74322860Y-31364718D01*
X74213371Y-31528579D01*
X74213364Y-31528592D01*
X74137950Y-31710660D01*
X74137947Y-31710670D01*
X74099500Y-31903956D01*
X74099500Y-31903959D01*
X74099500Y-32101041D01*
X74099500Y-32101043D01*
X74099499Y-32101043D01*
X73000500Y-32101043D01*
X73000500Y-25124500D01*
X73020185Y-25057461D01*
X73072989Y-25011706D01*
X73124500Y-25000500D01*
X90783802Y-25000500D01*
X90850841Y-25020185D01*
G37*
%TD.AperFunction*%
%TA.AperFunction,Conductor*%
G36*
X81396701Y-39986707D02*
G01*
X81412660Y-39985092D01*
X81430138Y-39993977D01*
X81449301Y-39998144D01*
X81472514Y-40015520D01*
X81474944Y-40016755D01*
X81475551Y-40017792D01*
X81477566Y-40019301D01*
X81587181Y-40128916D01*
X81620666Y-40190239D01*
X81623500Y-40216597D01*
X81623500Y-41112330D01*
X81623499Y-41112348D01*
X81623499Y-41278054D01*
X81623498Y-41278054D01*
X81623499Y-41278057D01*
X81664423Y-41430785D01*
X81664424Y-41430787D01*
X81664423Y-41430787D01*
X81677538Y-41453501D01*
X81677539Y-41453503D01*
X81743475Y-41567709D01*
X81743481Y-41567717D01*
X81862349Y-41686585D01*
X81862355Y-41686590D01*
X81988181Y-41812416D01*
X82021666Y-41873739D01*
X82024500Y-41900097D01*
X82024500Y-42248337D01*
X82024501Y-42248355D01*
X82034650Y-42347707D01*
X82034651Y-42347710D01*
X82087996Y-42508694D01*
X82088001Y-42508705D01*
X82177029Y-42653040D01*
X82177032Y-42653044D01*
X82186307Y-42662319D01*
X82219792Y-42723642D01*
X82214808Y-42793334D01*
X82186307Y-42837681D01*
X82177032Y-42846955D01*
X82177029Y-42846959D01*
X82088001Y-42991294D01*
X82087996Y-42991305D01*
X82034651Y-43152290D01*
X82024500Y-43251647D01*
X82024500Y-43599901D01*
X82004815Y-43666940D01*
X81988181Y-43687582D01*
X81633768Y-44041995D01*
X81633759Y-44042004D01*
X81631286Y-44044478D01*
X81631284Y-44044480D01*
X81519480Y-44156284D01*
X81497103Y-44195041D01*
X81488594Y-44204571D01*
X81469333Y-44216546D01*
X81452923Y-44232194D01*
X81440234Y-44234639D01*
X81429259Y-44241464D01*
X81406584Y-44241125D01*
X81384316Y-44245418D01*
X81364554Y-44240498D01*
X81359397Y-44240422D01*
X81356488Y-44238491D01*
X81348651Y-44236540D01*
X81333498Y-44230263D01*
X81333490Y-44230261D01*
X81200308Y-44203769D01*
X81138397Y-44171384D01*
X81103823Y-44110668D01*
X81100500Y-44082152D01*
X81100500Y-43589060D01*
X81100501Y-43589047D01*
X81100501Y-43420944D01*
X81100501Y-43420943D01*
X81059577Y-43268216D01*
X81049060Y-43250000D01*
X80980524Y-43131290D01*
X80980518Y-43131282D01*
X80368717Y-42519481D01*
X80368716Y-42519480D01*
X80281904Y-42469360D01*
X80281904Y-42469359D01*
X80281900Y-42469358D01*
X80231785Y-42440423D01*
X80079057Y-42399499D01*
X79920943Y-42399499D01*
X79913347Y-42399499D01*
X79913331Y-42399500D01*
X77391707Y-42399500D01*
X77324668Y-42379815D01*
X77278913Y-42327011D01*
X77268969Y-42257853D01*
X77271929Y-42243419D01*
X77301501Y-42133058D01*
X77301501Y-41974944D01*
X77301501Y-41967349D01*
X77301500Y-41967331D01*
X77301500Y-41035588D01*
X77321185Y-40968549D01*
X77337814Y-40947912D01*
X77936730Y-40348996D01*
X77998052Y-40315512D01*
X78067744Y-40320496D01*
X78123677Y-40362368D01*
X78148094Y-40427832D01*
X78146027Y-40460869D01*
X78129500Y-40543954D01*
X78129500Y-40543959D01*
X78129500Y-40741041D01*
X78129500Y-40741043D01*
X78129499Y-40741043D01*
X78167947Y-40934329D01*
X78167950Y-40934339D01*
X78243364Y-41116407D01*
X78243371Y-41116420D01*
X78352860Y-41280281D01*
X78352863Y-41280285D01*
X78492214Y-41419636D01*
X78492218Y-41419639D01*
X78656079Y-41529128D01*
X78656092Y-41529135D01*
X78832711Y-41602292D01*
X78838165Y-41604551D01*
X78838169Y-41604551D01*
X78838170Y-41604552D01*
X79031456Y-41643000D01*
X79031459Y-41643000D01*
X80328543Y-41643000D01*
X80479163Y-41613039D01*
X80521835Y-41604551D01*
X80671344Y-41542623D01*
X80703907Y-41529135D01*
X80703907Y-41529134D01*
X80703914Y-41529132D01*
X80867782Y-41419639D01*
X81007139Y-41280282D01*
X81116632Y-41116414D01*
X81192051Y-40934335D01*
X81212356Y-40832255D01*
X81230500Y-40741043D01*
X81230500Y-40543956D01*
X81192052Y-40350670D01*
X81192051Y-40350669D01*
X81192051Y-40350665D01*
X81191360Y-40348997D01*
X81171748Y-40301648D01*
X81170739Y-40292263D01*
X81165972Y-40284114D01*
X81167064Y-40258083D01*
X81164279Y-40232179D01*
X81168583Y-40221878D01*
X81168901Y-40214306D01*
X81182645Y-40188226D01*
X81184895Y-40182844D01*
X81288471Y-40035630D01*
X81303812Y-40023423D01*
X81315564Y-40007722D01*
X81330595Y-40002114D01*
X81343146Y-39992128D01*
X81362653Y-39990153D01*
X81381026Y-39983299D01*
X81396701Y-39986707D01*
G37*
%TD.AperFunction*%
%TD*%
M02*
