M48
; DRILL file {KiCad 9.0.6} date 2025-12-13T17:25:43+1100
; FORMAT={-:-/ absolute / metric / decimal}
; #@! TF.CreationDate,2025-12-13T17:25:43+11:00
; #@! TF.GenerationSoftware,Kicad,Pcbnew,9.0.6
; #@! TF.FileFunction,Plated,1,2,PTH
FMAT,2
METRIC
; #@! TA.AperFunction,Plated,PTH,ComponentDrill
T1C0.200
; #@! TA.AperFunction,Plated,PTH,ViaDrill
T2C0.300
; #@! TA.AperFunction,Plated,PTH,ComponentDrill
T3C0.600
; #@! TA.AperFunction,Plated,PTH,ComponentDrill
T4C0.800
%
G90
G05
T1
X100.5Y-41.4
X100.5Y-42.8
X101.2Y-40.7
X101.2Y-42.1
X101.2Y-43.5
X101.9Y-41.4
X101.9Y-42.8
X102.6Y-40.7
X102.6Y-42.1
X102.6Y-43.5
X103.3Y-41.4
X103.3Y-42.8
T2
X76.5Y-53.0
X79.0Y-50.4
X79.0Y-51.6
X79.9Y-44.0
X79.9Y-51.0
X81.1Y-45.0
X81.1Y-51.0
X81.479Y-40.021
X81.5Y-33.0
X82.0Y-45.0
X82.0Y-47.0
X89.292Y-26.792
X91.549Y-26.799
X96.9Y-56.0
X97.0Y-57.5
X98.0Y-58.5
X98.1Y-56.0
X99.0Y-57.5
X100.435Y-30.75
X100.5Y-58.4
X101.5Y-29.25
X102.975Y-27.75
X103.25Y-26.775
X104.175Y-29.25
X104.184Y-27.816
X104.25Y-30.75
X104.75Y-27.25
X110.0Y-25.575
X110.454Y-27.255
X110.5Y-28.25
X110.65Y-29.75
X110.65Y-30.75
X111.25Y-27.176
X112.0Y-27.5
X112.0Y-44.5
X112.251Y-29.75
X112.251Y-30.75
X112.9Y-31.75
X113.549Y-27.201
X113.6Y-43.0
X115.9Y-56.0
X117.5Y-54.5
X121.75Y-28.4
X122.093Y-29.689
X122.75Y-29.0
X122.826Y-53.826
X123.674Y-54.674
X123.824Y-29.775
X124.751Y-28.995
T4
X124.712Y-48.5
X124.712Y-50.5
T3
G00X75.9Y-32.002
M15
G01X75.1Y-32.002
M16
G05
G00X75.9Y-40.642
M15
G01X75.1Y-40.642
M16
G05
G00X80.23Y-32.002
M15
G01X79.13Y-32.002
M16
G05
G00X80.23Y-40.642
M15
G01X79.13Y-40.642
M16
G05
M30
