%TF.GenerationSoftware,KiCad,Pcbnew,9.0.6*%
%TF.CreationDate,2025-12-13T17:25:43+11:00*%
%TF.ProjectId,esp32,65737033-322e-46b6-9963-61645f706362,rev?*%
%TF.SameCoordinates,Original*%
%TF.FileFunction,Drillmap*%
%TF.FilePolarity,Positive*%
%FSLAX45Y45*%
G04 Gerber Fmt 4.5, Leading zero omitted, Abs format (unit mm)*
G04 Created by KiCad (PCBNEW 9.0.6) date 2025-12-13 17:25:43*
%MOMM*%
%LPD*%
G01*
G04 APERTURE LIST*
%ADD10C,0.050000*%
%ADD11C,0.200000*%
%ADD12C,0.100000*%
G04 APERTURE END LIST*
D10*
X7250000Y-2450000D02*
X12850000Y-2450000D01*
X12850000Y-6000000D01*
X7250000Y-6000000D01*
X7250000Y-2450000D01*
D11*
D12*
X10040000Y-4130000D02*
X10060000Y-4150000D01*
X10060000Y-4130000D02*
X10040000Y-4150000D01*
X10040000Y-4270000D02*
X10060000Y-4290000D01*
X10060000Y-4270000D02*
X10040000Y-4290000D01*
X10110000Y-4060000D02*
X10130000Y-4080000D01*
X10130000Y-4060000D02*
X10110000Y-4080000D01*
X10110000Y-4200000D02*
X10130000Y-4220000D01*
X10130000Y-4200000D02*
X10110000Y-4220000D01*
X10110000Y-4340000D02*
X10130000Y-4360000D01*
X10130000Y-4340000D02*
X10110000Y-4360000D01*
X10180000Y-4130000D02*
X10200000Y-4150000D01*
X10200000Y-4130000D02*
X10180000Y-4150000D01*
X10180000Y-4270000D02*
X10200000Y-4290000D01*
X10200000Y-4270000D02*
X10180000Y-4290000D01*
X10250000Y-4060000D02*
X10270000Y-4080000D01*
X10270000Y-4060000D02*
X10250000Y-4080000D01*
X10250000Y-4200000D02*
X10270000Y-4220000D01*
X10270000Y-4200000D02*
X10250000Y-4220000D01*
X10250000Y-4340000D02*
X10270000Y-4360000D01*
X10270000Y-4340000D02*
X10250000Y-4360000D01*
X10320000Y-4130000D02*
X10340000Y-4150000D01*
X10340000Y-4130000D02*
X10320000Y-4150000D01*
X10320000Y-4270000D02*
X10340000Y-4290000D01*
X10340000Y-4270000D02*
X10320000Y-4290000D01*
X7665000Y-5300000D02*
G75*
G02*
X7635000Y-5300000I-15000J0D01*
G01*
X7635000Y-5300000D02*
G75*
G02*
X7665000Y-5300000I15000J0D01*
G01*
X7915000Y-5040000D02*
G75*
G02*
X7885000Y-5040000I-15000J0D01*
G01*
X7885000Y-5040000D02*
G75*
G02*
X7915000Y-5040000I15000J0D01*
G01*
X7915000Y-5160000D02*
G75*
G02*
X7885000Y-5160000I-15000J0D01*
G01*
X7885000Y-5160000D02*
G75*
G02*
X7915000Y-5160000I15000J0D01*
G01*
X8005000Y-4400000D02*
G75*
G02*
X7975000Y-4400000I-15000J0D01*
G01*
X7975000Y-4400000D02*
G75*
G02*
X8005000Y-4400000I15000J0D01*
G01*
X8005000Y-5100000D02*
G75*
G02*
X7975000Y-5100000I-15000J0D01*
G01*
X7975000Y-5100000D02*
G75*
G02*
X8005000Y-5100000I15000J0D01*
G01*
X8125000Y-4500000D02*
G75*
G02*
X8095000Y-4500000I-15000J0D01*
G01*
X8095000Y-4500000D02*
G75*
G02*
X8125000Y-4500000I15000J0D01*
G01*
X8125000Y-5100000D02*
G75*
G02*
X8095000Y-5100000I-15000J0D01*
G01*
X8095000Y-5100000D02*
G75*
G02*
X8125000Y-5100000I15000J0D01*
G01*
X8162948Y-4002051D02*
G75*
G02*
X8132948Y-4002051I-15000J0D01*
G01*
X8132948Y-4002051D02*
G75*
G02*
X8162948Y-4002051I15000J0D01*
G01*
X8165000Y-3300000D02*
G75*
G02*
X8135000Y-3300000I-15000J0D01*
G01*
X8135000Y-3300000D02*
G75*
G02*
X8165000Y-3300000I15000J0D01*
G01*
X8215000Y-4500000D02*
G75*
G02*
X8185000Y-4500000I-15000J0D01*
G01*
X8185000Y-4500000D02*
G75*
G02*
X8215000Y-4500000I15000J0D01*
G01*
X8215000Y-4700000D02*
G75*
G02*
X8185000Y-4700000I-15000J0D01*
G01*
X8185000Y-4700000D02*
G75*
G02*
X8215000Y-4700000I15000J0D01*
G01*
X8944219Y-2679219D02*
G75*
G02*
X8914219Y-2679219I-15000J0D01*
G01*
X8914219Y-2679219D02*
G75*
G02*
X8944219Y-2679219I15000J0D01*
G01*
X9169927Y-2679927D02*
G75*
G02*
X9139927Y-2679927I-15000J0D01*
G01*
X9139927Y-2679927D02*
G75*
G02*
X9169927Y-2679927I15000J0D01*
G01*
X9705000Y-5600000D02*
G75*
G02*
X9675000Y-5600000I-15000J0D01*
G01*
X9675000Y-5600000D02*
G75*
G02*
X9705000Y-5600000I15000J0D01*
G01*
X9715000Y-5750000D02*
G75*
G02*
X9685000Y-5750000I-15000J0D01*
G01*
X9685000Y-5750000D02*
G75*
G02*
X9715000Y-5750000I15000J0D01*
G01*
X9815000Y-5850000D02*
G75*
G02*
X9785000Y-5850000I-15000J0D01*
G01*
X9785000Y-5850000D02*
G75*
G02*
X9815000Y-5850000I15000J0D01*
G01*
X9825000Y-5600000D02*
G75*
G02*
X9795000Y-5600000I-15000J0D01*
G01*
X9795000Y-5600000D02*
G75*
G02*
X9825000Y-5600000I15000J0D01*
G01*
X9915000Y-5750000D02*
G75*
G02*
X9885000Y-5750000I-15000J0D01*
G01*
X9885000Y-5750000D02*
G75*
G02*
X9915000Y-5750000I15000J0D01*
G01*
X10058500Y-3075000D02*
G75*
G02*
X10028500Y-3075000I-15000J0D01*
G01*
X10028500Y-3075000D02*
G75*
G02*
X10058500Y-3075000I15000J0D01*
G01*
X10065000Y-5840000D02*
G75*
G02*
X10035000Y-5840000I-15000J0D01*
G01*
X10035000Y-5840000D02*
G75*
G02*
X10065000Y-5840000I15000J0D01*
G01*
X10165000Y-2925000D02*
G75*
G02*
X10135000Y-2925000I-15000J0D01*
G01*
X10135000Y-2925000D02*
G75*
G02*
X10165000Y-2925000I15000J0D01*
G01*
X10312500Y-2775000D02*
G75*
G02*
X10282500Y-2775000I-15000J0D01*
G01*
X10282500Y-2775000D02*
G75*
G02*
X10312500Y-2775000I15000J0D01*
G01*
X10340000Y-2677500D02*
G75*
G02*
X10310000Y-2677500I-15000J0D01*
G01*
X10310000Y-2677500D02*
G75*
G02*
X10340000Y-2677500I15000J0D01*
G01*
X10432500Y-2925000D02*
G75*
G02*
X10402500Y-2925000I-15000J0D01*
G01*
X10402500Y-2925000D02*
G75*
G02*
X10432500Y-2925000I15000J0D01*
G01*
X10433431Y-2781569D02*
G75*
G02*
X10403431Y-2781569I-15000J0D01*
G01*
X10403431Y-2781569D02*
G75*
G02*
X10433431Y-2781569I15000J0D01*
G01*
X10440000Y-3075000D02*
G75*
G02*
X10410000Y-3075000I-15000J0D01*
G01*
X10410000Y-3075000D02*
G75*
G02*
X10440000Y-3075000I15000J0D01*
G01*
X10490000Y-2725000D02*
G75*
G02*
X10460000Y-2725000I-15000J0D01*
G01*
X10460000Y-2725000D02*
G75*
G02*
X10490000Y-2725000I15000J0D01*
G01*
X11015000Y-2557500D02*
G75*
G02*
X10985000Y-2557500I-15000J0D01*
G01*
X10985000Y-2557500D02*
G75*
G02*
X11015000Y-2557500I15000J0D01*
G01*
X11060386Y-2725455D02*
G75*
G02*
X11030386Y-2725455I-15000J0D01*
G01*
X11030386Y-2725455D02*
G75*
G02*
X11060386Y-2725455I15000J0D01*
G01*
X11065000Y-2825000D02*
G75*
G02*
X11035000Y-2825000I-15000J0D01*
G01*
X11035000Y-2825000D02*
G75*
G02*
X11065000Y-2825000I15000J0D01*
G01*
X11080000Y-2975000D02*
G75*
G02*
X11050000Y-2975000I-15000J0D01*
G01*
X11050000Y-2975000D02*
G75*
G02*
X11080000Y-2975000I15000J0D01*
G01*
X11080000Y-3075000D02*
G75*
G02*
X11050000Y-3075000I-15000J0D01*
G01*
X11050000Y-3075000D02*
G75*
G02*
X11080000Y-3075000I15000J0D01*
G01*
X11140000Y-2717600D02*
G75*
G02*
X11110000Y-2717600I-15000J0D01*
G01*
X11110000Y-2717600D02*
G75*
G02*
X11140000Y-2717600I15000J0D01*
G01*
X11215000Y-2750000D02*
G75*
G02*
X11185000Y-2750000I-15000J0D01*
G01*
X11185000Y-2750000D02*
G75*
G02*
X11215000Y-2750000I15000J0D01*
G01*
X11215000Y-4450000D02*
G75*
G02*
X11185000Y-4450000I-15000J0D01*
G01*
X11185000Y-4450000D02*
G75*
G02*
X11215000Y-4450000I15000J0D01*
G01*
X11240100Y-2975000D02*
G75*
G02*
X11210100Y-2975000I-15000J0D01*
G01*
X11210100Y-2975000D02*
G75*
G02*
X11240100Y-2975000I15000J0D01*
G01*
X11240100Y-3075000D02*
G75*
G02*
X11210100Y-3075000I-15000J0D01*
G01*
X11210100Y-3075000D02*
G75*
G02*
X11240100Y-3075000I15000J0D01*
G01*
X11305000Y-3175000D02*
G75*
G02*
X11275000Y-3175000I-15000J0D01*
G01*
X11275000Y-3175000D02*
G75*
G02*
X11305000Y-3175000I15000J0D01*
G01*
X11369926Y-2720074D02*
G75*
G02*
X11339926Y-2720074I-15000J0D01*
G01*
X11339926Y-2720074D02*
G75*
G02*
X11369926Y-2720074I15000J0D01*
G01*
X11375000Y-4300000D02*
G75*
G02*
X11345000Y-4300000I-15000J0D01*
G01*
X11345000Y-4300000D02*
G75*
G02*
X11375000Y-4300000I15000J0D01*
G01*
X11605000Y-5600000D02*
G75*
G02*
X11575000Y-5600000I-15000J0D01*
G01*
X11575000Y-5600000D02*
G75*
G02*
X11605000Y-5600000I15000J0D01*
G01*
X11765000Y-5450000D02*
G75*
G02*
X11735000Y-5450000I-15000J0D01*
G01*
X11735000Y-5450000D02*
G75*
G02*
X11765000Y-5450000I15000J0D01*
G01*
X12190000Y-2840000D02*
G75*
G02*
X12160000Y-2840000I-15000J0D01*
G01*
X12160000Y-2840000D02*
G75*
G02*
X12190000Y-2840000I15000J0D01*
G01*
X12224319Y-2968884D02*
G75*
G02*
X12194319Y-2968884I-15000J0D01*
G01*
X12194319Y-2968884D02*
G75*
G02*
X12224319Y-2968884I15000J0D01*
G01*
X12290000Y-2900000D02*
G75*
G02*
X12260000Y-2900000I-15000J0D01*
G01*
X12260000Y-2900000D02*
G75*
G02*
X12290000Y-2900000I15000J0D01*
G01*
X12297573Y-5382574D02*
G75*
G02*
X12267573Y-5382574I-15000J0D01*
G01*
X12267573Y-5382574D02*
G75*
G02*
X12297573Y-5382574I15000J0D01*
G01*
X12382426Y-5467427D02*
G75*
G02*
X12352426Y-5467427I-15000J0D01*
G01*
X12352426Y-5467427D02*
G75*
G02*
X12382426Y-5467427I15000J0D01*
G01*
X12397390Y-2977463D02*
G75*
G02*
X12367390Y-2977463I-15000J0D01*
G01*
X12367390Y-2977463D02*
G75*
G02*
X12397390Y-2977463I15000J0D01*
G01*
X12490124Y-2899453D02*
G75*
G02*
X12460124Y-2899453I-15000J0D01*
G01*
X12460124Y-2899453D02*
G75*
G02*
X12490124Y-2899453I15000J0D01*
G01*
X7550000Y-3170250D02*
X7550000Y-3230250D01*
X7520000Y-3200250D02*
X7580000Y-3200250D01*
X7590000Y-3170250D02*
X7510000Y-3170250D01*
X7510000Y-3230250D02*
G75*
G02*
X7510000Y-3170250I0J30000D01*
G01*
X7510000Y-3230250D02*
X7590000Y-3230250D01*
X7590000Y-3230250D02*
G75*
G03*
X7590000Y-3170250I0J30000D01*
G01*
X7550000Y-4034250D02*
X7550000Y-4094250D01*
X7520000Y-4064250D02*
X7580000Y-4064250D01*
X7590000Y-4034250D02*
X7510000Y-4034250D01*
X7510000Y-4094250D02*
G75*
G02*
X7510000Y-4034250I0J30000D01*
G01*
X7510000Y-4094250D02*
X7590000Y-4094250D01*
X7590000Y-4094250D02*
G75*
G03*
X7590000Y-4034250I0J30000D01*
G01*
X7968000Y-3170250D02*
X7968000Y-3230250D01*
X7938000Y-3200250D02*
X7998000Y-3200250D01*
X8023000Y-3170250D02*
X7913000Y-3170250D01*
X7913000Y-3230250D02*
G75*
G02*
X7913000Y-3170250I0J30000D01*
G01*
X7913000Y-3230250D02*
X8023000Y-3230250D01*
X8023000Y-3230250D02*
G75*
G03*
X8023000Y-3170250I0J30000D01*
G01*
X7968000Y-4034250D02*
X7968000Y-4094250D01*
X7938000Y-4064250D02*
X7998000Y-4064250D01*
X8023000Y-4034250D02*
X7913000Y-4034250D01*
X7913000Y-4094250D02*
G75*
G02*
X7913000Y-4034250I0J30000D01*
G01*
X7913000Y-4094250D02*
X8023000Y-4094250D01*
X8023000Y-4094250D02*
G75*
G03*
X8023000Y-4034250I0J30000D01*
G01*
X12499534Y-4878285D02*
X12499534Y-4821716D01*
X12442965Y-4821716D01*
X12442965Y-4878285D01*
X12499534Y-4878285D01*
X12499534Y-5078285D02*
X12499534Y-5021716D01*
X12442965Y-5021716D01*
X12442965Y-5078285D01*
X12499534Y-5078285D01*
D11*
X7508277Y-6313984D02*
X7508277Y-6113984D01*
X7508277Y-6113984D02*
X7555896Y-6113984D01*
X7555896Y-6113984D02*
X7584467Y-6123508D01*
X7584467Y-6123508D02*
X7603515Y-6142555D01*
X7603515Y-6142555D02*
X7613039Y-6161603D01*
X7613039Y-6161603D02*
X7622562Y-6199698D01*
X7622562Y-6199698D02*
X7622562Y-6228269D01*
X7622562Y-6228269D02*
X7613039Y-6266365D01*
X7613039Y-6266365D02*
X7603515Y-6285412D01*
X7603515Y-6285412D02*
X7584467Y-6304460D01*
X7584467Y-6304460D02*
X7555896Y-6313984D01*
X7555896Y-6313984D02*
X7508277Y-6313984D01*
X7708277Y-6313984D02*
X7708277Y-6180650D01*
X7708277Y-6218746D02*
X7717801Y-6199698D01*
X7717801Y-6199698D02*
X7727324Y-6190174D01*
X7727324Y-6190174D02*
X7746372Y-6180650D01*
X7746372Y-6180650D02*
X7765420Y-6180650D01*
X7832086Y-6313984D02*
X7832086Y-6180650D01*
X7832086Y-6113984D02*
X7822562Y-6123508D01*
X7822562Y-6123508D02*
X7832086Y-6133031D01*
X7832086Y-6133031D02*
X7841610Y-6123508D01*
X7841610Y-6123508D02*
X7832086Y-6113984D01*
X7832086Y-6113984D02*
X7832086Y-6133031D01*
X7955896Y-6313984D02*
X7936848Y-6304460D01*
X7936848Y-6304460D02*
X7927324Y-6285412D01*
X7927324Y-6285412D02*
X7927324Y-6113984D01*
X8060658Y-6313984D02*
X8041610Y-6304460D01*
X8041610Y-6304460D02*
X8032086Y-6285412D01*
X8032086Y-6285412D02*
X8032086Y-6113984D01*
X8289229Y-6313984D02*
X8289229Y-6113984D01*
X8289229Y-6113984D02*
X8355896Y-6256841D01*
X8355896Y-6256841D02*
X8422563Y-6113984D01*
X8422563Y-6113984D02*
X8422563Y-6313984D01*
X8603515Y-6313984D02*
X8603515Y-6209222D01*
X8603515Y-6209222D02*
X8593991Y-6190174D01*
X8593991Y-6190174D02*
X8574944Y-6180650D01*
X8574944Y-6180650D02*
X8536848Y-6180650D01*
X8536848Y-6180650D02*
X8517801Y-6190174D01*
X8603515Y-6304460D02*
X8584467Y-6313984D01*
X8584467Y-6313984D02*
X8536848Y-6313984D01*
X8536848Y-6313984D02*
X8517801Y-6304460D01*
X8517801Y-6304460D02*
X8508277Y-6285412D01*
X8508277Y-6285412D02*
X8508277Y-6266365D01*
X8508277Y-6266365D02*
X8517801Y-6247317D01*
X8517801Y-6247317D02*
X8536848Y-6237793D01*
X8536848Y-6237793D02*
X8584467Y-6237793D01*
X8584467Y-6237793D02*
X8603515Y-6228269D01*
X8698753Y-6180650D02*
X8698753Y-6380650D01*
X8698753Y-6190174D02*
X8717801Y-6180650D01*
X8717801Y-6180650D02*
X8755896Y-6180650D01*
X8755896Y-6180650D02*
X8774944Y-6190174D01*
X8774944Y-6190174D02*
X8784467Y-6199698D01*
X8784467Y-6199698D02*
X8793991Y-6218746D01*
X8793991Y-6218746D02*
X8793991Y-6275888D01*
X8793991Y-6275888D02*
X8784467Y-6294936D01*
X8784467Y-6294936D02*
X8774944Y-6304460D01*
X8774944Y-6304460D02*
X8755896Y-6313984D01*
X8755896Y-6313984D02*
X8717801Y-6313984D01*
X8717801Y-6313984D02*
X8698753Y-6304460D01*
X8879705Y-6294936D02*
X8889229Y-6304460D01*
X8889229Y-6304460D02*
X8879705Y-6313984D01*
X8879705Y-6313984D02*
X8870182Y-6304460D01*
X8870182Y-6304460D02*
X8879705Y-6294936D01*
X8879705Y-6294936D02*
X8879705Y-6313984D01*
X8879705Y-6190174D02*
X8889229Y-6199698D01*
X8889229Y-6199698D02*
X8879705Y-6209222D01*
X8879705Y-6209222D02*
X8870182Y-6199698D01*
X8870182Y-6199698D02*
X8879705Y-6190174D01*
X8879705Y-6190174D02*
X8879705Y-6209222D01*
D12*
X7227500Y-6632500D02*
X7247500Y-6652500D01*
X7247500Y-6632500D02*
X7227500Y-6652500D01*
D11*
X7546372Y-6533984D02*
X7565420Y-6533984D01*
X7565420Y-6533984D02*
X7584467Y-6543508D01*
X7584467Y-6543508D02*
X7593991Y-6553031D01*
X7593991Y-6553031D02*
X7603515Y-6572079D01*
X7603515Y-6572079D02*
X7613039Y-6610174D01*
X7613039Y-6610174D02*
X7613039Y-6657793D01*
X7613039Y-6657793D02*
X7603515Y-6695888D01*
X7603515Y-6695888D02*
X7593991Y-6714936D01*
X7593991Y-6714936D02*
X7584467Y-6724460D01*
X7584467Y-6724460D02*
X7565420Y-6733984D01*
X7565420Y-6733984D02*
X7546372Y-6733984D01*
X7546372Y-6733984D02*
X7527324Y-6724460D01*
X7527324Y-6724460D02*
X7517801Y-6714936D01*
X7517801Y-6714936D02*
X7508277Y-6695888D01*
X7508277Y-6695888D02*
X7498753Y-6657793D01*
X7498753Y-6657793D02*
X7498753Y-6610174D01*
X7498753Y-6610174D02*
X7508277Y-6572079D01*
X7508277Y-6572079D02*
X7517801Y-6553031D01*
X7517801Y-6553031D02*
X7527324Y-6543508D01*
X7527324Y-6543508D02*
X7546372Y-6533984D01*
X7698753Y-6714936D02*
X7708277Y-6724460D01*
X7708277Y-6724460D02*
X7698753Y-6733984D01*
X7698753Y-6733984D02*
X7689229Y-6724460D01*
X7689229Y-6724460D02*
X7698753Y-6714936D01*
X7698753Y-6714936D02*
X7698753Y-6733984D01*
X7784467Y-6553031D02*
X7793991Y-6543508D01*
X7793991Y-6543508D02*
X7813039Y-6533984D01*
X7813039Y-6533984D02*
X7860658Y-6533984D01*
X7860658Y-6533984D02*
X7879705Y-6543508D01*
X7879705Y-6543508D02*
X7889229Y-6553031D01*
X7889229Y-6553031D02*
X7898753Y-6572079D01*
X7898753Y-6572079D02*
X7898753Y-6591127D01*
X7898753Y-6591127D02*
X7889229Y-6619698D01*
X7889229Y-6619698D02*
X7774943Y-6733984D01*
X7774943Y-6733984D02*
X7898753Y-6733984D01*
X8022562Y-6533984D02*
X8041610Y-6533984D01*
X8041610Y-6533984D02*
X8060658Y-6543508D01*
X8060658Y-6543508D02*
X8070182Y-6553031D01*
X8070182Y-6553031D02*
X8079705Y-6572079D01*
X8079705Y-6572079D02*
X8089229Y-6610174D01*
X8089229Y-6610174D02*
X8089229Y-6657793D01*
X8089229Y-6657793D02*
X8079705Y-6695888D01*
X8079705Y-6695888D02*
X8070182Y-6714936D01*
X8070182Y-6714936D02*
X8060658Y-6724460D01*
X8060658Y-6724460D02*
X8041610Y-6733984D01*
X8041610Y-6733984D02*
X8022562Y-6733984D01*
X8022562Y-6733984D02*
X8003515Y-6724460D01*
X8003515Y-6724460D02*
X7993991Y-6714936D01*
X7993991Y-6714936D02*
X7984467Y-6695888D01*
X7984467Y-6695888D02*
X7974943Y-6657793D01*
X7974943Y-6657793D02*
X7974943Y-6610174D01*
X7974943Y-6610174D02*
X7984467Y-6572079D01*
X7984467Y-6572079D02*
X7993991Y-6553031D01*
X7993991Y-6553031D02*
X8003515Y-6543508D01*
X8003515Y-6543508D02*
X8022562Y-6533984D01*
X8213039Y-6533984D02*
X8232086Y-6533984D01*
X8232086Y-6533984D02*
X8251134Y-6543508D01*
X8251134Y-6543508D02*
X8260658Y-6553031D01*
X8260658Y-6553031D02*
X8270182Y-6572079D01*
X8270182Y-6572079D02*
X8279705Y-6610174D01*
X8279705Y-6610174D02*
X8279705Y-6657793D01*
X8279705Y-6657793D02*
X8270182Y-6695888D01*
X8270182Y-6695888D02*
X8260658Y-6714936D01*
X8260658Y-6714936D02*
X8251134Y-6724460D01*
X8251134Y-6724460D02*
X8232086Y-6733984D01*
X8232086Y-6733984D02*
X8213039Y-6733984D01*
X8213039Y-6733984D02*
X8193991Y-6724460D01*
X8193991Y-6724460D02*
X8184467Y-6714936D01*
X8184467Y-6714936D02*
X8174943Y-6695888D01*
X8174943Y-6695888D02*
X8165420Y-6657793D01*
X8165420Y-6657793D02*
X8165420Y-6610174D01*
X8165420Y-6610174D02*
X8174943Y-6572079D01*
X8174943Y-6572079D02*
X8184467Y-6553031D01*
X8184467Y-6553031D02*
X8193991Y-6543508D01*
X8193991Y-6543508D02*
X8213039Y-6533984D01*
X8365420Y-6733984D02*
X8365420Y-6600650D01*
X8365420Y-6619698D02*
X8374943Y-6610174D01*
X8374943Y-6610174D02*
X8393991Y-6600650D01*
X8393991Y-6600650D02*
X8422563Y-6600650D01*
X8422563Y-6600650D02*
X8441610Y-6610174D01*
X8441610Y-6610174D02*
X8451134Y-6629222D01*
X8451134Y-6629222D02*
X8451134Y-6733984D01*
X8451134Y-6629222D02*
X8460658Y-6610174D01*
X8460658Y-6610174D02*
X8479705Y-6600650D01*
X8479705Y-6600650D02*
X8508277Y-6600650D01*
X8508277Y-6600650D02*
X8527325Y-6610174D01*
X8527325Y-6610174D02*
X8536848Y-6629222D01*
X8536848Y-6629222D02*
X8536848Y-6733984D01*
X8632086Y-6733984D02*
X8632086Y-6600650D01*
X8632086Y-6619698D02*
X8641610Y-6610174D01*
X8641610Y-6610174D02*
X8660658Y-6600650D01*
X8660658Y-6600650D02*
X8689229Y-6600650D01*
X8689229Y-6600650D02*
X8708277Y-6610174D01*
X8708277Y-6610174D02*
X8717801Y-6629222D01*
X8717801Y-6629222D02*
X8717801Y-6733984D01*
X8717801Y-6629222D02*
X8727325Y-6610174D01*
X8727325Y-6610174D02*
X8746372Y-6600650D01*
X8746372Y-6600650D02*
X8774944Y-6600650D01*
X8774944Y-6600650D02*
X8793991Y-6610174D01*
X8793991Y-6610174D02*
X8803515Y-6629222D01*
X8803515Y-6629222D02*
X8803515Y-6733984D01*
X9193991Y-6524460D02*
X9022563Y-6781603D01*
X9451134Y-6533984D02*
X9470182Y-6533984D01*
X9470182Y-6533984D02*
X9489229Y-6543508D01*
X9489229Y-6543508D02*
X9498753Y-6553031D01*
X9498753Y-6553031D02*
X9508277Y-6572079D01*
X9508277Y-6572079D02*
X9517801Y-6610174D01*
X9517801Y-6610174D02*
X9517801Y-6657793D01*
X9517801Y-6657793D02*
X9508277Y-6695888D01*
X9508277Y-6695888D02*
X9498753Y-6714936D01*
X9498753Y-6714936D02*
X9489229Y-6724460D01*
X9489229Y-6724460D02*
X9470182Y-6733984D01*
X9470182Y-6733984D02*
X9451134Y-6733984D01*
X9451134Y-6733984D02*
X9432087Y-6724460D01*
X9432087Y-6724460D02*
X9422563Y-6714936D01*
X9422563Y-6714936D02*
X9413039Y-6695888D01*
X9413039Y-6695888D02*
X9403515Y-6657793D01*
X9403515Y-6657793D02*
X9403515Y-6610174D01*
X9403515Y-6610174D02*
X9413039Y-6572079D01*
X9413039Y-6572079D02*
X9422563Y-6553031D01*
X9422563Y-6553031D02*
X9432087Y-6543508D01*
X9432087Y-6543508D02*
X9451134Y-6533984D01*
X9603515Y-6714936D02*
X9613039Y-6724460D01*
X9613039Y-6724460D02*
X9603515Y-6733984D01*
X9603515Y-6733984D02*
X9593991Y-6724460D01*
X9593991Y-6724460D02*
X9603515Y-6714936D01*
X9603515Y-6714936D02*
X9603515Y-6733984D01*
X9736848Y-6533984D02*
X9755896Y-6533984D01*
X9755896Y-6533984D02*
X9774944Y-6543508D01*
X9774944Y-6543508D02*
X9784468Y-6553031D01*
X9784468Y-6553031D02*
X9793991Y-6572079D01*
X9793991Y-6572079D02*
X9803515Y-6610174D01*
X9803515Y-6610174D02*
X9803515Y-6657793D01*
X9803515Y-6657793D02*
X9793991Y-6695888D01*
X9793991Y-6695888D02*
X9784468Y-6714936D01*
X9784468Y-6714936D02*
X9774944Y-6724460D01*
X9774944Y-6724460D02*
X9755896Y-6733984D01*
X9755896Y-6733984D02*
X9736848Y-6733984D01*
X9736848Y-6733984D02*
X9717801Y-6724460D01*
X9717801Y-6724460D02*
X9708277Y-6714936D01*
X9708277Y-6714936D02*
X9698753Y-6695888D01*
X9698753Y-6695888D02*
X9689229Y-6657793D01*
X9689229Y-6657793D02*
X9689229Y-6610174D01*
X9689229Y-6610174D02*
X9698753Y-6572079D01*
X9698753Y-6572079D02*
X9708277Y-6553031D01*
X9708277Y-6553031D02*
X9717801Y-6543508D01*
X9717801Y-6543508D02*
X9736848Y-6533984D01*
X9927325Y-6533984D02*
X9946372Y-6533984D01*
X9946372Y-6533984D02*
X9965420Y-6543508D01*
X9965420Y-6543508D02*
X9974944Y-6553031D01*
X9974944Y-6553031D02*
X9984468Y-6572079D01*
X9984468Y-6572079D02*
X9993991Y-6610174D01*
X9993991Y-6610174D02*
X9993991Y-6657793D01*
X9993991Y-6657793D02*
X9984468Y-6695888D01*
X9984468Y-6695888D02*
X9974944Y-6714936D01*
X9974944Y-6714936D02*
X9965420Y-6724460D01*
X9965420Y-6724460D02*
X9946372Y-6733984D01*
X9946372Y-6733984D02*
X9927325Y-6733984D01*
X9927325Y-6733984D02*
X9908277Y-6724460D01*
X9908277Y-6724460D02*
X9898753Y-6714936D01*
X9898753Y-6714936D02*
X9889229Y-6695888D01*
X9889229Y-6695888D02*
X9879706Y-6657793D01*
X9879706Y-6657793D02*
X9879706Y-6610174D01*
X9879706Y-6610174D02*
X9889229Y-6572079D01*
X9889229Y-6572079D02*
X9898753Y-6553031D01*
X9898753Y-6553031D02*
X9908277Y-6543508D01*
X9908277Y-6543508D02*
X9927325Y-6533984D01*
X10060658Y-6533984D02*
X10193991Y-6533984D01*
X10193991Y-6533984D02*
X10108277Y-6733984D01*
X10279706Y-6733984D02*
X10317801Y-6733984D01*
X10317801Y-6733984D02*
X10336849Y-6724460D01*
X10336849Y-6724460D02*
X10346372Y-6714936D01*
X10346372Y-6714936D02*
X10365420Y-6686365D01*
X10365420Y-6686365D02*
X10374944Y-6648269D01*
X10374944Y-6648269D02*
X10374944Y-6572079D01*
X10374944Y-6572079D02*
X10365420Y-6553031D01*
X10365420Y-6553031D02*
X10355896Y-6543508D01*
X10355896Y-6543508D02*
X10336849Y-6533984D01*
X10336849Y-6533984D02*
X10298753Y-6533984D01*
X10298753Y-6533984D02*
X10279706Y-6543508D01*
X10279706Y-6543508D02*
X10270182Y-6553031D01*
X10270182Y-6553031D02*
X10260658Y-6572079D01*
X10260658Y-6572079D02*
X10260658Y-6619698D01*
X10260658Y-6619698D02*
X10270182Y-6638746D01*
X10270182Y-6638746D02*
X10279706Y-6648269D01*
X10279706Y-6648269D02*
X10298753Y-6657793D01*
X10298753Y-6657793D02*
X10336849Y-6657793D01*
X10336849Y-6657793D02*
X10355896Y-6648269D01*
X10355896Y-6648269D02*
X10365420Y-6638746D01*
X10365420Y-6638746D02*
X10374944Y-6619698D01*
X10451134Y-6533984D02*
X10451134Y-6572079D01*
X10527325Y-6533984D02*
X10527325Y-6572079D01*
X10822563Y-6810174D02*
X10813039Y-6800650D01*
X10813039Y-6800650D02*
X10793991Y-6772079D01*
X10793991Y-6772079D02*
X10784468Y-6753031D01*
X10784468Y-6753031D02*
X10774944Y-6724460D01*
X10774944Y-6724460D02*
X10765420Y-6676841D01*
X10765420Y-6676841D02*
X10765420Y-6638746D01*
X10765420Y-6638746D02*
X10774944Y-6591127D01*
X10774944Y-6591127D02*
X10784468Y-6562555D01*
X10784468Y-6562555D02*
X10793991Y-6543508D01*
X10793991Y-6543508D02*
X10813039Y-6514936D01*
X10813039Y-6514936D02*
X10822563Y-6505412D01*
X11003515Y-6733984D02*
X10889230Y-6733984D01*
X10946372Y-6733984D02*
X10946372Y-6533984D01*
X10946372Y-6533984D02*
X10927325Y-6562555D01*
X10927325Y-6562555D02*
X10908277Y-6581603D01*
X10908277Y-6581603D02*
X10889230Y-6591127D01*
X11079706Y-6553031D02*
X11089230Y-6543508D01*
X11089230Y-6543508D02*
X11108277Y-6533984D01*
X11108277Y-6533984D02*
X11155896Y-6533984D01*
X11155896Y-6533984D02*
X11174944Y-6543508D01*
X11174944Y-6543508D02*
X11184468Y-6553031D01*
X11184468Y-6553031D02*
X11193991Y-6572079D01*
X11193991Y-6572079D02*
X11193991Y-6591127D01*
X11193991Y-6591127D02*
X11184468Y-6619698D01*
X11184468Y-6619698D02*
X11070182Y-6733984D01*
X11070182Y-6733984D02*
X11193991Y-6733984D01*
X11432087Y-6733984D02*
X11432087Y-6533984D01*
X11517801Y-6733984D02*
X11517801Y-6629222D01*
X11517801Y-6629222D02*
X11508277Y-6610174D01*
X11508277Y-6610174D02*
X11489230Y-6600650D01*
X11489230Y-6600650D02*
X11460658Y-6600650D01*
X11460658Y-6600650D02*
X11441610Y-6610174D01*
X11441610Y-6610174D02*
X11432087Y-6619698D01*
X11641610Y-6733984D02*
X11622563Y-6724460D01*
X11622563Y-6724460D02*
X11613039Y-6714936D01*
X11613039Y-6714936D02*
X11603515Y-6695888D01*
X11603515Y-6695888D02*
X11603515Y-6638746D01*
X11603515Y-6638746D02*
X11613039Y-6619698D01*
X11613039Y-6619698D02*
X11622563Y-6610174D01*
X11622563Y-6610174D02*
X11641610Y-6600650D01*
X11641610Y-6600650D02*
X11670182Y-6600650D01*
X11670182Y-6600650D02*
X11689230Y-6610174D01*
X11689230Y-6610174D02*
X11698753Y-6619698D01*
X11698753Y-6619698D02*
X11708277Y-6638746D01*
X11708277Y-6638746D02*
X11708277Y-6695888D01*
X11708277Y-6695888D02*
X11698753Y-6714936D01*
X11698753Y-6714936D02*
X11689230Y-6724460D01*
X11689230Y-6724460D02*
X11670182Y-6733984D01*
X11670182Y-6733984D02*
X11641610Y-6733984D01*
X11822563Y-6733984D02*
X11803515Y-6724460D01*
X11803515Y-6724460D02*
X11793991Y-6705412D01*
X11793991Y-6705412D02*
X11793991Y-6533984D01*
X11974944Y-6724460D02*
X11955896Y-6733984D01*
X11955896Y-6733984D02*
X11917801Y-6733984D01*
X11917801Y-6733984D02*
X11898753Y-6724460D01*
X11898753Y-6724460D02*
X11889230Y-6705412D01*
X11889230Y-6705412D02*
X11889230Y-6629222D01*
X11889230Y-6629222D02*
X11898753Y-6610174D01*
X11898753Y-6610174D02*
X11917801Y-6600650D01*
X11917801Y-6600650D02*
X11955896Y-6600650D01*
X11955896Y-6600650D02*
X11974944Y-6610174D01*
X11974944Y-6610174D02*
X11984468Y-6629222D01*
X11984468Y-6629222D02*
X11984468Y-6648269D01*
X11984468Y-6648269D02*
X11889230Y-6667317D01*
X12060658Y-6724460D02*
X12079706Y-6733984D01*
X12079706Y-6733984D02*
X12117801Y-6733984D01*
X12117801Y-6733984D02*
X12136849Y-6724460D01*
X12136849Y-6724460D02*
X12146372Y-6705412D01*
X12146372Y-6705412D02*
X12146372Y-6695888D01*
X12146372Y-6695888D02*
X12136849Y-6676841D01*
X12136849Y-6676841D02*
X12117801Y-6667317D01*
X12117801Y-6667317D02*
X12089230Y-6667317D01*
X12089230Y-6667317D02*
X12070182Y-6657793D01*
X12070182Y-6657793D02*
X12060658Y-6638746D01*
X12060658Y-6638746D02*
X12060658Y-6629222D01*
X12060658Y-6629222D02*
X12070182Y-6610174D01*
X12070182Y-6610174D02*
X12089230Y-6600650D01*
X12089230Y-6600650D02*
X12117801Y-6600650D01*
X12117801Y-6600650D02*
X12136849Y-6610174D01*
X12213039Y-6810174D02*
X12222563Y-6800650D01*
X12222563Y-6800650D02*
X12241611Y-6772079D01*
X12241611Y-6772079D02*
X12251134Y-6753031D01*
X12251134Y-6753031D02*
X12260658Y-6724460D01*
X12260658Y-6724460D02*
X12270182Y-6676841D01*
X12270182Y-6676841D02*
X12270182Y-6638746D01*
X12270182Y-6638746D02*
X12260658Y-6591127D01*
X12260658Y-6591127D02*
X12251134Y-6562555D01*
X12251134Y-6562555D02*
X12241611Y-6543508D01*
X12241611Y-6543508D02*
X12222563Y-6514936D01*
X12222563Y-6514936D02*
X12213039Y-6505412D01*
D12*
X7247500Y-6906500D02*
G75*
G02*
X7217500Y-6906500I-15000J0D01*
G01*
X7217500Y-6906500D02*
G75*
G02*
X7247500Y-6906500I15000J0D01*
G01*
D11*
X7546372Y-6797984D02*
X7565420Y-6797984D01*
X7565420Y-6797984D02*
X7584467Y-6807508D01*
X7584467Y-6807508D02*
X7593991Y-6817031D01*
X7593991Y-6817031D02*
X7603515Y-6836079D01*
X7603515Y-6836079D02*
X7613039Y-6874174D01*
X7613039Y-6874174D02*
X7613039Y-6921793D01*
X7613039Y-6921793D02*
X7603515Y-6959888D01*
X7603515Y-6959888D02*
X7593991Y-6978936D01*
X7593991Y-6978936D02*
X7584467Y-6988460D01*
X7584467Y-6988460D02*
X7565420Y-6997984D01*
X7565420Y-6997984D02*
X7546372Y-6997984D01*
X7546372Y-6997984D02*
X7527324Y-6988460D01*
X7527324Y-6988460D02*
X7517801Y-6978936D01*
X7517801Y-6978936D02*
X7508277Y-6959888D01*
X7508277Y-6959888D02*
X7498753Y-6921793D01*
X7498753Y-6921793D02*
X7498753Y-6874174D01*
X7498753Y-6874174D02*
X7508277Y-6836079D01*
X7508277Y-6836079D02*
X7517801Y-6817031D01*
X7517801Y-6817031D02*
X7527324Y-6807508D01*
X7527324Y-6807508D02*
X7546372Y-6797984D01*
X7698753Y-6978936D02*
X7708277Y-6988460D01*
X7708277Y-6988460D02*
X7698753Y-6997984D01*
X7698753Y-6997984D02*
X7689229Y-6988460D01*
X7689229Y-6988460D02*
X7698753Y-6978936D01*
X7698753Y-6978936D02*
X7698753Y-6997984D01*
X7774943Y-6797984D02*
X7898753Y-6797984D01*
X7898753Y-6797984D02*
X7832086Y-6874174D01*
X7832086Y-6874174D02*
X7860658Y-6874174D01*
X7860658Y-6874174D02*
X7879705Y-6883698D01*
X7879705Y-6883698D02*
X7889229Y-6893222D01*
X7889229Y-6893222D02*
X7898753Y-6912269D01*
X7898753Y-6912269D02*
X7898753Y-6959888D01*
X7898753Y-6959888D02*
X7889229Y-6978936D01*
X7889229Y-6978936D02*
X7879705Y-6988460D01*
X7879705Y-6988460D02*
X7860658Y-6997984D01*
X7860658Y-6997984D02*
X7803515Y-6997984D01*
X7803515Y-6997984D02*
X7784467Y-6988460D01*
X7784467Y-6988460D02*
X7774943Y-6978936D01*
X8022562Y-6797984D02*
X8041610Y-6797984D01*
X8041610Y-6797984D02*
X8060658Y-6807508D01*
X8060658Y-6807508D02*
X8070182Y-6817031D01*
X8070182Y-6817031D02*
X8079705Y-6836079D01*
X8079705Y-6836079D02*
X8089229Y-6874174D01*
X8089229Y-6874174D02*
X8089229Y-6921793D01*
X8089229Y-6921793D02*
X8079705Y-6959888D01*
X8079705Y-6959888D02*
X8070182Y-6978936D01*
X8070182Y-6978936D02*
X8060658Y-6988460D01*
X8060658Y-6988460D02*
X8041610Y-6997984D01*
X8041610Y-6997984D02*
X8022562Y-6997984D01*
X8022562Y-6997984D02*
X8003515Y-6988460D01*
X8003515Y-6988460D02*
X7993991Y-6978936D01*
X7993991Y-6978936D02*
X7984467Y-6959888D01*
X7984467Y-6959888D02*
X7974943Y-6921793D01*
X7974943Y-6921793D02*
X7974943Y-6874174D01*
X7974943Y-6874174D02*
X7984467Y-6836079D01*
X7984467Y-6836079D02*
X7993991Y-6817031D01*
X7993991Y-6817031D02*
X8003515Y-6807508D01*
X8003515Y-6807508D02*
X8022562Y-6797984D01*
X8213039Y-6797984D02*
X8232086Y-6797984D01*
X8232086Y-6797984D02*
X8251134Y-6807508D01*
X8251134Y-6807508D02*
X8260658Y-6817031D01*
X8260658Y-6817031D02*
X8270182Y-6836079D01*
X8270182Y-6836079D02*
X8279705Y-6874174D01*
X8279705Y-6874174D02*
X8279705Y-6921793D01*
X8279705Y-6921793D02*
X8270182Y-6959888D01*
X8270182Y-6959888D02*
X8260658Y-6978936D01*
X8260658Y-6978936D02*
X8251134Y-6988460D01*
X8251134Y-6988460D02*
X8232086Y-6997984D01*
X8232086Y-6997984D02*
X8213039Y-6997984D01*
X8213039Y-6997984D02*
X8193991Y-6988460D01*
X8193991Y-6988460D02*
X8184467Y-6978936D01*
X8184467Y-6978936D02*
X8174943Y-6959888D01*
X8174943Y-6959888D02*
X8165420Y-6921793D01*
X8165420Y-6921793D02*
X8165420Y-6874174D01*
X8165420Y-6874174D02*
X8174943Y-6836079D01*
X8174943Y-6836079D02*
X8184467Y-6817031D01*
X8184467Y-6817031D02*
X8193991Y-6807508D01*
X8193991Y-6807508D02*
X8213039Y-6797984D01*
X8365420Y-6997984D02*
X8365420Y-6864650D01*
X8365420Y-6883698D02*
X8374943Y-6874174D01*
X8374943Y-6874174D02*
X8393991Y-6864650D01*
X8393991Y-6864650D02*
X8422563Y-6864650D01*
X8422563Y-6864650D02*
X8441610Y-6874174D01*
X8441610Y-6874174D02*
X8451134Y-6893222D01*
X8451134Y-6893222D02*
X8451134Y-6997984D01*
X8451134Y-6893222D02*
X8460658Y-6874174D01*
X8460658Y-6874174D02*
X8479705Y-6864650D01*
X8479705Y-6864650D02*
X8508277Y-6864650D01*
X8508277Y-6864650D02*
X8527325Y-6874174D01*
X8527325Y-6874174D02*
X8536848Y-6893222D01*
X8536848Y-6893222D02*
X8536848Y-6997984D01*
X8632086Y-6997984D02*
X8632086Y-6864650D01*
X8632086Y-6883698D02*
X8641610Y-6874174D01*
X8641610Y-6874174D02*
X8660658Y-6864650D01*
X8660658Y-6864650D02*
X8689229Y-6864650D01*
X8689229Y-6864650D02*
X8708277Y-6874174D01*
X8708277Y-6874174D02*
X8717801Y-6893222D01*
X8717801Y-6893222D02*
X8717801Y-6997984D01*
X8717801Y-6893222D02*
X8727325Y-6874174D01*
X8727325Y-6874174D02*
X8746372Y-6864650D01*
X8746372Y-6864650D02*
X8774944Y-6864650D01*
X8774944Y-6864650D02*
X8793991Y-6874174D01*
X8793991Y-6874174D02*
X8803515Y-6893222D01*
X8803515Y-6893222D02*
X8803515Y-6997984D01*
X9193991Y-6788460D02*
X9022563Y-7045603D01*
X9451134Y-6797984D02*
X9470182Y-6797984D01*
X9470182Y-6797984D02*
X9489229Y-6807508D01*
X9489229Y-6807508D02*
X9498753Y-6817031D01*
X9498753Y-6817031D02*
X9508277Y-6836079D01*
X9508277Y-6836079D02*
X9517801Y-6874174D01*
X9517801Y-6874174D02*
X9517801Y-6921793D01*
X9517801Y-6921793D02*
X9508277Y-6959888D01*
X9508277Y-6959888D02*
X9498753Y-6978936D01*
X9498753Y-6978936D02*
X9489229Y-6988460D01*
X9489229Y-6988460D02*
X9470182Y-6997984D01*
X9470182Y-6997984D02*
X9451134Y-6997984D01*
X9451134Y-6997984D02*
X9432087Y-6988460D01*
X9432087Y-6988460D02*
X9422563Y-6978936D01*
X9422563Y-6978936D02*
X9413039Y-6959888D01*
X9413039Y-6959888D02*
X9403515Y-6921793D01*
X9403515Y-6921793D02*
X9403515Y-6874174D01*
X9403515Y-6874174D02*
X9413039Y-6836079D01*
X9413039Y-6836079D02*
X9422563Y-6817031D01*
X9422563Y-6817031D02*
X9432087Y-6807508D01*
X9432087Y-6807508D02*
X9451134Y-6797984D01*
X9603515Y-6978936D02*
X9613039Y-6988460D01*
X9613039Y-6988460D02*
X9603515Y-6997984D01*
X9603515Y-6997984D02*
X9593991Y-6988460D01*
X9593991Y-6988460D02*
X9603515Y-6978936D01*
X9603515Y-6978936D02*
X9603515Y-6997984D01*
X9736848Y-6797984D02*
X9755896Y-6797984D01*
X9755896Y-6797984D02*
X9774944Y-6807508D01*
X9774944Y-6807508D02*
X9784468Y-6817031D01*
X9784468Y-6817031D02*
X9793991Y-6836079D01*
X9793991Y-6836079D02*
X9803515Y-6874174D01*
X9803515Y-6874174D02*
X9803515Y-6921793D01*
X9803515Y-6921793D02*
X9793991Y-6959888D01*
X9793991Y-6959888D02*
X9784468Y-6978936D01*
X9784468Y-6978936D02*
X9774944Y-6988460D01*
X9774944Y-6988460D02*
X9755896Y-6997984D01*
X9755896Y-6997984D02*
X9736848Y-6997984D01*
X9736848Y-6997984D02*
X9717801Y-6988460D01*
X9717801Y-6988460D02*
X9708277Y-6978936D01*
X9708277Y-6978936D02*
X9698753Y-6959888D01*
X9698753Y-6959888D02*
X9689229Y-6921793D01*
X9689229Y-6921793D02*
X9689229Y-6874174D01*
X9689229Y-6874174D02*
X9698753Y-6836079D01*
X9698753Y-6836079D02*
X9708277Y-6817031D01*
X9708277Y-6817031D02*
X9717801Y-6807508D01*
X9717801Y-6807508D02*
X9736848Y-6797984D01*
X9993991Y-6997984D02*
X9879706Y-6997984D01*
X9936848Y-6997984D02*
X9936848Y-6797984D01*
X9936848Y-6797984D02*
X9917801Y-6826555D01*
X9917801Y-6826555D02*
X9898753Y-6845603D01*
X9898753Y-6845603D02*
X9879706Y-6855127D01*
X10184468Y-6997984D02*
X10070182Y-6997984D01*
X10127325Y-6997984D02*
X10127325Y-6797984D01*
X10127325Y-6797984D02*
X10108277Y-6826555D01*
X10108277Y-6826555D02*
X10089229Y-6845603D01*
X10089229Y-6845603D02*
X10070182Y-6855127D01*
X10298753Y-6883698D02*
X10279706Y-6874174D01*
X10279706Y-6874174D02*
X10270182Y-6864650D01*
X10270182Y-6864650D02*
X10260658Y-6845603D01*
X10260658Y-6845603D02*
X10260658Y-6836079D01*
X10260658Y-6836079D02*
X10270182Y-6817031D01*
X10270182Y-6817031D02*
X10279706Y-6807508D01*
X10279706Y-6807508D02*
X10298753Y-6797984D01*
X10298753Y-6797984D02*
X10336849Y-6797984D01*
X10336849Y-6797984D02*
X10355896Y-6807508D01*
X10355896Y-6807508D02*
X10365420Y-6817031D01*
X10365420Y-6817031D02*
X10374944Y-6836079D01*
X10374944Y-6836079D02*
X10374944Y-6845603D01*
X10374944Y-6845603D02*
X10365420Y-6864650D01*
X10365420Y-6864650D02*
X10355896Y-6874174D01*
X10355896Y-6874174D02*
X10336849Y-6883698D01*
X10336849Y-6883698D02*
X10298753Y-6883698D01*
X10298753Y-6883698D02*
X10279706Y-6893222D01*
X10279706Y-6893222D02*
X10270182Y-6902746D01*
X10270182Y-6902746D02*
X10260658Y-6921793D01*
X10260658Y-6921793D02*
X10260658Y-6959888D01*
X10260658Y-6959888D02*
X10270182Y-6978936D01*
X10270182Y-6978936D02*
X10279706Y-6988460D01*
X10279706Y-6988460D02*
X10298753Y-6997984D01*
X10298753Y-6997984D02*
X10336849Y-6997984D01*
X10336849Y-6997984D02*
X10355896Y-6988460D01*
X10355896Y-6988460D02*
X10365420Y-6978936D01*
X10365420Y-6978936D02*
X10374944Y-6959888D01*
X10374944Y-6959888D02*
X10374944Y-6921793D01*
X10374944Y-6921793D02*
X10365420Y-6902746D01*
X10365420Y-6902746D02*
X10355896Y-6893222D01*
X10355896Y-6893222D02*
X10336849Y-6883698D01*
X10451134Y-6797984D02*
X10451134Y-6836079D01*
X10527325Y-6797984D02*
X10527325Y-6836079D01*
X10822563Y-7074174D02*
X10813039Y-7064650D01*
X10813039Y-7064650D02*
X10793991Y-7036079D01*
X10793991Y-7036079D02*
X10784468Y-7017031D01*
X10784468Y-7017031D02*
X10774944Y-6988460D01*
X10774944Y-6988460D02*
X10765420Y-6940841D01*
X10765420Y-6940841D02*
X10765420Y-6902746D01*
X10765420Y-6902746D02*
X10774944Y-6855127D01*
X10774944Y-6855127D02*
X10784468Y-6826555D01*
X10784468Y-6826555D02*
X10793991Y-6807508D01*
X10793991Y-6807508D02*
X10813039Y-6778936D01*
X10813039Y-6778936D02*
X10822563Y-6769412D01*
X10984468Y-6864650D02*
X10984468Y-6997984D01*
X10936849Y-6788460D02*
X10889230Y-6931317D01*
X10889230Y-6931317D02*
X11013039Y-6931317D01*
X11098753Y-6997984D02*
X11136849Y-6997984D01*
X11136849Y-6997984D02*
X11155896Y-6988460D01*
X11155896Y-6988460D02*
X11165420Y-6978936D01*
X11165420Y-6978936D02*
X11184468Y-6950365D01*
X11184468Y-6950365D02*
X11193991Y-6912269D01*
X11193991Y-6912269D02*
X11193991Y-6836079D01*
X11193991Y-6836079D02*
X11184468Y-6817031D01*
X11184468Y-6817031D02*
X11174944Y-6807508D01*
X11174944Y-6807508D02*
X11155896Y-6797984D01*
X11155896Y-6797984D02*
X11117801Y-6797984D01*
X11117801Y-6797984D02*
X11098753Y-6807508D01*
X11098753Y-6807508D02*
X11089230Y-6817031D01*
X11089230Y-6817031D02*
X11079706Y-6836079D01*
X11079706Y-6836079D02*
X11079706Y-6883698D01*
X11079706Y-6883698D02*
X11089230Y-6902746D01*
X11089230Y-6902746D02*
X11098753Y-6912269D01*
X11098753Y-6912269D02*
X11117801Y-6921793D01*
X11117801Y-6921793D02*
X11155896Y-6921793D01*
X11155896Y-6921793D02*
X11174944Y-6912269D01*
X11174944Y-6912269D02*
X11184468Y-6902746D01*
X11184468Y-6902746D02*
X11193991Y-6883698D01*
X11432087Y-6997984D02*
X11432087Y-6797984D01*
X11517801Y-6997984D02*
X11517801Y-6893222D01*
X11517801Y-6893222D02*
X11508277Y-6874174D01*
X11508277Y-6874174D02*
X11489230Y-6864650D01*
X11489230Y-6864650D02*
X11460658Y-6864650D01*
X11460658Y-6864650D02*
X11441610Y-6874174D01*
X11441610Y-6874174D02*
X11432087Y-6883698D01*
X11641610Y-6997984D02*
X11622563Y-6988460D01*
X11622563Y-6988460D02*
X11613039Y-6978936D01*
X11613039Y-6978936D02*
X11603515Y-6959888D01*
X11603515Y-6959888D02*
X11603515Y-6902746D01*
X11603515Y-6902746D02*
X11613039Y-6883698D01*
X11613039Y-6883698D02*
X11622563Y-6874174D01*
X11622563Y-6874174D02*
X11641610Y-6864650D01*
X11641610Y-6864650D02*
X11670182Y-6864650D01*
X11670182Y-6864650D02*
X11689230Y-6874174D01*
X11689230Y-6874174D02*
X11698753Y-6883698D01*
X11698753Y-6883698D02*
X11708277Y-6902746D01*
X11708277Y-6902746D02*
X11708277Y-6959888D01*
X11708277Y-6959888D02*
X11698753Y-6978936D01*
X11698753Y-6978936D02*
X11689230Y-6988460D01*
X11689230Y-6988460D02*
X11670182Y-6997984D01*
X11670182Y-6997984D02*
X11641610Y-6997984D01*
X11822563Y-6997984D02*
X11803515Y-6988460D01*
X11803515Y-6988460D02*
X11793991Y-6969412D01*
X11793991Y-6969412D02*
X11793991Y-6797984D01*
X11974944Y-6988460D02*
X11955896Y-6997984D01*
X11955896Y-6997984D02*
X11917801Y-6997984D01*
X11917801Y-6997984D02*
X11898753Y-6988460D01*
X11898753Y-6988460D02*
X11889230Y-6969412D01*
X11889230Y-6969412D02*
X11889230Y-6893222D01*
X11889230Y-6893222D02*
X11898753Y-6874174D01*
X11898753Y-6874174D02*
X11917801Y-6864650D01*
X11917801Y-6864650D02*
X11955896Y-6864650D01*
X11955896Y-6864650D02*
X11974944Y-6874174D01*
X11974944Y-6874174D02*
X11984468Y-6893222D01*
X11984468Y-6893222D02*
X11984468Y-6912269D01*
X11984468Y-6912269D02*
X11889230Y-6931317D01*
X12060658Y-6988460D02*
X12079706Y-6997984D01*
X12079706Y-6997984D02*
X12117801Y-6997984D01*
X12117801Y-6997984D02*
X12136849Y-6988460D01*
X12136849Y-6988460D02*
X12146372Y-6969412D01*
X12146372Y-6969412D02*
X12146372Y-6959888D01*
X12146372Y-6959888D02*
X12136849Y-6940841D01*
X12136849Y-6940841D02*
X12117801Y-6931317D01*
X12117801Y-6931317D02*
X12089230Y-6931317D01*
X12089230Y-6931317D02*
X12070182Y-6921793D01*
X12070182Y-6921793D02*
X12060658Y-6902746D01*
X12060658Y-6902746D02*
X12060658Y-6893222D01*
X12060658Y-6893222D02*
X12070182Y-6874174D01*
X12070182Y-6874174D02*
X12089230Y-6864650D01*
X12089230Y-6864650D02*
X12117801Y-6864650D01*
X12117801Y-6864650D02*
X12136849Y-6874174D01*
X12213039Y-7074174D02*
X12222563Y-7064650D01*
X12222563Y-7064650D02*
X12241611Y-7036079D01*
X12241611Y-7036079D02*
X12251134Y-7017031D01*
X12251134Y-7017031D02*
X12260658Y-6988460D01*
X12260658Y-6988460D02*
X12270182Y-6940841D01*
X12270182Y-6940841D02*
X12270182Y-6902746D01*
X12270182Y-6902746D02*
X12260658Y-6855127D01*
X12260658Y-6855127D02*
X12251134Y-6826555D01*
X12251134Y-6826555D02*
X12241611Y-6807508D01*
X12241611Y-6807508D02*
X12222563Y-6778936D01*
X12222563Y-6778936D02*
X12213039Y-6769412D01*
D12*
X7217500Y-7140500D02*
X7217500Y-7200500D01*
X7187500Y-7170500D02*
X7247500Y-7170500D01*
D11*
X7546372Y-7061984D02*
X7565420Y-7061984D01*
X7565420Y-7061984D02*
X7584467Y-7071508D01*
X7584467Y-7071508D02*
X7593991Y-7081031D01*
X7593991Y-7081031D02*
X7603515Y-7100079D01*
X7603515Y-7100079D02*
X7613039Y-7138174D01*
X7613039Y-7138174D02*
X7613039Y-7185793D01*
X7613039Y-7185793D02*
X7603515Y-7223888D01*
X7603515Y-7223888D02*
X7593991Y-7242936D01*
X7593991Y-7242936D02*
X7584467Y-7252460D01*
X7584467Y-7252460D02*
X7565420Y-7261984D01*
X7565420Y-7261984D02*
X7546372Y-7261984D01*
X7546372Y-7261984D02*
X7527324Y-7252460D01*
X7527324Y-7252460D02*
X7517801Y-7242936D01*
X7517801Y-7242936D02*
X7508277Y-7223888D01*
X7508277Y-7223888D02*
X7498753Y-7185793D01*
X7498753Y-7185793D02*
X7498753Y-7138174D01*
X7498753Y-7138174D02*
X7508277Y-7100079D01*
X7508277Y-7100079D02*
X7517801Y-7081031D01*
X7517801Y-7081031D02*
X7527324Y-7071508D01*
X7527324Y-7071508D02*
X7546372Y-7061984D01*
X7698753Y-7242936D02*
X7708277Y-7252460D01*
X7708277Y-7252460D02*
X7698753Y-7261984D01*
X7698753Y-7261984D02*
X7689229Y-7252460D01*
X7689229Y-7252460D02*
X7698753Y-7242936D01*
X7698753Y-7242936D02*
X7698753Y-7261984D01*
X7879705Y-7061984D02*
X7841610Y-7061984D01*
X7841610Y-7061984D02*
X7822562Y-7071508D01*
X7822562Y-7071508D02*
X7813039Y-7081031D01*
X7813039Y-7081031D02*
X7793991Y-7109603D01*
X7793991Y-7109603D02*
X7784467Y-7147698D01*
X7784467Y-7147698D02*
X7784467Y-7223888D01*
X7784467Y-7223888D02*
X7793991Y-7242936D01*
X7793991Y-7242936D02*
X7803515Y-7252460D01*
X7803515Y-7252460D02*
X7822562Y-7261984D01*
X7822562Y-7261984D02*
X7860658Y-7261984D01*
X7860658Y-7261984D02*
X7879705Y-7252460D01*
X7879705Y-7252460D02*
X7889229Y-7242936D01*
X7889229Y-7242936D02*
X7898753Y-7223888D01*
X7898753Y-7223888D02*
X7898753Y-7176269D01*
X7898753Y-7176269D02*
X7889229Y-7157222D01*
X7889229Y-7157222D02*
X7879705Y-7147698D01*
X7879705Y-7147698D02*
X7860658Y-7138174D01*
X7860658Y-7138174D02*
X7822562Y-7138174D01*
X7822562Y-7138174D02*
X7803515Y-7147698D01*
X7803515Y-7147698D02*
X7793991Y-7157222D01*
X7793991Y-7157222D02*
X7784467Y-7176269D01*
X8022562Y-7061984D02*
X8041610Y-7061984D01*
X8041610Y-7061984D02*
X8060658Y-7071508D01*
X8060658Y-7071508D02*
X8070182Y-7081031D01*
X8070182Y-7081031D02*
X8079705Y-7100079D01*
X8079705Y-7100079D02*
X8089229Y-7138174D01*
X8089229Y-7138174D02*
X8089229Y-7185793D01*
X8089229Y-7185793D02*
X8079705Y-7223888D01*
X8079705Y-7223888D02*
X8070182Y-7242936D01*
X8070182Y-7242936D02*
X8060658Y-7252460D01*
X8060658Y-7252460D02*
X8041610Y-7261984D01*
X8041610Y-7261984D02*
X8022562Y-7261984D01*
X8022562Y-7261984D02*
X8003515Y-7252460D01*
X8003515Y-7252460D02*
X7993991Y-7242936D01*
X7993991Y-7242936D02*
X7984467Y-7223888D01*
X7984467Y-7223888D02*
X7974943Y-7185793D01*
X7974943Y-7185793D02*
X7974943Y-7138174D01*
X7974943Y-7138174D02*
X7984467Y-7100079D01*
X7984467Y-7100079D02*
X7993991Y-7081031D01*
X7993991Y-7081031D02*
X8003515Y-7071508D01*
X8003515Y-7071508D02*
X8022562Y-7061984D01*
X8213039Y-7061984D02*
X8232086Y-7061984D01*
X8232086Y-7061984D02*
X8251134Y-7071508D01*
X8251134Y-7071508D02*
X8260658Y-7081031D01*
X8260658Y-7081031D02*
X8270182Y-7100079D01*
X8270182Y-7100079D02*
X8279705Y-7138174D01*
X8279705Y-7138174D02*
X8279705Y-7185793D01*
X8279705Y-7185793D02*
X8270182Y-7223888D01*
X8270182Y-7223888D02*
X8260658Y-7242936D01*
X8260658Y-7242936D02*
X8251134Y-7252460D01*
X8251134Y-7252460D02*
X8232086Y-7261984D01*
X8232086Y-7261984D02*
X8213039Y-7261984D01*
X8213039Y-7261984D02*
X8193991Y-7252460D01*
X8193991Y-7252460D02*
X8184467Y-7242936D01*
X8184467Y-7242936D02*
X8174943Y-7223888D01*
X8174943Y-7223888D02*
X8165420Y-7185793D01*
X8165420Y-7185793D02*
X8165420Y-7138174D01*
X8165420Y-7138174D02*
X8174943Y-7100079D01*
X8174943Y-7100079D02*
X8184467Y-7081031D01*
X8184467Y-7081031D02*
X8193991Y-7071508D01*
X8193991Y-7071508D02*
X8213039Y-7061984D01*
X8365420Y-7261984D02*
X8365420Y-7128650D01*
X8365420Y-7147698D02*
X8374943Y-7138174D01*
X8374943Y-7138174D02*
X8393991Y-7128650D01*
X8393991Y-7128650D02*
X8422563Y-7128650D01*
X8422563Y-7128650D02*
X8441610Y-7138174D01*
X8441610Y-7138174D02*
X8451134Y-7157222D01*
X8451134Y-7157222D02*
X8451134Y-7261984D01*
X8451134Y-7157222D02*
X8460658Y-7138174D01*
X8460658Y-7138174D02*
X8479705Y-7128650D01*
X8479705Y-7128650D02*
X8508277Y-7128650D01*
X8508277Y-7128650D02*
X8527325Y-7138174D01*
X8527325Y-7138174D02*
X8536848Y-7157222D01*
X8536848Y-7157222D02*
X8536848Y-7261984D01*
X8632086Y-7261984D02*
X8632086Y-7128650D01*
X8632086Y-7147698D02*
X8641610Y-7138174D01*
X8641610Y-7138174D02*
X8660658Y-7128650D01*
X8660658Y-7128650D02*
X8689229Y-7128650D01*
X8689229Y-7128650D02*
X8708277Y-7138174D01*
X8708277Y-7138174D02*
X8717801Y-7157222D01*
X8717801Y-7157222D02*
X8717801Y-7261984D01*
X8717801Y-7157222D02*
X8727325Y-7138174D01*
X8727325Y-7138174D02*
X8746372Y-7128650D01*
X8746372Y-7128650D02*
X8774944Y-7128650D01*
X8774944Y-7128650D02*
X8793991Y-7138174D01*
X8793991Y-7138174D02*
X8803515Y-7157222D01*
X8803515Y-7157222D02*
X8803515Y-7261984D01*
X9193991Y-7052460D02*
X9022563Y-7309603D01*
X9451134Y-7061984D02*
X9470182Y-7061984D01*
X9470182Y-7061984D02*
X9489229Y-7071508D01*
X9489229Y-7071508D02*
X9498753Y-7081031D01*
X9498753Y-7081031D02*
X9508277Y-7100079D01*
X9508277Y-7100079D02*
X9517801Y-7138174D01*
X9517801Y-7138174D02*
X9517801Y-7185793D01*
X9517801Y-7185793D02*
X9508277Y-7223888D01*
X9508277Y-7223888D02*
X9498753Y-7242936D01*
X9498753Y-7242936D02*
X9489229Y-7252460D01*
X9489229Y-7252460D02*
X9470182Y-7261984D01*
X9470182Y-7261984D02*
X9451134Y-7261984D01*
X9451134Y-7261984D02*
X9432087Y-7252460D01*
X9432087Y-7252460D02*
X9422563Y-7242936D01*
X9422563Y-7242936D02*
X9413039Y-7223888D01*
X9413039Y-7223888D02*
X9403515Y-7185793D01*
X9403515Y-7185793D02*
X9403515Y-7138174D01*
X9403515Y-7138174D02*
X9413039Y-7100079D01*
X9413039Y-7100079D02*
X9422563Y-7081031D01*
X9422563Y-7081031D02*
X9432087Y-7071508D01*
X9432087Y-7071508D02*
X9451134Y-7061984D01*
X9603515Y-7242936D02*
X9613039Y-7252460D01*
X9613039Y-7252460D02*
X9603515Y-7261984D01*
X9603515Y-7261984D02*
X9593991Y-7252460D01*
X9593991Y-7252460D02*
X9603515Y-7242936D01*
X9603515Y-7242936D02*
X9603515Y-7261984D01*
X9736848Y-7061984D02*
X9755896Y-7061984D01*
X9755896Y-7061984D02*
X9774944Y-7071508D01*
X9774944Y-7071508D02*
X9784468Y-7081031D01*
X9784468Y-7081031D02*
X9793991Y-7100079D01*
X9793991Y-7100079D02*
X9803515Y-7138174D01*
X9803515Y-7138174D02*
X9803515Y-7185793D01*
X9803515Y-7185793D02*
X9793991Y-7223888D01*
X9793991Y-7223888D02*
X9784468Y-7242936D01*
X9784468Y-7242936D02*
X9774944Y-7252460D01*
X9774944Y-7252460D02*
X9755896Y-7261984D01*
X9755896Y-7261984D02*
X9736848Y-7261984D01*
X9736848Y-7261984D02*
X9717801Y-7252460D01*
X9717801Y-7252460D02*
X9708277Y-7242936D01*
X9708277Y-7242936D02*
X9698753Y-7223888D01*
X9698753Y-7223888D02*
X9689229Y-7185793D01*
X9689229Y-7185793D02*
X9689229Y-7138174D01*
X9689229Y-7138174D02*
X9698753Y-7100079D01*
X9698753Y-7100079D02*
X9708277Y-7081031D01*
X9708277Y-7081031D02*
X9717801Y-7071508D01*
X9717801Y-7071508D02*
X9736848Y-7061984D01*
X9879706Y-7081031D02*
X9889229Y-7071508D01*
X9889229Y-7071508D02*
X9908277Y-7061984D01*
X9908277Y-7061984D02*
X9955896Y-7061984D01*
X9955896Y-7061984D02*
X9974944Y-7071508D01*
X9974944Y-7071508D02*
X9984468Y-7081031D01*
X9984468Y-7081031D02*
X9993991Y-7100079D01*
X9993991Y-7100079D02*
X9993991Y-7119127D01*
X9993991Y-7119127D02*
X9984468Y-7147698D01*
X9984468Y-7147698D02*
X9870182Y-7261984D01*
X9870182Y-7261984D02*
X9993991Y-7261984D01*
X10060658Y-7061984D02*
X10184468Y-7061984D01*
X10184468Y-7061984D02*
X10117801Y-7138174D01*
X10117801Y-7138174D02*
X10146372Y-7138174D01*
X10146372Y-7138174D02*
X10165420Y-7147698D01*
X10165420Y-7147698D02*
X10174944Y-7157222D01*
X10174944Y-7157222D02*
X10184468Y-7176269D01*
X10184468Y-7176269D02*
X10184468Y-7223888D01*
X10184468Y-7223888D02*
X10174944Y-7242936D01*
X10174944Y-7242936D02*
X10165420Y-7252460D01*
X10165420Y-7252460D02*
X10146372Y-7261984D01*
X10146372Y-7261984D02*
X10089229Y-7261984D01*
X10089229Y-7261984D02*
X10070182Y-7252460D01*
X10070182Y-7252460D02*
X10060658Y-7242936D01*
X10355896Y-7061984D02*
X10317801Y-7061984D01*
X10317801Y-7061984D02*
X10298753Y-7071508D01*
X10298753Y-7071508D02*
X10289229Y-7081031D01*
X10289229Y-7081031D02*
X10270182Y-7109603D01*
X10270182Y-7109603D02*
X10260658Y-7147698D01*
X10260658Y-7147698D02*
X10260658Y-7223888D01*
X10260658Y-7223888D02*
X10270182Y-7242936D01*
X10270182Y-7242936D02*
X10279706Y-7252460D01*
X10279706Y-7252460D02*
X10298753Y-7261984D01*
X10298753Y-7261984D02*
X10336849Y-7261984D01*
X10336849Y-7261984D02*
X10355896Y-7252460D01*
X10355896Y-7252460D02*
X10365420Y-7242936D01*
X10365420Y-7242936D02*
X10374944Y-7223888D01*
X10374944Y-7223888D02*
X10374944Y-7176269D01*
X10374944Y-7176269D02*
X10365420Y-7157222D01*
X10365420Y-7157222D02*
X10355896Y-7147698D01*
X10355896Y-7147698D02*
X10336849Y-7138174D01*
X10336849Y-7138174D02*
X10298753Y-7138174D01*
X10298753Y-7138174D02*
X10279706Y-7147698D01*
X10279706Y-7147698D02*
X10270182Y-7157222D01*
X10270182Y-7157222D02*
X10260658Y-7176269D01*
X10451134Y-7061984D02*
X10451134Y-7100079D01*
X10527325Y-7061984D02*
X10527325Y-7100079D01*
X10822563Y-7338174D02*
X10813039Y-7328650D01*
X10813039Y-7328650D02*
X10793991Y-7300079D01*
X10793991Y-7300079D02*
X10784468Y-7281031D01*
X10784468Y-7281031D02*
X10774944Y-7252460D01*
X10774944Y-7252460D02*
X10765420Y-7204841D01*
X10765420Y-7204841D02*
X10765420Y-7166746D01*
X10765420Y-7166746D02*
X10774944Y-7119127D01*
X10774944Y-7119127D02*
X10784468Y-7090555D01*
X10784468Y-7090555D02*
X10793991Y-7071508D01*
X10793991Y-7071508D02*
X10813039Y-7042936D01*
X10813039Y-7042936D02*
X10822563Y-7033412D01*
X10936849Y-7061984D02*
X10955896Y-7061984D01*
X10955896Y-7061984D02*
X10974944Y-7071508D01*
X10974944Y-7071508D02*
X10984468Y-7081031D01*
X10984468Y-7081031D02*
X10993991Y-7100079D01*
X10993991Y-7100079D02*
X11003515Y-7138174D01*
X11003515Y-7138174D02*
X11003515Y-7185793D01*
X11003515Y-7185793D02*
X10993991Y-7223888D01*
X10993991Y-7223888D02*
X10984468Y-7242936D01*
X10984468Y-7242936D02*
X10974944Y-7252460D01*
X10974944Y-7252460D02*
X10955896Y-7261984D01*
X10955896Y-7261984D02*
X10936849Y-7261984D01*
X10936849Y-7261984D02*
X10917801Y-7252460D01*
X10917801Y-7252460D02*
X10908277Y-7242936D01*
X10908277Y-7242936D02*
X10898753Y-7223888D01*
X10898753Y-7223888D02*
X10889230Y-7185793D01*
X10889230Y-7185793D02*
X10889230Y-7138174D01*
X10889230Y-7138174D02*
X10898753Y-7100079D01*
X10898753Y-7100079D02*
X10908277Y-7081031D01*
X10908277Y-7081031D02*
X10917801Y-7071508D01*
X10917801Y-7071508D02*
X10936849Y-7061984D01*
X11241610Y-7261984D02*
X11241610Y-7061984D01*
X11327325Y-7261984D02*
X11327325Y-7157222D01*
X11327325Y-7157222D02*
X11317801Y-7138174D01*
X11317801Y-7138174D02*
X11298753Y-7128650D01*
X11298753Y-7128650D02*
X11270182Y-7128650D01*
X11270182Y-7128650D02*
X11251134Y-7138174D01*
X11251134Y-7138174D02*
X11241610Y-7147698D01*
X11451134Y-7261984D02*
X11432087Y-7252460D01*
X11432087Y-7252460D02*
X11422563Y-7242936D01*
X11422563Y-7242936D02*
X11413039Y-7223888D01*
X11413039Y-7223888D02*
X11413039Y-7166746D01*
X11413039Y-7166746D02*
X11422563Y-7147698D01*
X11422563Y-7147698D02*
X11432087Y-7138174D01*
X11432087Y-7138174D02*
X11451134Y-7128650D01*
X11451134Y-7128650D02*
X11479706Y-7128650D01*
X11479706Y-7128650D02*
X11498753Y-7138174D01*
X11498753Y-7138174D02*
X11508277Y-7147698D01*
X11508277Y-7147698D02*
X11517801Y-7166746D01*
X11517801Y-7166746D02*
X11517801Y-7223888D01*
X11517801Y-7223888D02*
X11508277Y-7242936D01*
X11508277Y-7242936D02*
X11498753Y-7252460D01*
X11498753Y-7252460D02*
X11479706Y-7261984D01*
X11479706Y-7261984D02*
X11451134Y-7261984D01*
X11632087Y-7261984D02*
X11613039Y-7252460D01*
X11613039Y-7252460D02*
X11603515Y-7233412D01*
X11603515Y-7233412D02*
X11603515Y-7061984D01*
X11784468Y-7252460D02*
X11765420Y-7261984D01*
X11765420Y-7261984D02*
X11727325Y-7261984D01*
X11727325Y-7261984D02*
X11708277Y-7252460D01*
X11708277Y-7252460D02*
X11698753Y-7233412D01*
X11698753Y-7233412D02*
X11698753Y-7157222D01*
X11698753Y-7157222D02*
X11708277Y-7138174D01*
X11708277Y-7138174D02*
X11727325Y-7128650D01*
X11727325Y-7128650D02*
X11765420Y-7128650D01*
X11765420Y-7128650D02*
X11784468Y-7138174D01*
X11784468Y-7138174D02*
X11793991Y-7157222D01*
X11793991Y-7157222D02*
X11793991Y-7176269D01*
X11793991Y-7176269D02*
X11698753Y-7195317D01*
X11870182Y-7252460D02*
X11889230Y-7261984D01*
X11889230Y-7261984D02*
X11927325Y-7261984D01*
X11927325Y-7261984D02*
X11946372Y-7252460D01*
X11946372Y-7252460D02*
X11955896Y-7233412D01*
X11955896Y-7233412D02*
X11955896Y-7223888D01*
X11955896Y-7223888D02*
X11946372Y-7204841D01*
X11946372Y-7204841D02*
X11927325Y-7195317D01*
X11927325Y-7195317D02*
X11898753Y-7195317D01*
X11898753Y-7195317D02*
X11879706Y-7185793D01*
X11879706Y-7185793D02*
X11870182Y-7166746D01*
X11870182Y-7166746D02*
X11870182Y-7157222D01*
X11870182Y-7157222D02*
X11879706Y-7138174D01*
X11879706Y-7138174D02*
X11898753Y-7128650D01*
X11898753Y-7128650D02*
X11927325Y-7128650D01*
X11927325Y-7128650D02*
X11946372Y-7138174D01*
X12193992Y-7185793D02*
X12346373Y-7185793D01*
X12270182Y-7261984D02*
X12270182Y-7109603D01*
X12679706Y-7128650D02*
X12679706Y-7261984D01*
X12632087Y-7052460D02*
X12584468Y-7195317D01*
X12584468Y-7195317D02*
X12708277Y-7195317D01*
X12927325Y-7252460D02*
X12946373Y-7261984D01*
X12946373Y-7261984D02*
X12984468Y-7261984D01*
X12984468Y-7261984D02*
X13003515Y-7252460D01*
X13003515Y-7252460D02*
X13013039Y-7233412D01*
X13013039Y-7233412D02*
X13013039Y-7223888D01*
X13013039Y-7223888D02*
X13003515Y-7204841D01*
X13003515Y-7204841D02*
X12984468Y-7195317D01*
X12984468Y-7195317D02*
X12955896Y-7195317D01*
X12955896Y-7195317D02*
X12936849Y-7185793D01*
X12936849Y-7185793D02*
X12927325Y-7166746D01*
X12927325Y-7166746D02*
X12927325Y-7157222D01*
X12927325Y-7157222D02*
X12936849Y-7138174D01*
X12936849Y-7138174D02*
X12955896Y-7128650D01*
X12955896Y-7128650D02*
X12984468Y-7128650D01*
X12984468Y-7128650D02*
X13003515Y-7138174D01*
X13127325Y-7261984D02*
X13108277Y-7252460D01*
X13108277Y-7252460D02*
X13098754Y-7233412D01*
X13098754Y-7233412D02*
X13098754Y-7061984D01*
X13232087Y-7261984D02*
X13213039Y-7252460D01*
X13213039Y-7252460D02*
X13203515Y-7242936D01*
X13203515Y-7242936D02*
X13193992Y-7223888D01*
X13193992Y-7223888D02*
X13193992Y-7166746D01*
X13193992Y-7166746D02*
X13203515Y-7147698D01*
X13203515Y-7147698D02*
X13213039Y-7138174D01*
X13213039Y-7138174D02*
X13232087Y-7128650D01*
X13232087Y-7128650D02*
X13260658Y-7128650D01*
X13260658Y-7128650D02*
X13279706Y-7138174D01*
X13279706Y-7138174D02*
X13289230Y-7147698D01*
X13289230Y-7147698D02*
X13298754Y-7166746D01*
X13298754Y-7166746D02*
X13298754Y-7223888D01*
X13298754Y-7223888D02*
X13289230Y-7242936D01*
X13289230Y-7242936D02*
X13279706Y-7252460D01*
X13279706Y-7252460D02*
X13260658Y-7261984D01*
X13260658Y-7261984D02*
X13232087Y-7261984D01*
X13355896Y-7128650D02*
X13432087Y-7128650D01*
X13384468Y-7061984D02*
X13384468Y-7233412D01*
X13384468Y-7233412D02*
X13393992Y-7252460D01*
X13393992Y-7252460D02*
X13413039Y-7261984D01*
X13413039Y-7261984D02*
X13432087Y-7261984D01*
X13489230Y-7252460D02*
X13508277Y-7261984D01*
X13508277Y-7261984D02*
X13546373Y-7261984D01*
X13546373Y-7261984D02*
X13565420Y-7252460D01*
X13565420Y-7252460D02*
X13574944Y-7233412D01*
X13574944Y-7233412D02*
X13574944Y-7223888D01*
X13574944Y-7223888D02*
X13565420Y-7204841D01*
X13565420Y-7204841D02*
X13546373Y-7195317D01*
X13546373Y-7195317D02*
X13517801Y-7195317D01*
X13517801Y-7195317D02*
X13498754Y-7185793D01*
X13498754Y-7185793D02*
X13489230Y-7166746D01*
X13489230Y-7166746D02*
X13489230Y-7157222D01*
X13489230Y-7157222D02*
X13498754Y-7138174D01*
X13498754Y-7138174D02*
X13517801Y-7128650D01*
X13517801Y-7128650D02*
X13546373Y-7128650D01*
X13546373Y-7128650D02*
X13565420Y-7138174D01*
X13641611Y-7338174D02*
X13651135Y-7328650D01*
X13651135Y-7328650D02*
X13670182Y-7300079D01*
X13670182Y-7300079D02*
X13679706Y-7281031D01*
X13679706Y-7281031D02*
X13689230Y-7252460D01*
X13689230Y-7252460D02*
X13698754Y-7204841D01*
X13698754Y-7204841D02*
X13698754Y-7166746D01*
X13698754Y-7166746D02*
X13689230Y-7119127D01*
X13689230Y-7119127D02*
X13679706Y-7090555D01*
X13679706Y-7090555D02*
X13670182Y-7071508D01*
X13670182Y-7071508D02*
X13651135Y-7042936D01*
X13651135Y-7042936D02*
X13641611Y-7033412D01*
D12*
X7235784Y-7462784D02*
X7235784Y-7406215D01*
X7179215Y-7406215D01*
X7179215Y-7462784D01*
X7235784Y-7462784D01*
D11*
X7546372Y-7325984D02*
X7565420Y-7325984D01*
X7565420Y-7325984D02*
X7584467Y-7335508D01*
X7584467Y-7335508D02*
X7593991Y-7345031D01*
X7593991Y-7345031D02*
X7603515Y-7364079D01*
X7603515Y-7364079D02*
X7613039Y-7402174D01*
X7613039Y-7402174D02*
X7613039Y-7449793D01*
X7613039Y-7449793D02*
X7603515Y-7487888D01*
X7603515Y-7487888D02*
X7593991Y-7506936D01*
X7593991Y-7506936D02*
X7584467Y-7516460D01*
X7584467Y-7516460D02*
X7565420Y-7525984D01*
X7565420Y-7525984D02*
X7546372Y-7525984D01*
X7546372Y-7525984D02*
X7527324Y-7516460D01*
X7527324Y-7516460D02*
X7517801Y-7506936D01*
X7517801Y-7506936D02*
X7508277Y-7487888D01*
X7508277Y-7487888D02*
X7498753Y-7449793D01*
X7498753Y-7449793D02*
X7498753Y-7402174D01*
X7498753Y-7402174D02*
X7508277Y-7364079D01*
X7508277Y-7364079D02*
X7517801Y-7345031D01*
X7517801Y-7345031D02*
X7527324Y-7335508D01*
X7527324Y-7335508D02*
X7546372Y-7325984D01*
X7698753Y-7506936D02*
X7708277Y-7516460D01*
X7708277Y-7516460D02*
X7698753Y-7525984D01*
X7698753Y-7525984D02*
X7689229Y-7516460D01*
X7689229Y-7516460D02*
X7698753Y-7506936D01*
X7698753Y-7506936D02*
X7698753Y-7525984D01*
X7822562Y-7411698D02*
X7803515Y-7402174D01*
X7803515Y-7402174D02*
X7793991Y-7392650D01*
X7793991Y-7392650D02*
X7784467Y-7373603D01*
X7784467Y-7373603D02*
X7784467Y-7364079D01*
X7784467Y-7364079D02*
X7793991Y-7345031D01*
X7793991Y-7345031D02*
X7803515Y-7335508D01*
X7803515Y-7335508D02*
X7822562Y-7325984D01*
X7822562Y-7325984D02*
X7860658Y-7325984D01*
X7860658Y-7325984D02*
X7879705Y-7335508D01*
X7879705Y-7335508D02*
X7889229Y-7345031D01*
X7889229Y-7345031D02*
X7898753Y-7364079D01*
X7898753Y-7364079D02*
X7898753Y-7373603D01*
X7898753Y-7373603D02*
X7889229Y-7392650D01*
X7889229Y-7392650D02*
X7879705Y-7402174D01*
X7879705Y-7402174D02*
X7860658Y-7411698D01*
X7860658Y-7411698D02*
X7822562Y-7411698D01*
X7822562Y-7411698D02*
X7803515Y-7421222D01*
X7803515Y-7421222D02*
X7793991Y-7430746D01*
X7793991Y-7430746D02*
X7784467Y-7449793D01*
X7784467Y-7449793D02*
X7784467Y-7487888D01*
X7784467Y-7487888D02*
X7793991Y-7506936D01*
X7793991Y-7506936D02*
X7803515Y-7516460D01*
X7803515Y-7516460D02*
X7822562Y-7525984D01*
X7822562Y-7525984D02*
X7860658Y-7525984D01*
X7860658Y-7525984D02*
X7879705Y-7516460D01*
X7879705Y-7516460D02*
X7889229Y-7506936D01*
X7889229Y-7506936D02*
X7898753Y-7487888D01*
X7898753Y-7487888D02*
X7898753Y-7449793D01*
X7898753Y-7449793D02*
X7889229Y-7430746D01*
X7889229Y-7430746D02*
X7879705Y-7421222D01*
X7879705Y-7421222D02*
X7860658Y-7411698D01*
X8022562Y-7325984D02*
X8041610Y-7325984D01*
X8041610Y-7325984D02*
X8060658Y-7335508D01*
X8060658Y-7335508D02*
X8070182Y-7345031D01*
X8070182Y-7345031D02*
X8079705Y-7364079D01*
X8079705Y-7364079D02*
X8089229Y-7402174D01*
X8089229Y-7402174D02*
X8089229Y-7449793D01*
X8089229Y-7449793D02*
X8079705Y-7487888D01*
X8079705Y-7487888D02*
X8070182Y-7506936D01*
X8070182Y-7506936D02*
X8060658Y-7516460D01*
X8060658Y-7516460D02*
X8041610Y-7525984D01*
X8041610Y-7525984D02*
X8022562Y-7525984D01*
X8022562Y-7525984D02*
X8003515Y-7516460D01*
X8003515Y-7516460D02*
X7993991Y-7506936D01*
X7993991Y-7506936D02*
X7984467Y-7487888D01*
X7984467Y-7487888D02*
X7974943Y-7449793D01*
X7974943Y-7449793D02*
X7974943Y-7402174D01*
X7974943Y-7402174D02*
X7984467Y-7364079D01*
X7984467Y-7364079D02*
X7993991Y-7345031D01*
X7993991Y-7345031D02*
X8003515Y-7335508D01*
X8003515Y-7335508D02*
X8022562Y-7325984D01*
X8213039Y-7325984D02*
X8232086Y-7325984D01*
X8232086Y-7325984D02*
X8251134Y-7335508D01*
X8251134Y-7335508D02*
X8260658Y-7345031D01*
X8260658Y-7345031D02*
X8270182Y-7364079D01*
X8270182Y-7364079D02*
X8279705Y-7402174D01*
X8279705Y-7402174D02*
X8279705Y-7449793D01*
X8279705Y-7449793D02*
X8270182Y-7487888D01*
X8270182Y-7487888D02*
X8260658Y-7506936D01*
X8260658Y-7506936D02*
X8251134Y-7516460D01*
X8251134Y-7516460D02*
X8232086Y-7525984D01*
X8232086Y-7525984D02*
X8213039Y-7525984D01*
X8213039Y-7525984D02*
X8193991Y-7516460D01*
X8193991Y-7516460D02*
X8184467Y-7506936D01*
X8184467Y-7506936D02*
X8174943Y-7487888D01*
X8174943Y-7487888D02*
X8165420Y-7449793D01*
X8165420Y-7449793D02*
X8165420Y-7402174D01*
X8165420Y-7402174D02*
X8174943Y-7364079D01*
X8174943Y-7364079D02*
X8184467Y-7345031D01*
X8184467Y-7345031D02*
X8193991Y-7335508D01*
X8193991Y-7335508D02*
X8213039Y-7325984D01*
X8365420Y-7525984D02*
X8365420Y-7392650D01*
X8365420Y-7411698D02*
X8374943Y-7402174D01*
X8374943Y-7402174D02*
X8393991Y-7392650D01*
X8393991Y-7392650D02*
X8422563Y-7392650D01*
X8422563Y-7392650D02*
X8441610Y-7402174D01*
X8441610Y-7402174D02*
X8451134Y-7421222D01*
X8451134Y-7421222D02*
X8451134Y-7525984D01*
X8451134Y-7421222D02*
X8460658Y-7402174D01*
X8460658Y-7402174D02*
X8479705Y-7392650D01*
X8479705Y-7392650D02*
X8508277Y-7392650D01*
X8508277Y-7392650D02*
X8527325Y-7402174D01*
X8527325Y-7402174D02*
X8536848Y-7421222D01*
X8536848Y-7421222D02*
X8536848Y-7525984D01*
X8632086Y-7525984D02*
X8632086Y-7392650D01*
X8632086Y-7411698D02*
X8641610Y-7402174D01*
X8641610Y-7402174D02*
X8660658Y-7392650D01*
X8660658Y-7392650D02*
X8689229Y-7392650D01*
X8689229Y-7392650D02*
X8708277Y-7402174D01*
X8708277Y-7402174D02*
X8717801Y-7421222D01*
X8717801Y-7421222D02*
X8717801Y-7525984D01*
X8717801Y-7421222D02*
X8727325Y-7402174D01*
X8727325Y-7402174D02*
X8746372Y-7392650D01*
X8746372Y-7392650D02*
X8774944Y-7392650D01*
X8774944Y-7392650D02*
X8793991Y-7402174D01*
X8793991Y-7402174D02*
X8803515Y-7421222D01*
X8803515Y-7421222D02*
X8803515Y-7525984D01*
X9193991Y-7316460D02*
X9022563Y-7573603D01*
X9451134Y-7325984D02*
X9470182Y-7325984D01*
X9470182Y-7325984D02*
X9489229Y-7335508D01*
X9489229Y-7335508D02*
X9498753Y-7345031D01*
X9498753Y-7345031D02*
X9508277Y-7364079D01*
X9508277Y-7364079D02*
X9517801Y-7402174D01*
X9517801Y-7402174D02*
X9517801Y-7449793D01*
X9517801Y-7449793D02*
X9508277Y-7487888D01*
X9508277Y-7487888D02*
X9498753Y-7506936D01*
X9498753Y-7506936D02*
X9489229Y-7516460D01*
X9489229Y-7516460D02*
X9470182Y-7525984D01*
X9470182Y-7525984D02*
X9451134Y-7525984D01*
X9451134Y-7525984D02*
X9432087Y-7516460D01*
X9432087Y-7516460D02*
X9422563Y-7506936D01*
X9422563Y-7506936D02*
X9413039Y-7487888D01*
X9413039Y-7487888D02*
X9403515Y-7449793D01*
X9403515Y-7449793D02*
X9403515Y-7402174D01*
X9403515Y-7402174D02*
X9413039Y-7364079D01*
X9413039Y-7364079D02*
X9422563Y-7345031D01*
X9422563Y-7345031D02*
X9432087Y-7335508D01*
X9432087Y-7335508D02*
X9451134Y-7325984D01*
X9603515Y-7506936D02*
X9613039Y-7516460D01*
X9613039Y-7516460D02*
X9603515Y-7525984D01*
X9603515Y-7525984D02*
X9593991Y-7516460D01*
X9593991Y-7516460D02*
X9603515Y-7506936D01*
X9603515Y-7506936D02*
X9603515Y-7525984D01*
X9736848Y-7325984D02*
X9755896Y-7325984D01*
X9755896Y-7325984D02*
X9774944Y-7335508D01*
X9774944Y-7335508D02*
X9784468Y-7345031D01*
X9784468Y-7345031D02*
X9793991Y-7364079D01*
X9793991Y-7364079D02*
X9803515Y-7402174D01*
X9803515Y-7402174D02*
X9803515Y-7449793D01*
X9803515Y-7449793D02*
X9793991Y-7487888D01*
X9793991Y-7487888D02*
X9784468Y-7506936D01*
X9784468Y-7506936D02*
X9774944Y-7516460D01*
X9774944Y-7516460D02*
X9755896Y-7525984D01*
X9755896Y-7525984D02*
X9736848Y-7525984D01*
X9736848Y-7525984D02*
X9717801Y-7516460D01*
X9717801Y-7516460D02*
X9708277Y-7506936D01*
X9708277Y-7506936D02*
X9698753Y-7487888D01*
X9698753Y-7487888D02*
X9689229Y-7449793D01*
X9689229Y-7449793D02*
X9689229Y-7402174D01*
X9689229Y-7402174D02*
X9698753Y-7364079D01*
X9698753Y-7364079D02*
X9708277Y-7345031D01*
X9708277Y-7345031D02*
X9717801Y-7335508D01*
X9717801Y-7335508D02*
X9736848Y-7325984D01*
X9870182Y-7325984D02*
X9993991Y-7325984D01*
X9993991Y-7325984D02*
X9927325Y-7402174D01*
X9927325Y-7402174D02*
X9955896Y-7402174D01*
X9955896Y-7402174D02*
X9974944Y-7411698D01*
X9974944Y-7411698D02*
X9984468Y-7421222D01*
X9984468Y-7421222D02*
X9993991Y-7440269D01*
X9993991Y-7440269D02*
X9993991Y-7487888D01*
X9993991Y-7487888D02*
X9984468Y-7506936D01*
X9984468Y-7506936D02*
X9974944Y-7516460D01*
X9974944Y-7516460D02*
X9955896Y-7525984D01*
X9955896Y-7525984D02*
X9898753Y-7525984D01*
X9898753Y-7525984D02*
X9879706Y-7516460D01*
X9879706Y-7516460D02*
X9870182Y-7506936D01*
X10184468Y-7525984D02*
X10070182Y-7525984D01*
X10127325Y-7525984D02*
X10127325Y-7325984D01*
X10127325Y-7325984D02*
X10108277Y-7354555D01*
X10108277Y-7354555D02*
X10089229Y-7373603D01*
X10089229Y-7373603D02*
X10070182Y-7383127D01*
X10365420Y-7325984D02*
X10270182Y-7325984D01*
X10270182Y-7325984D02*
X10260658Y-7421222D01*
X10260658Y-7421222D02*
X10270182Y-7411698D01*
X10270182Y-7411698D02*
X10289229Y-7402174D01*
X10289229Y-7402174D02*
X10336849Y-7402174D01*
X10336849Y-7402174D02*
X10355896Y-7411698D01*
X10355896Y-7411698D02*
X10365420Y-7421222D01*
X10365420Y-7421222D02*
X10374944Y-7440269D01*
X10374944Y-7440269D02*
X10374944Y-7487888D01*
X10374944Y-7487888D02*
X10365420Y-7506936D01*
X10365420Y-7506936D02*
X10355896Y-7516460D01*
X10355896Y-7516460D02*
X10336849Y-7525984D01*
X10336849Y-7525984D02*
X10289229Y-7525984D01*
X10289229Y-7525984D02*
X10270182Y-7516460D01*
X10270182Y-7516460D02*
X10260658Y-7506936D01*
X10451134Y-7325984D02*
X10451134Y-7364079D01*
X10527325Y-7325984D02*
X10527325Y-7364079D01*
X10822563Y-7602174D02*
X10813039Y-7592650D01*
X10813039Y-7592650D02*
X10793991Y-7564079D01*
X10793991Y-7564079D02*
X10784468Y-7545031D01*
X10784468Y-7545031D02*
X10774944Y-7516460D01*
X10774944Y-7516460D02*
X10765420Y-7468841D01*
X10765420Y-7468841D02*
X10765420Y-7430746D01*
X10765420Y-7430746D02*
X10774944Y-7383127D01*
X10774944Y-7383127D02*
X10784468Y-7354555D01*
X10784468Y-7354555D02*
X10793991Y-7335508D01*
X10793991Y-7335508D02*
X10813039Y-7306936D01*
X10813039Y-7306936D02*
X10822563Y-7297412D01*
X10889230Y-7345031D02*
X10898753Y-7335508D01*
X10898753Y-7335508D02*
X10917801Y-7325984D01*
X10917801Y-7325984D02*
X10965420Y-7325984D01*
X10965420Y-7325984D02*
X10984468Y-7335508D01*
X10984468Y-7335508D02*
X10993991Y-7345031D01*
X10993991Y-7345031D02*
X11003515Y-7364079D01*
X11003515Y-7364079D02*
X11003515Y-7383127D01*
X11003515Y-7383127D02*
X10993991Y-7411698D01*
X10993991Y-7411698D02*
X10879706Y-7525984D01*
X10879706Y-7525984D02*
X11003515Y-7525984D01*
X11241610Y-7525984D02*
X11241610Y-7325984D01*
X11327325Y-7525984D02*
X11327325Y-7421222D01*
X11327325Y-7421222D02*
X11317801Y-7402174D01*
X11317801Y-7402174D02*
X11298753Y-7392650D01*
X11298753Y-7392650D02*
X11270182Y-7392650D01*
X11270182Y-7392650D02*
X11251134Y-7402174D01*
X11251134Y-7402174D02*
X11241610Y-7411698D01*
X11451134Y-7525984D02*
X11432087Y-7516460D01*
X11432087Y-7516460D02*
X11422563Y-7506936D01*
X11422563Y-7506936D02*
X11413039Y-7487888D01*
X11413039Y-7487888D02*
X11413039Y-7430746D01*
X11413039Y-7430746D02*
X11422563Y-7411698D01*
X11422563Y-7411698D02*
X11432087Y-7402174D01*
X11432087Y-7402174D02*
X11451134Y-7392650D01*
X11451134Y-7392650D02*
X11479706Y-7392650D01*
X11479706Y-7392650D02*
X11498753Y-7402174D01*
X11498753Y-7402174D02*
X11508277Y-7411698D01*
X11508277Y-7411698D02*
X11517801Y-7430746D01*
X11517801Y-7430746D02*
X11517801Y-7487888D01*
X11517801Y-7487888D02*
X11508277Y-7506936D01*
X11508277Y-7506936D02*
X11498753Y-7516460D01*
X11498753Y-7516460D02*
X11479706Y-7525984D01*
X11479706Y-7525984D02*
X11451134Y-7525984D01*
X11632087Y-7525984D02*
X11613039Y-7516460D01*
X11613039Y-7516460D02*
X11603515Y-7497412D01*
X11603515Y-7497412D02*
X11603515Y-7325984D01*
X11784468Y-7516460D02*
X11765420Y-7525984D01*
X11765420Y-7525984D02*
X11727325Y-7525984D01*
X11727325Y-7525984D02*
X11708277Y-7516460D01*
X11708277Y-7516460D02*
X11698753Y-7497412D01*
X11698753Y-7497412D02*
X11698753Y-7421222D01*
X11698753Y-7421222D02*
X11708277Y-7402174D01*
X11708277Y-7402174D02*
X11727325Y-7392650D01*
X11727325Y-7392650D02*
X11765420Y-7392650D01*
X11765420Y-7392650D02*
X11784468Y-7402174D01*
X11784468Y-7402174D02*
X11793991Y-7421222D01*
X11793991Y-7421222D02*
X11793991Y-7440269D01*
X11793991Y-7440269D02*
X11698753Y-7459317D01*
X11870182Y-7516460D02*
X11889230Y-7525984D01*
X11889230Y-7525984D02*
X11927325Y-7525984D01*
X11927325Y-7525984D02*
X11946372Y-7516460D01*
X11946372Y-7516460D02*
X11955896Y-7497412D01*
X11955896Y-7497412D02*
X11955896Y-7487888D01*
X11955896Y-7487888D02*
X11946372Y-7468841D01*
X11946372Y-7468841D02*
X11927325Y-7459317D01*
X11927325Y-7459317D02*
X11898753Y-7459317D01*
X11898753Y-7459317D02*
X11879706Y-7449793D01*
X11879706Y-7449793D02*
X11870182Y-7430746D01*
X11870182Y-7430746D02*
X11870182Y-7421222D01*
X11870182Y-7421222D02*
X11879706Y-7402174D01*
X11879706Y-7402174D02*
X11898753Y-7392650D01*
X11898753Y-7392650D02*
X11927325Y-7392650D01*
X11927325Y-7392650D02*
X11946372Y-7402174D01*
X12022563Y-7602174D02*
X12032087Y-7592650D01*
X12032087Y-7592650D02*
X12051134Y-7564079D01*
X12051134Y-7564079D02*
X12060658Y-7545031D01*
X12060658Y-7545031D02*
X12070182Y-7516460D01*
X12070182Y-7516460D02*
X12079706Y-7468841D01*
X12079706Y-7468841D02*
X12079706Y-7430746D01*
X12079706Y-7430746D02*
X12070182Y-7383127D01*
X12070182Y-7383127D02*
X12060658Y-7354555D01*
X12060658Y-7354555D02*
X12051134Y-7335508D01*
X12051134Y-7335508D02*
X12032087Y-7306936D01*
X12032087Y-7306936D02*
X12022563Y-7297412D01*
M02*
