%TF.GenerationSoftware,KiCad,Pcbnew,9.0.6*%
%TF.CreationDate,2025-12-13T17:25:46+11:00*%
%TF.ProjectId,esp32,65737033-322e-46b6-9963-61645f706362,rev?*%
%TF.SameCoordinates,Original*%
%TF.FileFunction,Copper,L2,Bot*%
%TF.FilePolarity,Positive*%
%FSLAX46Y46*%
G04 Gerber Fmt 4.6, Leading zero omitted, Abs format (unit mm)*
G04 Created by KiCad (PCBNEW 9.0.6) date 2025-12-13 17:25:46*
%MOMM*%
%LPD*%
G01*
G04 APERTURE LIST*
%TA.AperFunction,ComponentPad*%
%ADD10R,1.308000X1.308000*%
%TD*%
%TA.AperFunction,ComponentPad*%
%ADD11C,1.308000*%
%TD*%
%TA.AperFunction,ComponentPad*%
%ADD12C,0.400000*%
%TD*%
%TA.AperFunction,ComponentPad*%
%ADD13O,2.100000X1.000000*%
%TD*%
%TA.AperFunction,ComponentPad*%
%ADD14O,1.800000X1.000000*%
%TD*%
%TA.AperFunction,ViaPad*%
%ADD15C,0.600000*%
%TD*%
%TA.AperFunction,Conductor*%
%ADD16C,0.200000*%
%TD*%
G04 APERTURE END LIST*
D10*
%TO.P,J2,1,1*%
%TO.N,VBAT*%
X124712500Y-48500000D03*
D11*
%TO.P,J2,2,2*%
%TO.N,GND*%
X124712500Y-50500000D03*
%TD*%
D12*
%TO.P,U3,41_10*%
%TO.N,GND*%
X102600000Y-43500000D03*
%TO.P,U3,41_11*%
X101200000Y-43500000D03*
%TO.P,U3,41_12*%
X103300000Y-42800000D03*
%TO.P,U3,41_13*%
X101900000Y-42800000D03*
%TO.P,U3,41_14*%
X100500000Y-42800000D03*
%TO.P,U3,41_15*%
X102600000Y-42100000D03*
%TO.P,U3,41_16*%
X101200000Y-42100000D03*
%TO.P,U3,41_17*%
X103300000Y-41400000D03*
%TO.P,U3,41_18*%
X101900000Y-41400000D03*
%TO.P,U3,41_19*%
X100500000Y-41400000D03*
%TO.P,U3,41_20*%
X102600000Y-40700000D03*
%TO.P,U3,41_21*%
X101200000Y-40700000D03*
%TD*%
D13*
%TO.P,J1,SH1,SHELL_GND*%
%TO.N,SHELL_GND*%
X79680000Y-32002500D03*
%TO.P,J1,SH2,SHELL_GND*%
X79680000Y-40642500D03*
D14*
%TO.P,J1,SH3,SHELL_GND*%
X75500000Y-32002500D03*
%TO.P,J1,SH4,SHELL_GND*%
X75500000Y-40642500D03*
%TD*%
D15*
%TO.N,Net-(U1-VCC)*%
X81100000Y-51000000D03*
X82000000Y-45000000D03*
X79900000Y-51000000D03*
X82000000Y-47000000D03*
%TO.N,Net-(U1-BAT)*%
X79000000Y-51600000D03*
X79000000Y-50400000D03*
%TO.N,VBAT*%
X98000000Y-58500000D03*
X117500000Y-54500000D03*
X100500000Y-58400000D03*
X115900000Y-56000000D03*
%TO.N,+3.3V*%
X121750000Y-28400000D03*
X112900000Y-31750000D03*
%TO.N,Net-(U2-VOUT)*%
X97000000Y-57500000D03*
X99000000Y-57500000D03*
%TO.N,PWR_IN*%
X122825735Y-53825735D03*
X123674265Y-54674265D03*
%TO.N,Net-(U3-EN)*%
X112000000Y-44500000D03*
X113600000Y-43000000D03*
%TO.N,GND*%
X81500000Y-33000000D03*
X96900000Y-56000000D03*
X81479485Y-40020515D03*
X98100000Y-56000000D03*
X76500000Y-53000000D03*
%TO.N,SD_D0*%
X104250000Y-30750000D03*
X110650000Y-30750000D03*
X100435000Y-30750000D03*
X112251000Y-30750000D03*
%TO.N,SD_CS*%
X124751243Y-28994534D03*
X122750000Y-29000000D03*
%TO.N,SD_CMD*%
X102975000Y-27750000D03*
X123823897Y-29774632D03*
X110500000Y-28250000D03*
X113549265Y-27200735D03*
X104184313Y-27815687D03*
X122093186Y-29688844D03*
%TO.N,SD_CLK*%
X112251000Y-29750000D03*
X104175000Y-29250000D03*
X110650000Y-29750000D03*
X101500000Y-29250000D03*
%TO.N,Net-(U1-~{STDBY})*%
X79900000Y-44000000D03*
X81100000Y-45000000D03*
%TO.N,USB_D+*%
X111250000Y-27176000D03*
X110000000Y-25575000D03*
%TO.N,USB_D-*%
X104750000Y-27250000D03*
X112000000Y-27500000D03*
X103250000Y-26775000D03*
X110453863Y-27254552D03*
X89292185Y-26792185D03*
X91549265Y-26799265D03*
%TD*%
D16*
%TO.N,Net-(U1-VCC)*%
X79900000Y-51000000D02*
X81100000Y-51000000D01*
X82000000Y-47000000D02*
X82000000Y-45000000D01*
%TO.N,Net-(U1-BAT)*%
X79000000Y-50400000D02*
X79000000Y-51600000D01*
%TO.N,VBAT*%
X100400000Y-58500000D02*
X100500000Y-58400000D01*
X98000000Y-58500000D02*
X100400000Y-58500000D01*
X117400000Y-54500000D02*
X117500000Y-54500000D01*
X115900000Y-56000000D02*
X117400000Y-54500000D01*
%TO.N,+3.3V*%
X112900000Y-31750000D02*
X116250000Y-28400000D01*
X116250000Y-28400000D02*
X121750000Y-28400000D01*
%TO.N,Net-(U2-VOUT)*%
X99000000Y-57500000D02*
X97000000Y-57500000D01*
%TO.N,PWR_IN*%
X123674265Y-54674265D02*
X122825735Y-53825735D01*
%TO.N,Net-(U3-EN)*%
X112000000Y-44500000D02*
X113500000Y-43000000D01*
X113500000Y-43000000D02*
X113600000Y-43000000D01*
%TO.N,GND*%
X81500000Y-33000000D02*
X81500000Y-40000000D01*
X96900000Y-56000000D02*
X98100000Y-56000000D01*
X81500000Y-40000000D02*
X81479485Y-40020515D01*
%TO.N,SHELL_GND*%
X75500000Y-40642500D02*
X79680000Y-40642500D01*
X79680000Y-32002500D02*
X75500000Y-32002500D01*
X75500000Y-32002500D02*
X75500000Y-40642500D01*
%TO.N,SD_D0*%
X110650000Y-30750000D02*
X112251000Y-30750000D01*
X100435000Y-30750000D02*
X104250000Y-30750000D01*
%TO.N,SD_CS*%
X124745777Y-29000000D02*
X124751243Y-28994534D01*
X122750000Y-29000000D02*
X124745777Y-29000000D01*
%TO.N,SD_CMD*%
X122105077Y-29700735D02*
X123750000Y-29700735D01*
X104118626Y-27750000D02*
X104184313Y-27815687D01*
X123750000Y-29700735D02*
X123823897Y-29774632D01*
X112500000Y-28250000D02*
X113549265Y-27200735D01*
X110500000Y-28250000D02*
X112500000Y-28250000D01*
X122093186Y-29688844D02*
X122105077Y-29700735D01*
X102975000Y-27750000D02*
X104118626Y-27750000D01*
%TO.N,SD_CLK*%
X101500000Y-29250000D02*
X104175000Y-29250000D01*
X110650000Y-29750000D02*
X112251000Y-29750000D01*
%TO.N,Net-(U1-~{STDBY})*%
X80900000Y-45000000D02*
X79900000Y-44000000D01*
X81100000Y-45000000D02*
X80900000Y-45000000D01*
%TO.N,USB_D+*%
X111250000Y-27176000D02*
X111250000Y-26825000D01*
X111250000Y-26825000D02*
X110000000Y-25575000D01*
%TO.N,USB_D-*%
X89299265Y-26799265D02*
X91549265Y-26799265D01*
X104275000Y-26775000D02*
X104750000Y-27250000D01*
X103250000Y-26775000D02*
X104275000Y-26775000D01*
X111723000Y-27777000D02*
X110976311Y-27777000D01*
X110976311Y-27777000D02*
X110453863Y-27254552D01*
X112000000Y-27500000D02*
X111723000Y-27777000D01*
X89292185Y-26792185D02*
X89299265Y-26799265D01*
%TD*%
%TA.AperFunction,Conductor*%
%TO.N,GND*%
G36*
X109198878Y-25003363D02*
G01*
X109208962Y-25002097D01*
X109231837Y-25013041D01*
X109256166Y-25020185D01*
X109262820Y-25027864D01*
X109271989Y-25032251D01*
X109285317Y-25053827D01*
X109301921Y-25072989D01*
X109303367Y-25083046D01*
X109308709Y-25091694D01*
X109308256Y-25117050D01*
X109311865Y-25142147D01*
X109307610Y-25153250D01*
X109307462Y-25161553D01*
X109292229Y-25193391D01*
X109290609Y-25195814D01*
X109290602Y-25195827D01*
X109230264Y-25341498D01*
X109230261Y-25341510D01*
X109199500Y-25496153D01*
X109199500Y-25653846D01*
X109230261Y-25808489D01*
X109230264Y-25808501D01*
X109290602Y-25954172D01*
X109290609Y-25954185D01*
X109378210Y-26085288D01*
X109378213Y-26085292D01*
X109489707Y-26196786D01*
X109489711Y-26196789D01*
X109620814Y-26284390D01*
X109620827Y-26284397D01*
X109766498Y-26344735D01*
X109766503Y-26344737D01*
X109831147Y-26357595D01*
X109921849Y-26375638D01*
X109938605Y-26384402D01*
X109957085Y-26388423D01*
X109982123Y-26407167D01*
X109983760Y-26408023D01*
X109985339Y-26409574D01*
X109995562Y-26419797D01*
X110029047Y-26481120D01*
X110024063Y-26550812D01*
X109982191Y-26606745D01*
X109976773Y-26610580D01*
X109943570Y-26632765D01*
X109832076Y-26744259D01*
X109832073Y-26744263D01*
X109744472Y-26875366D01*
X109744465Y-26875379D01*
X109684127Y-27021050D01*
X109684124Y-27021062D01*
X109653363Y-27175705D01*
X109653363Y-27333398D01*
X109684124Y-27488041D01*
X109684127Y-27488053D01*
X109744465Y-27633724D01*
X109744475Y-27633742D01*
X109800714Y-27717910D01*
X109821592Y-27784587D01*
X109803107Y-27851967D01*
X109800718Y-27855685D01*
X109790611Y-27870812D01*
X109790602Y-27870828D01*
X109730264Y-28016498D01*
X109730261Y-28016510D01*
X109699500Y-28171153D01*
X109699500Y-28328846D01*
X109730261Y-28483489D01*
X109730264Y-28483501D01*
X109790602Y-28629172D01*
X109790609Y-28629185D01*
X109878210Y-28760288D01*
X109878213Y-28760292D01*
X109989707Y-28871786D01*
X109989711Y-28871789D01*
X110107712Y-28950635D01*
X110152517Y-29004247D01*
X110161224Y-29073572D01*
X110131070Y-29136599D01*
X110126503Y-29141418D01*
X110028210Y-29239711D01*
X109940609Y-29370814D01*
X109940602Y-29370827D01*
X109880264Y-29516498D01*
X109880261Y-29516510D01*
X109849500Y-29671153D01*
X109849500Y-29828846D01*
X109880261Y-29983489D01*
X109880264Y-29983501D01*
X109940602Y-30129172D01*
X109940609Y-30129185D01*
X109975304Y-30181109D01*
X109996182Y-30247786D01*
X109977698Y-30315167D01*
X109975304Y-30318891D01*
X109940609Y-30370814D01*
X109940602Y-30370827D01*
X109880264Y-30516498D01*
X109880261Y-30516510D01*
X109849500Y-30671153D01*
X109849500Y-30828846D01*
X109880261Y-30983489D01*
X109880264Y-30983501D01*
X109940602Y-31129172D01*
X109940609Y-31129185D01*
X110028210Y-31260288D01*
X110028213Y-31260292D01*
X110139707Y-31371786D01*
X110139711Y-31371789D01*
X110270814Y-31459390D01*
X110270827Y-31459397D01*
X110416498Y-31519735D01*
X110416503Y-31519737D01*
X110524349Y-31541189D01*
X110571153Y-31550499D01*
X110571156Y-31550500D01*
X110571158Y-31550500D01*
X110728844Y-31550500D01*
X110728845Y-31550499D01*
X110883497Y-31519737D01*
X111029179Y-31459394D01*
X111029185Y-31459390D01*
X111160875Y-31371398D01*
X111227553Y-31350520D01*
X111229766Y-31350500D01*
X111671234Y-31350500D01*
X111738273Y-31370185D01*
X111740125Y-31371398D01*
X111871814Y-31459390D01*
X111871827Y-31459397D01*
X111984554Y-31506089D01*
X112017498Y-31519735D01*
X112023131Y-31522068D01*
X112022480Y-31523639D01*
X112074120Y-31557472D01*
X112102584Y-31621281D01*
X112101314Y-31662034D01*
X112099500Y-31671153D01*
X112099500Y-31828846D01*
X112130261Y-31983489D01*
X112130264Y-31983501D01*
X112190602Y-32129172D01*
X112190609Y-32129185D01*
X112278210Y-32260288D01*
X112278213Y-32260292D01*
X112389707Y-32371786D01*
X112389711Y-32371789D01*
X112520814Y-32459390D01*
X112520827Y-32459397D01*
X112666498Y-32519735D01*
X112666503Y-32519737D01*
X112821153Y-32550499D01*
X112821156Y-32550500D01*
X112821158Y-32550500D01*
X112978844Y-32550500D01*
X112978845Y-32550499D01*
X113133497Y-32519737D01*
X113279179Y-32459394D01*
X113410289Y-32371789D01*
X113521789Y-32260289D01*
X113609394Y-32129179D01*
X113669737Y-31983497D01*
X113689113Y-31886085D01*
X113700638Y-31828150D01*
X113733023Y-31766239D01*
X113734518Y-31764716D01*
X116462416Y-29036819D01*
X116523739Y-29003334D01*
X116550097Y-29000500D01*
X121170234Y-29000500D01*
X121188377Y-29005827D01*
X121207286Y-29006165D01*
X121235501Y-29019664D01*
X121237273Y-29020185D01*
X121239124Y-29021398D01*
X121369198Y-29108310D01*
X121414004Y-29161922D01*
X121422711Y-29231247D01*
X121403411Y-29280302D01*
X121383794Y-29309660D01*
X121383788Y-29309671D01*
X121323450Y-29455342D01*
X121323447Y-29455354D01*
X121292686Y-29609997D01*
X121292686Y-29767690D01*
X121323447Y-29922333D01*
X121323450Y-29922345D01*
X121383788Y-30068016D01*
X121383795Y-30068029D01*
X121471396Y-30199132D01*
X121471399Y-30199136D01*
X121582893Y-30310630D01*
X121582897Y-30310633D01*
X121714000Y-30398234D01*
X121714013Y-30398241D01*
X121859684Y-30458579D01*
X121859689Y-30458581D01*
X121987589Y-30484022D01*
X122014339Y-30489343D01*
X122014342Y-30489344D01*
X122014344Y-30489344D01*
X122172030Y-30489344D01*
X122172031Y-30489343D01*
X122326683Y-30458581D01*
X122472365Y-30398238D01*
X122475089Y-30396418D01*
X122586265Y-30322133D01*
X122652943Y-30301255D01*
X122655156Y-30301235D01*
X123167060Y-30301235D01*
X123234099Y-30320920D01*
X123254736Y-30337549D01*
X123288001Y-30370814D01*
X123313609Y-30396422D01*
X123444711Y-30484022D01*
X123444724Y-30484029D01*
X123590395Y-30544367D01*
X123590400Y-30544369D01*
X123731351Y-30572406D01*
X123745050Y-30575131D01*
X123745053Y-30575132D01*
X123745055Y-30575132D01*
X123902741Y-30575132D01*
X123902742Y-30575131D01*
X124057394Y-30544369D01*
X124203076Y-30484026D01*
X124334186Y-30396421D01*
X124445686Y-30284921D01*
X124533291Y-30153811D01*
X124593634Y-30008129D01*
X124606331Y-29944297D01*
X124616169Y-29894842D01*
X124648554Y-29832931D01*
X124709270Y-29798357D01*
X124737786Y-29795034D01*
X124830087Y-29795034D01*
X124830088Y-29795033D01*
X124984740Y-29764271D01*
X125130422Y-29703928D01*
X125261532Y-29616323D01*
X125373032Y-29504823D01*
X125460637Y-29373713D01*
X125461833Y-29370827D01*
X125516142Y-29239711D01*
X125520980Y-29228031D01*
X125551743Y-29073376D01*
X125551743Y-28915692D01*
X125551743Y-28915689D01*
X125551742Y-28915687D01*
X125542819Y-28870827D01*
X125520980Y-28761037D01*
X125512145Y-28739707D01*
X125460640Y-28615361D01*
X125460633Y-28615348D01*
X125373032Y-28484245D01*
X125373029Y-28484241D01*
X125261535Y-28372747D01*
X125261531Y-28372744D01*
X125130428Y-28285143D01*
X125130415Y-28285136D01*
X124984744Y-28224798D01*
X124984732Y-28224795D01*
X124830088Y-28194034D01*
X124830085Y-28194034D01*
X124672401Y-28194034D01*
X124672398Y-28194034D01*
X124517753Y-28224795D01*
X124517741Y-28224798D01*
X124372070Y-28285136D01*
X124372057Y-28285143D01*
X124235889Y-28376129D01*
X124234896Y-28374644D01*
X124178347Y-28398665D01*
X124163985Y-28399500D01*
X123329766Y-28399500D01*
X123262727Y-28379815D01*
X123260875Y-28378602D01*
X123129185Y-28290609D01*
X123129172Y-28290602D01*
X122983501Y-28230264D01*
X122983489Y-28230261D01*
X122828845Y-28199500D01*
X122828842Y-28199500D01*
X122671158Y-28199500D01*
X122643698Y-28204962D01*
X122574106Y-28198733D01*
X122518929Y-28155870D01*
X122504947Y-28130796D01*
X122459397Y-28020827D01*
X122459390Y-28020814D01*
X122371789Y-27889711D01*
X122371786Y-27889707D01*
X122260292Y-27778213D01*
X122260288Y-27778210D01*
X122129185Y-27690609D01*
X122129172Y-27690602D01*
X121983501Y-27630264D01*
X121983489Y-27630261D01*
X121828845Y-27599500D01*
X121828842Y-27599500D01*
X121671158Y-27599500D01*
X121671155Y-27599500D01*
X121516510Y-27630261D01*
X121516498Y-27630264D01*
X121370827Y-27690602D01*
X121370814Y-27690609D01*
X121239125Y-27778602D01*
X121172447Y-27799480D01*
X121170234Y-27799500D01*
X116170941Y-27799500D01*
X116133338Y-27809575D01*
X116133339Y-27809576D01*
X116018214Y-27840423D01*
X116018209Y-27840426D01*
X115881290Y-27919475D01*
X115881282Y-27919481D01*
X113228358Y-30572406D01*
X113167035Y-30605891D01*
X113097343Y-30600907D01*
X113041410Y-30559035D01*
X113022017Y-30520723D01*
X113020735Y-30516498D01*
X112960396Y-30370825D01*
X112960394Y-30370822D01*
X112960394Y-30370821D01*
X112925694Y-30318889D01*
X112904816Y-30252215D01*
X112923300Y-30184835D01*
X112925676Y-30181136D01*
X112960394Y-30129179D01*
X113020737Y-29983497D01*
X113051500Y-29828842D01*
X113051500Y-29671158D01*
X113051500Y-29671155D01*
X113051499Y-29671153D01*
X113043148Y-29629172D01*
X113020737Y-29516503D01*
X113007062Y-29483489D01*
X112960397Y-29370827D01*
X112960390Y-29370814D01*
X112872789Y-29239711D01*
X112872786Y-29239707D01*
X112761292Y-29128213D01*
X112761288Y-29128210D01*
X112640021Y-29047181D01*
X112633639Y-29039544D01*
X112624726Y-29035121D01*
X112611607Y-29013182D01*
X112595216Y-28993568D01*
X112593975Y-28983694D01*
X112588869Y-28975154D01*
X112589694Y-28949604D01*
X112586509Y-28924243D01*
X112590803Y-28915266D01*
X112591125Y-28905321D01*
X112605632Y-28884273D01*
X112616664Y-28861216D01*
X112626186Y-28854453D01*
X112630777Y-28847793D01*
X112647774Y-28839121D01*
X112661069Y-28829680D01*
X112668751Y-28826467D01*
X112731785Y-28809577D01*
X112784435Y-28779179D01*
X112868716Y-28730520D01*
X112980520Y-28618716D01*
X112980520Y-28618714D01*
X112990724Y-28608511D01*
X112990727Y-28608506D01*
X113563930Y-28035305D01*
X113625249Y-28001823D01*
X113627416Y-28001372D01*
X113628105Y-28001235D01*
X113628107Y-28001235D01*
X113782762Y-27970472D01*
X113928444Y-27910129D01*
X114059554Y-27822524D01*
X114171054Y-27711024D01*
X114258659Y-27579914D01*
X114263179Y-27569003D01*
X114284924Y-27516503D01*
X114319002Y-27434232D01*
X114349765Y-27279577D01*
X114349765Y-27121893D01*
X114349765Y-27121890D01*
X114349764Y-27121888D01*
X114332036Y-27032766D01*
X114319002Y-26967238D01*
X114317430Y-26963442D01*
X114258662Y-26821562D01*
X114258655Y-26821549D01*
X114171054Y-26690446D01*
X114171051Y-26690442D01*
X114059557Y-26578948D01*
X114059553Y-26578945D01*
X113928450Y-26491344D01*
X113928437Y-26491337D01*
X113782766Y-26430999D01*
X113782754Y-26430996D01*
X113628110Y-26400235D01*
X113628107Y-26400235D01*
X113470423Y-26400235D01*
X113470420Y-26400235D01*
X113315775Y-26430996D01*
X113315763Y-26430999D01*
X113170092Y-26491337D01*
X113170079Y-26491344D01*
X113038976Y-26578945D01*
X113038972Y-26578948D01*
X112927478Y-26690442D01*
X112927475Y-26690446D01*
X112839874Y-26821549D01*
X112839867Y-26821562D01*
X112797763Y-26923213D01*
X112753922Y-26977617D01*
X112687628Y-26999682D01*
X112619929Y-26982403D01*
X112595521Y-26963442D01*
X112510292Y-26878213D01*
X112510288Y-26878210D01*
X112379185Y-26790609D01*
X112379172Y-26790602D01*
X112233501Y-26730264D01*
X112233489Y-26730261D01*
X112078845Y-26699500D01*
X112078842Y-26699500D01*
X111956941Y-26699500D01*
X111927500Y-26690855D01*
X111897514Y-26684332D01*
X111892498Y-26680577D01*
X111889902Y-26679815D01*
X111869260Y-26663181D01*
X111834290Y-26628211D01*
X111815060Y-26599434D01*
X111813641Y-26600254D01*
X111779203Y-26540606D01*
X111779202Y-26540605D01*
X111779200Y-26540602D01*
X111730520Y-26456284D01*
X111618716Y-26344480D01*
X111618715Y-26344479D01*
X111614385Y-26340149D01*
X111614374Y-26340139D01*
X110834574Y-25560339D01*
X110801089Y-25499016D01*
X110800638Y-25496849D01*
X110769738Y-25341510D01*
X110769737Y-25341503D01*
X110769735Y-25341498D01*
X110709397Y-25195827D01*
X110709390Y-25195814D01*
X110707771Y-25193391D01*
X110707312Y-25191927D01*
X110706521Y-25190446D01*
X110706801Y-25190295D01*
X110686893Y-25126713D01*
X110705378Y-25059333D01*
X110757356Y-25012643D01*
X110810873Y-25000500D01*
X127875500Y-25000500D01*
X127942539Y-25020185D01*
X127988294Y-25072989D01*
X127999500Y-25124500D01*
X127999500Y-59375500D01*
X127979815Y-59442539D01*
X127927011Y-59488294D01*
X127875500Y-59499500D01*
X98302190Y-59499500D01*
X98235151Y-59479815D01*
X98189396Y-59427011D01*
X98179452Y-59357853D01*
X98208477Y-59294297D01*
X98254738Y-59260939D01*
X98379172Y-59209397D01*
X98379172Y-59209396D01*
X98379179Y-59209394D01*
X98392491Y-59200499D01*
X98510875Y-59121398D01*
X98577553Y-59100520D01*
X98579766Y-59100500D01*
X100074684Y-59100500D01*
X100122136Y-59109939D01*
X100149801Y-59121398D01*
X100266503Y-59169737D01*
X100421153Y-59200499D01*
X100421156Y-59200500D01*
X100421158Y-59200500D01*
X100578844Y-59200500D01*
X100578845Y-59200499D01*
X100733497Y-59169737D01*
X100879179Y-59109394D01*
X101010289Y-59021789D01*
X101121789Y-58910289D01*
X101209394Y-58779179D01*
X101269737Y-58633497D01*
X101300500Y-58478842D01*
X101300500Y-58321158D01*
X101300500Y-58321155D01*
X101300499Y-58321153D01*
X101278269Y-58209397D01*
X101269737Y-58166503D01*
X101233515Y-58079055D01*
X101209397Y-58020827D01*
X101209393Y-58020820D01*
X101142658Y-57920943D01*
X119899500Y-57920943D01*
X119899500Y-58079057D01*
X119934425Y-58209397D01*
X119940423Y-58231783D01*
X119940426Y-58231790D01*
X120019475Y-58368709D01*
X120019479Y-58368714D01*
X120019480Y-58368716D01*
X120131284Y-58480520D01*
X120131286Y-58480521D01*
X120131290Y-58480524D01*
X120268209Y-58559573D01*
X120268216Y-58559577D01*
X120420943Y-58600500D01*
X120420945Y-58600500D01*
X120579055Y-58600500D01*
X120579057Y-58600500D01*
X120731784Y-58559577D01*
X120868716Y-58480520D01*
X120980520Y-58368716D01*
X121059577Y-58231784D01*
X121100500Y-58079057D01*
X121100500Y-57920943D01*
X122899500Y-57920943D01*
X122899500Y-58079057D01*
X122934425Y-58209397D01*
X122940423Y-58231783D01*
X122940426Y-58231790D01*
X123019475Y-58368709D01*
X123019479Y-58368714D01*
X123019480Y-58368716D01*
X123131284Y-58480520D01*
X123131286Y-58480521D01*
X123131290Y-58480524D01*
X123268209Y-58559573D01*
X123268216Y-58559577D01*
X123420943Y-58600500D01*
X123420945Y-58600500D01*
X123579055Y-58600500D01*
X123579057Y-58600500D01*
X123731784Y-58559577D01*
X123868716Y-58480520D01*
X123980520Y-58368716D01*
X124059577Y-58231784D01*
X124100500Y-58079057D01*
X124100500Y-57920943D01*
X124059577Y-57768216D01*
X124055664Y-57761438D01*
X123980524Y-57631290D01*
X123980518Y-57631282D01*
X123868717Y-57519481D01*
X123868709Y-57519475D01*
X123731790Y-57440426D01*
X123731786Y-57440424D01*
X123731784Y-57440423D01*
X123579057Y-57399500D01*
X123420943Y-57399500D01*
X123268216Y-57440423D01*
X123268209Y-57440426D01*
X123131290Y-57519475D01*
X123131282Y-57519481D01*
X123019481Y-57631282D01*
X123019475Y-57631290D01*
X122940426Y-57768209D01*
X122940423Y-57768216D01*
X122899500Y-57920943D01*
X121100500Y-57920943D01*
X121059577Y-57768216D01*
X121055664Y-57761438D01*
X120980524Y-57631290D01*
X120980518Y-57631282D01*
X120868717Y-57519481D01*
X120868709Y-57519475D01*
X120731790Y-57440426D01*
X120731786Y-57440424D01*
X120731784Y-57440423D01*
X120579057Y-57399500D01*
X120420943Y-57399500D01*
X120268216Y-57440423D01*
X120268209Y-57440426D01*
X120131290Y-57519475D01*
X120131282Y-57519481D01*
X120019481Y-57631282D01*
X120019475Y-57631290D01*
X119940426Y-57768209D01*
X119940423Y-57768216D01*
X119899500Y-57920943D01*
X101142658Y-57920943D01*
X101128330Y-57899500D01*
X101121789Y-57889710D01*
X101010292Y-57778213D01*
X101010288Y-57778210D01*
X100879185Y-57690609D01*
X100879172Y-57690602D01*
X100733501Y-57630264D01*
X100733489Y-57630261D01*
X100578845Y-57599500D01*
X100578842Y-57599500D01*
X100421158Y-57599500D01*
X100421155Y-57599500D01*
X100266510Y-57630261D01*
X100266498Y-57630264D01*
X100120827Y-57690602D01*
X100120814Y-57690609D01*
X99989711Y-57778210D01*
X99985001Y-57782076D01*
X99983413Y-57780141D01*
X99931674Y-57808359D01*
X99861985Y-57803338D01*
X99806073Y-57761438D01*
X99781690Y-57695960D01*
X99783761Y-57662990D01*
X99800500Y-57578842D01*
X99800500Y-57421158D01*
X99800500Y-57421155D01*
X99800499Y-57421153D01*
X99769738Y-57266510D01*
X99769737Y-57266503D01*
X99769735Y-57266498D01*
X99709397Y-57120827D01*
X99709390Y-57120814D01*
X99621789Y-56989711D01*
X99621786Y-56989707D01*
X99510292Y-56878213D01*
X99510288Y-56878210D01*
X99379185Y-56790609D01*
X99379172Y-56790602D01*
X99233501Y-56730264D01*
X99233489Y-56730261D01*
X99078845Y-56699500D01*
X99078842Y-56699500D01*
X98921158Y-56699500D01*
X98921155Y-56699500D01*
X98766510Y-56730261D01*
X98766498Y-56730264D01*
X98620827Y-56790602D01*
X98620814Y-56790609D01*
X98489125Y-56878602D01*
X98422447Y-56899480D01*
X98420234Y-56899500D01*
X97579766Y-56899500D01*
X97512727Y-56879815D01*
X97510875Y-56878602D01*
X97379185Y-56790609D01*
X97379172Y-56790602D01*
X97233501Y-56730264D01*
X97233489Y-56730261D01*
X97078845Y-56699500D01*
X97078842Y-56699500D01*
X96921158Y-56699500D01*
X96921155Y-56699500D01*
X96766510Y-56730261D01*
X96766498Y-56730264D01*
X96620827Y-56790602D01*
X96620814Y-56790609D01*
X96489711Y-56878210D01*
X96489707Y-56878213D01*
X96378213Y-56989707D01*
X96378210Y-56989711D01*
X96290609Y-57120814D01*
X96290602Y-57120827D01*
X96230264Y-57266498D01*
X96230261Y-57266510D01*
X96199500Y-57421153D01*
X96199500Y-57578846D01*
X96230261Y-57733489D01*
X96230264Y-57733501D01*
X96290602Y-57879172D01*
X96290609Y-57879185D01*
X96378210Y-58010288D01*
X96378213Y-58010292D01*
X96489707Y-58121786D01*
X96489711Y-58121789D01*
X96620814Y-58209390D01*
X96620827Y-58209397D01*
X96766498Y-58269735D01*
X96766503Y-58269737D01*
X96921153Y-58300499D01*
X96921156Y-58300500D01*
X97075500Y-58300500D01*
X97142539Y-58320185D01*
X97188294Y-58372989D01*
X97199500Y-58424500D01*
X97199500Y-58578846D01*
X97230261Y-58733489D01*
X97230264Y-58733501D01*
X97290602Y-58879172D01*
X97290609Y-58879185D01*
X97378210Y-59010288D01*
X97378213Y-59010292D01*
X97489707Y-59121786D01*
X97489711Y-59121789D01*
X97620814Y-59209390D01*
X97620827Y-59209397D01*
X97745262Y-59260939D01*
X97799666Y-59304779D01*
X97821731Y-59371074D01*
X97804452Y-59438773D01*
X97753315Y-59486384D01*
X97697810Y-59499500D01*
X73124500Y-59499500D01*
X73057461Y-59479815D01*
X73011706Y-59427011D01*
X73000500Y-59375500D01*
X73000500Y-55921153D01*
X115099500Y-55921153D01*
X115099500Y-56078846D01*
X115130261Y-56233489D01*
X115130264Y-56233501D01*
X115190602Y-56379172D01*
X115190609Y-56379185D01*
X115278210Y-56510288D01*
X115278213Y-56510292D01*
X115389707Y-56621786D01*
X115389711Y-56621789D01*
X115520814Y-56709390D01*
X115520827Y-56709397D01*
X115666498Y-56769735D01*
X115666503Y-56769737D01*
X115821153Y-56800499D01*
X115821156Y-56800500D01*
X115821158Y-56800500D01*
X115978844Y-56800500D01*
X115978845Y-56800499D01*
X116133497Y-56769737D01*
X116279179Y-56709394D01*
X116410289Y-56621789D01*
X116521789Y-56510289D01*
X116609394Y-56379179D01*
X116669737Y-56233497D01*
X116689113Y-56136085D01*
X116700638Y-56078150D01*
X116733023Y-56016239D01*
X116734518Y-56014716D01*
X117412416Y-55336819D01*
X117473739Y-55303334D01*
X117500097Y-55300500D01*
X117578844Y-55300500D01*
X117578845Y-55300499D01*
X117733497Y-55269737D01*
X117879179Y-55209394D01*
X118010289Y-55121789D01*
X118121789Y-55010289D01*
X118209394Y-54879179D01*
X118269737Y-54733497D01*
X118300500Y-54578842D01*
X118300500Y-54421158D01*
X118300500Y-54421155D01*
X118300499Y-54421153D01*
X118283566Y-54336027D01*
X118269737Y-54266503D01*
X118244226Y-54204914D01*
X118209397Y-54120827D01*
X118209390Y-54120814D01*
X118121789Y-53989711D01*
X118121786Y-53989707D01*
X118010292Y-53878213D01*
X118010288Y-53878210D01*
X117958944Y-53843903D01*
X117879185Y-53790609D01*
X117879172Y-53790602D01*
X117773635Y-53746888D01*
X122025235Y-53746888D01*
X122025235Y-53904581D01*
X122055996Y-54059224D01*
X122055999Y-54059236D01*
X122116337Y-54204907D01*
X122116344Y-54204920D01*
X122203945Y-54336023D01*
X122203948Y-54336027D01*
X122315442Y-54447521D01*
X122315446Y-54447524D01*
X122446549Y-54535125D01*
X122446562Y-54535132D01*
X122592112Y-54595420D01*
X122592238Y-54595472D01*
X122656882Y-54608330D01*
X122747584Y-54626373D01*
X122764340Y-54635137D01*
X122782820Y-54639158D01*
X122807858Y-54657902D01*
X122809495Y-54658758D01*
X122811074Y-54660309D01*
X122839690Y-54688925D01*
X122873175Y-54750248D01*
X122873626Y-54752414D01*
X122904526Y-54907756D01*
X122904529Y-54907766D01*
X122964867Y-55053437D01*
X122964874Y-55053450D01*
X123052475Y-55184553D01*
X123052478Y-55184557D01*
X123163972Y-55296051D01*
X123163976Y-55296054D01*
X123295079Y-55383655D01*
X123295092Y-55383662D01*
X123440763Y-55444000D01*
X123440768Y-55444002D01*
X123595418Y-55474764D01*
X123595421Y-55474765D01*
X123595423Y-55474765D01*
X123753109Y-55474765D01*
X123753110Y-55474764D01*
X123907762Y-55444002D01*
X124053444Y-55383659D01*
X124184554Y-55296054D01*
X124296054Y-55184554D01*
X124383659Y-55053444D01*
X124444002Y-54907762D01*
X124474765Y-54753107D01*
X124474765Y-54595423D01*
X124474765Y-54595420D01*
X124474764Y-54595418D01*
X124462771Y-54535125D01*
X124444002Y-54440768D01*
X124410104Y-54358930D01*
X124383662Y-54295092D01*
X124383655Y-54295079D01*
X124296054Y-54163976D01*
X124296051Y-54163972D01*
X124184557Y-54052478D01*
X124184553Y-54052475D01*
X124053450Y-53964874D01*
X124053437Y-53964867D01*
X123907766Y-53904529D01*
X123907756Y-53904526D01*
X123752416Y-53873627D01*
X123735659Y-53864861D01*
X123717181Y-53860842D01*
X123692142Y-53842097D01*
X123690506Y-53841242D01*
X123688927Y-53839691D01*
X123660308Y-53811072D01*
X123626823Y-53749749D01*
X123626372Y-53747582D01*
X123595473Y-53592245D01*
X123595472Y-53592238D01*
X123595470Y-53592233D01*
X123535132Y-53446562D01*
X123535125Y-53446549D01*
X123447524Y-53315446D01*
X123447521Y-53315442D01*
X123336027Y-53203948D01*
X123336023Y-53203945D01*
X123204920Y-53116344D01*
X123204907Y-53116337D01*
X123059236Y-53055999D01*
X123059224Y-53055996D01*
X122904580Y-53025235D01*
X122904577Y-53025235D01*
X122746893Y-53025235D01*
X122746890Y-53025235D01*
X122592245Y-53055996D01*
X122592233Y-53055999D01*
X122446562Y-53116337D01*
X122446549Y-53116344D01*
X122315446Y-53203945D01*
X122315442Y-53203948D01*
X122203948Y-53315442D01*
X122203945Y-53315446D01*
X122116344Y-53446549D01*
X122116337Y-53446562D01*
X122055999Y-53592233D01*
X122055996Y-53592245D01*
X122025235Y-53746888D01*
X117773635Y-53746888D01*
X117733501Y-53730264D01*
X117733489Y-53730261D01*
X117578845Y-53699500D01*
X117578842Y-53699500D01*
X117421158Y-53699500D01*
X117421155Y-53699500D01*
X117266510Y-53730261D01*
X117266498Y-53730264D01*
X117120827Y-53790602D01*
X117120814Y-53790609D01*
X116989711Y-53878210D01*
X116989707Y-53878213D01*
X116878213Y-53989707D01*
X116878210Y-53989711D01*
X116790609Y-54120814D01*
X116790602Y-54120827D01*
X116730263Y-54266500D01*
X116730261Y-54266507D01*
X116724192Y-54297019D01*
X116691806Y-54358930D01*
X116690256Y-54360507D01*
X115885339Y-55165425D01*
X115824016Y-55198910D01*
X115821850Y-55199361D01*
X115666508Y-55230261D01*
X115666498Y-55230264D01*
X115520827Y-55290602D01*
X115520814Y-55290609D01*
X115389711Y-55378210D01*
X115389707Y-55378213D01*
X115278213Y-55489707D01*
X115278210Y-55489711D01*
X115190609Y-55620814D01*
X115190602Y-55620827D01*
X115130264Y-55766498D01*
X115130261Y-55766510D01*
X115099500Y-55921153D01*
X73000500Y-55921153D01*
X73000500Y-50321153D01*
X78199500Y-50321153D01*
X78199500Y-50478846D01*
X78230261Y-50633489D01*
X78230264Y-50633501D01*
X78290602Y-50779172D01*
X78290609Y-50779185D01*
X78378602Y-50910874D01*
X78384252Y-50928920D01*
X78394477Y-50944830D01*
X78398928Y-50975789D01*
X78399480Y-50977551D01*
X78399500Y-50979765D01*
X78399500Y-51020234D01*
X78379815Y-51087273D01*
X78378602Y-51089125D01*
X78290609Y-51220814D01*
X78290602Y-51220827D01*
X78230264Y-51366498D01*
X78230261Y-51366510D01*
X78199500Y-51521153D01*
X78199500Y-51678846D01*
X78230261Y-51833489D01*
X78230264Y-51833501D01*
X78290602Y-51979172D01*
X78290609Y-51979185D01*
X78378210Y-52110288D01*
X78378213Y-52110292D01*
X78489707Y-52221786D01*
X78489711Y-52221789D01*
X78620814Y-52309390D01*
X78620827Y-52309397D01*
X78766498Y-52369735D01*
X78766503Y-52369737D01*
X78921153Y-52400499D01*
X78921156Y-52400500D01*
X78921158Y-52400500D01*
X79078844Y-52400500D01*
X79078845Y-52400499D01*
X79233497Y-52369737D01*
X79379179Y-52309394D01*
X79510289Y-52221789D01*
X79621789Y-52110289D01*
X79709394Y-51979179D01*
X79751698Y-51877048D01*
X79795538Y-51822644D01*
X79861833Y-51800579D01*
X79866259Y-51800500D01*
X79978844Y-51800500D01*
X79978845Y-51800499D01*
X80133497Y-51769737D01*
X80279179Y-51709394D01*
X80279185Y-51709390D01*
X80410875Y-51621398D01*
X80428921Y-51615747D01*
X80444831Y-51605523D01*
X80475792Y-51601071D01*
X80477553Y-51600520D01*
X80479766Y-51600500D01*
X80520234Y-51600500D01*
X80587273Y-51620185D01*
X80589125Y-51621398D01*
X80720814Y-51709390D01*
X80720827Y-51709397D01*
X80866498Y-51769735D01*
X80866503Y-51769737D01*
X80978004Y-51791916D01*
X81021153Y-51800499D01*
X81021156Y-51800500D01*
X81021158Y-51800500D01*
X81178844Y-51800500D01*
X81178845Y-51800499D01*
X81333497Y-51769737D01*
X81479179Y-51709394D01*
X81610289Y-51621789D01*
X81721789Y-51510289D01*
X81809394Y-51379179D01*
X81869737Y-51233497D01*
X81900500Y-51078842D01*
X81900500Y-50921158D01*
X81900500Y-50921155D01*
X81900499Y-50921153D01*
X81890869Y-50872741D01*
X81869737Y-50766503D01*
X81861081Y-50745606D01*
X81809397Y-50620827D01*
X81809390Y-50620814D01*
X81721789Y-50489711D01*
X81721786Y-50489707D01*
X81610292Y-50378213D01*
X81610288Y-50378210D01*
X81479185Y-50290609D01*
X81479172Y-50290602D01*
X81333501Y-50230264D01*
X81333489Y-50230261D01*
X81178845Y-50199500D01*
X81178842Y-50199500D01*
X81021158Y-50199500D01*
X81021155Y-50199500D01*
X80866510Y-50230261D01*
X80866498Y-50230264D01*
X80720827Y-50290602D01*
X80720814Y-50290609D01*
X80589125Y-50378602D01*
X80571078Y-50384252D01*
X80555169Y-50394477D01*
X80524207Y-50398928D01*
X80522447Y-50399480D01*
X80520234Y-50399500D01*
X80479766Y-50399500D01*
X80412727Y-50379815D01*
X80410875Y-50378602D01*
X80279185Y-50290609D01*
X80279172Y-50290602D01*
X80133501Y-50230264D01*
X80133489Y-50230261D01*
X79978845Y-50199500D01*
X79978842Y-50199500D01*
X79866259Y-50199500D01*
X79799220Y-50179815D01*
X79753465Y-50127011D01*
X79751698Y-50122952D01*
X79709397Y-50020827D01*
X79709390Y-50020814D01*
X79621789Y-49889711D01*
X79621786Y-49889707D01*
X79510292Y-49778213D01*
X79510288Y-49778210D01*
X79379185Y-49690609D01*
X79379172Y-49690602D01*
X79233501Y-49630264D01*
X79233489Y-49630261D01*
X79078845Y-49599500D01*
X79078842Y-49599500D01*
X78921158Y-49599500D01*
X78921155Y-49599500D01*
X78766510Y-49630261D01*
X78766498Y-49630264D01*
X78620827Y-49690602D01*
X78620814Y-49690609D01*
X78489711Y-49778210D01*
X78489707Y-49778213D01*
X78378213Y-49889707D01*
X78378210Y-49889711D01*
X78290609Y-50020814D01*
X78290602Y-50020827D01*
X78230264Y-50166498D01*
X78230261Y-50166510D01*
X78199500Y-50321153D01*
X73000500Y-50321153D01*
X73000500Y-43921153D01*
X79099500Y-43921153D01*
X79099500Y-44078846D01*
X79130261Y-44233489D01*
X79130264Y-44233501D01*
X79190602Y-44379172D01*
X79190609Y-44379185D01*
X79278210Y-44510288D01*
X79278213Y-44510292D01*
X79389707Y-44621786D01*
X79389711Y-44621789D01*
X79520814Y-44709390D01*
X79520827Y-44709397D01*
X79658683Y-44766498D01*
X79666503Y-44769737D01*
X79731147Y-44782595D01*
X79821849Y-44800638D01*
X79883760Y-44833023D01*
X79885339Y-44834574D01*
X80345348Y-45294584D01*
X80372228Y-45334811D01*
X80390606Y-45379179D01*
X80390609Y-45379185D01*
X80478210Y-45510288D01*
X80478213Y-45510292D01*
X80589707Y-45621786D01*
X80589711Y-45621789D01*
X80720814Y-45709390D01*
X80720827Y-45709397D01*
X80866498Y-45769735D01*
X80866503Y-45769737D01*
X81021153Y-45800499D01*
X81021156Y-45800500D01*
X81021158Y-45800500D01*
X81178843Y-45800500D01*
X81194564Y-45797372D01*
X81251309Y-45786085D01*
X81320899Y-45792312D01*
X81376077Y-45835174D01*
X81399322Y-45901063D01*
X81399500Y-45907702D01*
X81399500Y-46420234D01*
X81379815Y-46487273D01*
X81378602Y-46489125D01*
X81290609Y-46620814D01*
X81290602Y-46620827D01*
X81230264Y-46766498D01*
X81230261Y-46766510D01*
X81199500Y-46921153D01*
X81199500Y-47078846D01*
X81230261Y-47233489D01*
X81230264Y-47233501D01*
X81290602Y-47379172D01*
X81290609Y-47379185D01*
X81378210Y-47510288D01*
X81378213Y-47510292D01*
X81489707Y-47621786D01*
X81489711Y-47621789D01*
X81620814Y-47709390D01*
X81620827Y-47709397D01*
X81766498Y-47769735D01*
X81766503Y-47769737D01*
X81921153Y-47800499D01*
X81921156Y-47800500D01*
X81921158Y-47800500D01*
X82078844Y-47800500D01*
X82078845Y-47800499D01*
X82090730Y-47798135D01*
X123558000Y-47798135D01*
X123558000Y-49201870D01*
X123558001Y-49201876D01*
X123564408Y-49261483D01*
X123614702Y-49396328D01*
X123614706Y-49396335D01*
X123700952Y-49511544D01*
X123700955Y-49511547D01*
X123816164Y-49597793D01*
X123816171Y-49597797D01*
X123861118Y-49614561D01*
X123951017Y-49648091D01*
X124010627Y-49654500D01*
X124169193Y-49654499D01*
X124236230Y-49674183D01*
X124256872Y-49690818D01*
X124666054Y-50100000D01*
X124659839Y-50100000D01*
X124558106Y-50127259D01*
X124466894Y-50179920D01*
X124392420Y-50254394D01*
X124339759Y-50345606D01*
X124312500Y-50447339D01*
X124312500Y-50453553D01*
X123737549Y-49878602D01*
X123737548Y-49878603D01*
X123725518Y-49895161D01*
X123725512Y-49895170D01*
X123643048Y-50057015D01*
X123586915Y-50229774D01*
X123558500Y-50409178D01*
X123558500Y-50590821D01*
X123586915Y-50770225D01*
X123643048Y-50942984D01*
X123725512Y-51104830D01*
X123725514Y-51104834D01*
X123737548Y-51121395D01*
X123737549Y-51121396D01*
X124312500Y-50546445D01*
X124312500Y-50552661D01*
X124339759Y-50654394D01*
X124392420Y-50745606D01*
X124466894Y-50820080D01*
X124558106Y-50872741D01*
X124659839Y-50900000D01*
X124666054Y-50900000D01*
X124091102Y-51474949D01*
X124091103Y-51474950D01*
X124107665Y-51486985D01*
X124107679Y-51486993D01*
X124269512Y-51569450D01*
X124442274Y-51625584D01*
X124621679Y-51654000D01*
X124803321Y-51654000D01*
X124982725Y-51625584D01*
X125155484Y-51569451D01*
X125317331Y-51486986D01*
X125333896Y-51474949D01*
X124758947Y-50900000D01*
X124765161Y-50900000D01*
X124866894Y-50872741D01*
X124958106Y-50820080D01*
X125032580Y-50745606D01*
X125085241Y-50654394D01*
X125112500Y-50552661D01*
X125112500Y-50546446D01*
X125687449Y-51121395D01*
X125699486Y-51104831D01*
X125781951Y-50942984D01*
X125838084Y-50770225D01*
X125866500Y-50590821D01*
X125866500Y-50409178D01*
X125838084Y-50229774D01*
X125781950Y-50057012D01*
X125699493Y-49895179D01*
X125699485Y-49895165D01*
X125687450Y-49878603D01*
X125687449Y-49878602D01*
X125112500Y-50453552D01*
X125112500Y-50447339D01*
X125085241Y-50345606D01*
X125032580Y-50254394D01*
X124958106Y-50179920D01*
X124866894Y-50127259D01*
X124765161Y-50100000D01*
X124758947Y-50100000D01*
X125168127Y-49690818D01*
X125229450Y-49657333D01*
X125255806Y-49654499D01*
X125414372Y-49654499D01*
X125473983Y-49648091D01*
X125608831Y-49597796D01*
X125724046Y-49511546D01*
X125810296Y-49396331D01*
X125860591Y-49261483D01*
X125867000Y-49201873D01*
X125866999Y-47798128D01*
X125860591Y-47738517D01*
X125849727Y-47709390D01*
X125810297Y-47603671D01*
X125810293Y-47603664D01*
X125724047Y-47488455D01*
X125724044Y-47488452D01*
X125608835Y-47402206D01*
X125608828Y-47402202D01*
X125473982Y-47351908D01*
X125473983Y-47351908D01*
X125414383Y-47345501D01*
X125414381Y-47345500D01*
X125414373Y-47345500D01*
X125414364Y-47345500D01*
X124010629Y-47345500D01*
X124010623Y-47345501D01*
X123951016Y-47351908D01*
X123816171Y-47402202D01*
X123816164Y-47402206D01*
X123700955Y-47488452D01*
X123700952Y-47488455D01*
X123614706Y-47603664D01*
X123614702Y-47603671D01*
X123564408Y-47738517D01*
X123561052Y-47769737D01*
X123558001Y-47798123D01*
X123558000Y-47798135D01*
X82090730Y-47798135D01*
X82233497Y-47769737D01*
X82379179Y-47709394D01*
X82379185Y-47709390D01*
X82405655Y-47691704D01*
X82459835Y-47655500D01*
X82510289Y-47621789D01*
X82621789Y-47510289D01*
X82709394Y-47379179D01*
X82769737Y-47233497D01*
X82800500Y-47078842D01*
X82800500Y-46921158D01*
X82800500Y-46921155D01*
X82800499Y-46921153D01*
X82769738Y-46766510D01*
X82769737Y-46766503D01*
X82769735Y-46766498D01*
X82709397Y-46620827D01*
X82709390Y-46620814D01*
X82621398Y-46489125D01*
X82600520Y-46422447D01*
X82600500Y-46420234D01*
X82600500Y-45579765D01*
X82620185Y-45512726D01*
X82621398Y-45510874D01*
X82709390Y-45379185D01*
X82709390Y-45379184D01*
X82709394Y-45379179D01*
X82769737Y-45233497D01*
X82800500Y-45078842D01*
X82800500Y-44921158D01*
X82800500Y-44921155D01*
X82800499Y-44921153D01*
X82769738Y-44766510D01*
X82769737Y-44766503D01*
X82709794Y-44621786D01*
X82709397Y-44620827D01*
X82709390Y-44620814D01*
X82621790Y-44489712D01*
X82621784Y-44489705D01*
X82553232Y-44421153D01*
X111199500Y-44421153D01*
X111199500Y-44578846D01*
X111230261Y-44733489D01*
X111230264Y-44733501D01*
X111290602Y-44879172D01*
X111290609Y-44879185D01*
X111378210Y-45010288D01*
X111378213Y-45010292D01*
X111489707Y-45121786D01*
X111489711Y-45121789D01*
X111620814Y-45209390D01*
X111620827Y-45209397D01*
X111766498Y-45269735D01*
X111766503Y-45269737D01*
X111921153Y-45300499D01*
X111921156Y-45300500D01*
X111921158Y-45300500D01*
X112078844Y-45300500D01*
X112078845Y-45300499D01*
X112233497Y-45269737D01*
X112379179Y-45209394D01*
X112510289Y-45121789D01*
X112621789Y-45010289D01*
X112709394Y-44879179D01*
X112769737Y-44733497D01*
X112792151Y-44620814D01*
X112800638Y-44578150D01*
X112833023Y-44516239D01*
X112834518Y-44514716D01*
X113512416Y-43836819D01*
X113573739Y-43803334D01*
X113600097Y-43800500D01*
X113678844Y-43800500D01*
X113678845Y-43800499D01*
X113833497Y-43769737D01*
X113979179Y-43709394D01*
X114110289Y-43621789D01*
X114221789Y-43510289D01*
X114309394Y-43379179D01*
X114369737Y-43233497D01*
X114400500Y-43078842D01*
X114400500Y-42921158D01*
X114400500Y-42921155D01*
X114400499Y-42921153D01*
X114383145Y-42833910D01*
X114369737Y-42766503D01*
X114342191Y-42700000D01*
X114309397Y-42620827D01*
X114309390Y-42620814D01*
X114221789Y-42489711D01*
X114221786Y-42489707D01*
X114110292Y-42378213D01*
X114110288Y-42378210D01*
X113979185Y-42290609D01*
X113979172Y-42290602D01*
X113833501Y-42230264D01*
X113833489Y-42230261D01*
X113678845Y-42199500D01*
X113678842Y-42199500D01*
X113521158Y-42199500D01*
X113521155Y-42199500D01*
X113366510Y-42230261D01*
X113366498Y-42230264D01*
X113220827Y-42290602D01*
X113220814Y-42290609D01*
X113089711Y-42378210D01*
X113089707Y-42378213D01*
X112978213Y-42489707D01*
X112978210Y-42489711D01*
X112890609Y-42620814D01*
X112890602Y-42620827D01*
X112830263Y-42766500D01*
X112830261Y-42766507D01*
X112824192Y-42797019D01*
X112791806Y-42858930D01*
X112790256Y-42860507D01*
X111985339Y-43665425D01*
X111924016Y-43698910D01*
X111921850Y-43699361D01*
X111766508Y-43730261D01*
X111766498Y-43730264D01*
X111620827Y-43790602D01*
X111620814Y-43790609D01*
X111489711Y-43878210D01*
X111489707Y-43878213D01*
X111378213Y-43989707D01*
X111378210Y-43989711D01*
X111290609Y-44120814D01*
X111290602Y-44120827D01*
X111230264Y-44266498D01*
X111230261Y-44266510D01*
X111199500Y-44421153D01*
X82553232Y-44421153D01*
X82510292Y-44378213D01*
X82510288Y-44378210D01*
X82379185Y-44290609D01*
X82379172Y-44290602D01*
X82233501Y-44230264D01*
X82233489Y-44230261D01*
X82078845Y-44199500D01*
X82078842Y-44199500D01*
X81921158Y-44199500D01*
X81921155Y-44199500D01*
X81766510Y-44230261D01*
X81766498Y-44230264D01*
X81620822Y-44290604D01*
X81620820Y-44290605D01*
X81618885Y-44291899D01*
X81617717Y-44292264D01*
X81615451Y-44293476D01*
X81615221Y-44293045D01*
X81552206Y-44312773D01*
X81484827Y-44294285D01*
X81481115Y-44291899D01*
X81479179Y-44290605D01*
X81479177Y-44290604D01*
X81333501Y-44230264D01*
X81333489Y-44230261D01*
X81178845Y-44199500D01*
X81178842Y-44199500D01*
X81021158Y-44199500D01*
X81015096Y-44200097D01*
X81014982Y-44198945D01*
X81010411Y-44200651D01*
X80983503Y-44194797D01*
X80956076Y-44192322D01*
X80948112Y-44187098D01*
X80942138Y-44185799D01*
X80913884Y-44164648D01*
X80867197Y-44117961D01*
X100864880Y-44117961D01*
X100864880Y-44117962D01*
X100868429Y-44120334D01*
X100995813Y-44173097D01*
X100995823Y-44173100D01*
X101131053Y-44200000D01*
X101268946Y-44200000D01*
X101404176Y-44173100D01*
X101404186Y-44173097D01*
X101531570Y-44120334D01*
X101531572Y-44120332D01*
X101535119Y-44117961D01*
X102264880Y-44117961D01*
X102264880Y-44117962D01*
X102268429Y-44120334D01*
X102395813Y-44173097D01*
X102395823Y-44173100D01*
X102531053Y-44200000D01*
X102668946Y-44200000D01*
X102804176Y-44173100D01*
X102804186Y-44173097D01*
X102931570Y-44120334D01*
X102931572Y-44120332D01*
X102935119Y-44117961D01*
X102600001Y-43782842D01*
X102600000Y-43782842D01*
X102264880Y-44117961D01*
X101535119Y-44117961D01*
X101200001Y-43782842D01*
X101200000Y-43782842D01*
X100864880Y-44117961D01*
X80867197Y-44117961D01*
X80734573Y-43985337D01*
X80701088Y-43924014D01*
X80700637Y-43921847D01*
X80683724Y-43836819D01*
X80669737Y-43766503D01*
X80669735Y-43766498D01*
X80609397Y-43620827D01*
X80609390Y-43620814D01*
X80521789Y-43489711D01*
X80521786Y-43489707D01*
X80450040Y-43417961D01*
X100164880Y-43417961D01*
X100164880Y-43417962D01*
X100168429Y-43420334D01*
X100295813Y-43473097D01*
X100295825Y-43473100D01*
X100407299Y-43495274D01*
X100469210Y-43527658D01*
X100503784Y-43588374D01*
X100504725Y-43592699D01*
X100526899Y-43704176D01*
X100526901Y-43704182D01*
X100579668Y-43831573D01*
X100579668Y-43831574D01*
X100582037Y-43835119D01*
X100917157Y-43500000D01*
X100897266Y-43480109D01*
X101100000Y-43480109D01*
X101100000Y-43519891D01*
X101115224Y-43556645D01*
X101143355Y-43584776D01*
X101180109Y-43600000D01*
X101219891Y-43600000D01*
X101256645Y-43584776D01*
X101284776Y-43556645D01*
X101300000Y-43519891D01*
X101300000Y-43499999D01*
X101482842Y-43499999D01*
X101482842Y-43500000D01*
X101817961Y-43835119D01*
X101836824Y-43833263D01*
X101850526Y-43821818D01*
X101919853Y-43813125D01*
X101961597Y-43833107D01*
X101982037Y-43835119D01*
X102317157Y-43500000D01*
X102297266Y-43480109D01*
X102500000Y-43480109D01*
X102500000Y-43519891D01*
X102515224Y-43556645D01*
X102543355Y-43584776D01*
X102580109Y-43600000D01*
X102619891Y-43600000D01*
X102656645Y-43584776D01*
X102684776Y-43556645D01*
X102700000Y-43519891D01*
X102700000Y-43499999D01*
X102882842Y-43499999D01*
X102882842Y-43500000D01*
X103217961Y-43835119D01*
X103220332Y-43831572D01*
X103220334Y-43831570D01*
X103273097Y-43704186D01*
X103273097Y-43704184D01*
X103295273Y-43592700D01*
X103327658Y-43530789D01*
X103388374Y-43496215D01*
X103392700Y-43495273D01*
X103504184Y-43473097D01*
X103504186Y-43473097D01*
X103631570Y-43420334D01*
X103631572Y-43420332D01*
X103635119Y-43417961D01*
X103300001Y-43082842D01*
X103299999Y-43082842D01*
X103137365Y-43245477D01*
X102882842Y-43499999D01*
X102700000Y-43499999D01*
X102700000Y-43480109D01*
X102684776Y-43443355D01*
X102656645Y-43415224D01*
X102619891Y-43400000D01*
X102580109Y-43400000D01*
X102543355Y-43415224D01*
X102515224Y-43443355D01*
X102500000Y-43480109D01*
X102297266Y-43480109D01*
X102062634Y-43245477D01*
X102062632Y-43245474D01*
X101900001Y-43082842D01*
X101899999Y-43082842D01*
X101737365Y-43245477D01*
X101482842Y-43499999D01*
X101300000Y-43499999D01*
X101300000Y-43480109D01*
X101284776Y-43443355D01*
X101256645Y-43415224D01*
X101219891Y-43400000D01*
X101180109Y-43400000D01*
X101143355Y-43415224D01*
X101115224Y-43443355D01*
X101100000Y-43480109D01*
X100897266Y-43480109D01*
X100499999Y-43082842D01*
X100499998Y-43082842D01*
X100164880Y-43417961D01*
X80450040Y-43417961D01*
X80410292Y-43378213D01*
X80410288Y-43378210D01*
X80279185Y-43290609D01*
X80279172Y-43290602D01*
X80133501Y-43230264D01*
X80133489Y-43230261D01*
X79978845Y-43199500D01*
X79978842Y-43199500D01*
X79821158Y-43199500D01*
X79821155Y-43199500D01*
X79666510Y-43230261D01*
X79666498Y-43230264D01*
X79520827Y-43290602D01*
X79520814Y-43290609D01*
X79389711Y-43378210D01*
X79389707Y-43378213D01*
X79278213Y-43489707D01*
X79278210Y-43489711D01*
X79190609Y-43620814D01*
X79190602Y-43620827D01*
X79130264Y-43766498D01*
X79130261Y-43766510D01*
X79099500Y-43921153D01*
X73000500Y-43921153D01*
X73000500Y-42868946D01*
X99799999Y-42868946D01*
X99826899Y-43004176D01*
X99826901Y-43004181D01*
X99879668Y-43131573D01*
X99879668Y-43131574D01*
X99882037Y-43135119D01*
X100217157Y-42800000D01*
X100197266Y-42780109D01*
X100400000Y-42780109D01*
X100400000Y-42819891D01*
X100415224Y-42856645D01*
X100443355Y-42884776D01*
X100480109Y-42900000D01*
X100519891Y-42900000D01*
X100556645Y-42884776D01*
X100584776Y-42856645D01*
X100600000Y-42819891D01*
X100600000Y-42799999D01*
X100782841Y-42799999D01*
X100987025Y-43004181D01*
X100987025Y-43004182D01*
X101200000Y-43217157D01*
X101617157Y-42800000D01*
X101597266Y-42780109D01*
X101800000Y-42780109D01*
X101800000Y-42819891D01*
X101815224Y-42856645D01*
X101843355Y-42884776D01*
X101880109Y-42900000D01*
X101919891Y-42900000D01*
X101956645Y-42884776D01*
X101984776Y-42856645D01*
X102000000Y-42819891D01*
X102000000Y-42799999D01*
X102182842Y-42799999D01*
X102387025Y-43004181D01*
X102387025Y-43004182D01*
X102600000Y-43217157D01*
X103017157Y-42800000D01*
X102997266Y-42780109D01*
X103200000Y-42780109D01*
X103200000Y-42819891D01*
X103215224Y-42856645D01*
X103243355Y-42884776D01*
X103280109Y-42900000D01*
X103319891Y-42900000D01*
X103356645Y-42884776D01*
X103384776Y-42856645D01*
X103400000Y-42819891D01*
X103400000Y-42800000D01*
X103582842Y-42800000D01*
X103917961Y-43135119D01*
X103920332Y-43131572D01*
X103920334Y-43131570D01*
X103973099Y-43004182D01*
X103973100Y-43004176D01*
X104000000Y-42868946D01*
X104000000Y-42731053D01*
X103973100Y-42595823D01*
X103973097Y-42595813D01*
X103920334Y-42468429D01*
X103917961Y-42464880D01*
X103582842Y-42800000D01*
X103400000Y-42800000D01*
X103400000Y-42780109D01*
X103384776Y-42743355D01*
X103356645Y-42715224D01*
X103319891Y-42700000D01*
X103280109Y-42700000D01*
X103243355Y-42715224D01*
X103215224Y-42743355D01*
X103200000Y-42780109D01*
X102997266Y-42780109D01*
X102762634Y-42545477D01*
X102762632Y-42545474D01*
X102600001Y-42382842D01*
X102599999Y-42382842D01*
X102437365Y-42545477D01*
X102182842Y-42799999D01*
X102000000Y-42799999D01*
X102000000Y-42780109D01*
X101984776Y-42743355D01*
X101956645Y-42715224D01*
X101919891Y-42700000D01*
X101880109Y-42700000D01*
X101843355Y-42715224D01*
X101815224Y-42743355D01*
X101800000Y-42780109D01*
X101597266Y-42780109D01*
X101362634Y-42545477D01*
X101362632Y-42545474D01*
X101200001Y-42382842D01*
X101199999Y-42382842D01*
X101037365Y-42545477D01*
X100782841Y-42799999D01*
X100600000Y-42799999D01*
X100600000Y-42780109D01*
X100584776Y-42743355D01*
X100556645Y-42715224D01*
X100519891Y-42700000D01*
X100480109Y-42700000D01*
X100443355Y-42715224D01*
X100415224Y-42743355D01*
X100400000Y-42780109D01*
X100197266Y-42780109D01*
X99882037Y-42464880D01*
X99882036Y-42464880D01*
X99879667Y-42468427D01*
X99879666Y-42468428D01*
X99826902Y-42595813D01*
X99826899Y-42595823D01*
X99800000Y-42731053D01*
X99800000Y-42868946D01*
X99799999Y-42868946D01*
X73000500Y-42868946D01*
X73000500Y-42017961D01*
X100164880Y-42017961D01*
X100166738Y-42036839D01*
X100178167Y-42050517D01*
X100186866Y-42119843D01*
X100185465Y-42127107D01*
X100171641Y-42188798D01*
X100499998Y-42517157D01*
X100499999Y-42517157D01*
X100760883Y-42256274D01*
X100917157Y-42100000D01*
X100897266Y-42080109D01*
X101100000Y-42080109D01*
X101100000Y-42119891D01*
X101115224Y-42156645D01*
X101143355Y-42184776D01*
X101180109Y-42200000D01*
X101219891Y-42200000D01*
X101256645Y-42184776D01*
X101284776Y-42156645D01*
X101300000Y-42119891D01*
X101300000Y-42099999D01*
X101482842Y-42099999D01*
X101482842Y-42100000D01*
X101639102Y-42256260D01*
X101639117Y-42256274D01*
X101900000Y-42517157D01*
X102317157Y-42100000D01*
X102297266Y-42080109D01*
X102500000Y-42080109D01*
X102500000Y-42119891D01*
X102515224Y-42156645D01*
X102543355Y-42184776D01*
X102580109Y-42200000D01*
X102619891Y-42200000D01*
X102656645Y-42184776D01*
X102684776Y-42156645D01*
X102700000Y-42119891D01*
X102700000Y-42099999D01*
X102882842Y-42099999D01*
X102882842Y-42100000D01*
X103039102Y-42256260D01*
X103039117Y-42256274D01*
X103300000Y-42517157D01*
X103300001Y-42517157D01*
X103635119Y-42182037D01*
X103633261Y-42163162D01*
X103621825Y-42149477D01*
X103613122Y-42080151D01*
X103633111Y-42038378D01*
X103635119Y-42017961D01*
X103300001Y-41682842D01*
X103299999Y-41682842D01*
X103137365Y-41845477D01*
X102882842Y-42099999D01*
X102700000Y-42099999D01*
X102700000Y-42080109D01*
X102684776Y-42043355D01*
X102656645Y-42015224D01*
X102619891Y-42000000D01*
X102580109Y-42000000D01*
X102543355Y-42015224D01*
X102515224Y-42043355D01*
X102500000Y-42080109D01*
X102297266Y-42080109D01*
X102062634Y-41845477D01*
X102062632Y-41845474D01*
X101900001Y-41682842D01*
X101899999Y-41682842D01*
X101737365Y-41845477D01*
X101482842Y-42099999D01*
X101300000Y-42099999D01*
X101300000Y-42080109D01*
X101284776Y-42043355D01*
X101256645Y-42015224D01*
X101219891Y-42000000D01*
X101180109Y-42000000D01*
X101143355Y-42015224D01*
X101115224Y-42043355D01*
X101100000Y-42080109D01*
X100897266Y-42080109D01*
X100499999Y-41682842D01*
X100499998Y-41682842D01*
X100164880Y-42017961D01*
X73000500Y-42017961D01*
X73000500Y-32101043D01*
X74099499Y-32101043D01*
X74137947Y-32294329D01*
X74137950Y-32294339D01*
X74213364Y-32476407D01*
X74213371Y-32476420D01*
X74322860Y-32640281D01*
X74322863Y-32640285D01*
X74462214Y-32779636D01*
X74462218Y-32779639D01*
X74626079Y-32889128D01*
X74626092Y-32889135D01*
X74717125Y-32926841D01*
X74808165Y-32964551D01*
X74808176Y-32964553D01*
X74811491Y-32965559D01*
X74813023Y-32966563D01*
X74813793Y-32966882D01*
X74813732Y-32967027D01*
X74869931Y-33003855D01*
X74898390Y-33067666D01*
X74899500Y-33084221D01*
X74899500Y-39560778D01*
X74879815Y-39627817D01*
X74827011Y-39673572D01*
X74811499Y-39679437D01*
X74808167Y-39680447D01*
X74626092Y-39755864D01*
X74626079Y-39755871D01*
X74462218Y-39865360D01*
X74462214Y-39865363D01*
X74322863Y-40004714D01*
X74322860Y-40004718D01*
X74213371Y-40168579D01*
X74213364Y-40168592D01*
X74137950Y-40350660D01*
X74137947Y-40350670D01*
X74099500Y-40543956D01*
X74099500Y-40543959D01*
X74099500Y-40741041D01*
X74099500Y-40741043D01*
X74099499Y-40741043D01*
X74137947Y-40934329D01*
X74137950Y-40934339D01*
X74213364Y-41116407D01*
X74213371Y-41116420D01*
X74322860Y-41280281D01*
X74322863Y-41280285D01*
X74462214Y-41419636D01*
X74462218Y-41419639D01*
X74626079Y-41529128D01*
X74626092Y-41529135D01*
X74807272Y-41604181D01*
X74808165Y-41604551D01*
X74808169Y-41604551D01*
X74808170Y-41604552D01*
X75001456Y-41643000D01*
X75001459Y-41643000D01*
X75998543Y-41643000D01*
X76128582Y-41617132D01*
X76191835Y-41604551D01*
X76373914Y-41529132D01*
X76537782Y-41419639D01*
X76577312Y-41380109D01*
X76678103Y-41279319D01*
X76739426Y-41245834D01*
X76765784Y-41243000D01*
X78264216Y-41243000D01*
X78331255Y-41262685D01*
X78351897Y-41279319D01*
X78492214Y-41419636D01*
X78492218Y-41419639D01*
X78656079Y-41529128D01*
X78656092Y-41529135D01*
X78837272Y-41604181D01*
X78838165Y-41604551D01*
X78838169Y-41604551D01*
X78838170Y-41604552D01*
X79031456Y-41643000D01*
X79031459Y-41643000D01*
X80328543Y-41643000D01*
X80458582Y-41617132D01*
X80521835Y-41604551D01*
X80703914Y-41529132D01*
X80793989Y-41468946D01*
X99799999Y-41468946D01*
X99826899Y-41604176D01*
X99826901Y-41604181D01*
X99879668Y-41731573D01*
X99879668Y-41731574D01*
X99882037Y-41735119D01*
X100217157Y-41400000D01*
X100197266Y-41380109D01*
X100400000Y-41380109D01*
X100400000Y-41419891D01*
X100415224Y-41456645D01*
X100443355Y-41484776D01*
X100480109Y-41500000D01*
X100519891Y-41500000D01*
X100556645Y-41484776D01*
X100584776Y-41456645D01*
X100600000Y-41419891D01*
X100600000Y-41399999D01*
X100782841Y-41399999D01*
X100987025Y-41604181D01*
X100987025Y-41604182D01*
X101200000Y-41817157D01*
X101617157Y-41400000D01*
X101597266Y-41380109D01*
X101800000Y-41380109D01*
X101800000Y-41419891D01*
X101815224Y-41456645D01*
X101843355Y-41484776D01*
X101880109Y-41500000D01*
X101919891Y-41500000D01*
X101956645Y-41484776D01*
X101984776Y-41456645D01*
X102000000Y-41419891D01*
X102000000Y-41399999D01*
X102182841Y-41399999D01*
X102387025Y-41604181D01*
X102387025Y-41604182D01*
X102600000Y-41817157D01*
X103017157Y-41400000D01*
X102997266Y-41380109D01*
X103200000Y-41380109D01*
X103200000Y-41419891D01*
X103215224Y-41456645D01*
X103243355Y-41484776D01*
X103280109Y-41500000D01*
X103319891Y-41500000D01*
X103356645Y-41484776D01*
X103384776Y-41456645D01*
X103400000Y-41419891D01*
X103400000Y-41400000D01*
X103582842Y-41400000D01*
X103917961Y-41735119D01*
X103920332Y-41731572D01*
X103920334Y-41731570D01*
X103973099Y-41604182D01*
X103973100Y-41604176D01*
X104000000Y-41468946D01*
X104000000Y-41331053D01*
X103973100Y-41195823D01*
X103973097Y-41195813D01*
X103920334Y-41068429D01*
X103917961Y-41064880D01*
X103582842Y-41400000D01*
X103400000Y-41400000D01*
X103400000Y-41380109D01*
X103384776Y-41343355D01*
X103356645Y-41315224D01*
X103319891Y-41300000D01*
X103280109Y-41300000D01*
X103243355Y-41315224D01*
X103215224Y-41343355D01*
X103200000Y-41380109D01*
X102997266Y-41380109D01*
X102762634Y-41145477D01*
X102762632Y-41145474D01*
X102600001Y-40982842D01*
X102599999Y-40982842D01*
X102437365Y-41145477D01*
X102182841Y-41399999D01*
X102000000Y-41399999D01*
X102000000Y-41380109D01*
X101984776Y-41343355D01*
X101956645Y-41315224D01*
X101919891Y-41300000D01*
X101880109Y-41300000D01*
X101843355Y-41315224D01*
X101815224Y-41343355D01*
X101800000Y-41380109D01*
X101597266Y-41380109D01*
X101362634Y-41145477D01*
X101362632Y-41145474D01*
X101200001Y-40982842D01*
X101199999Y-40982842D01*
X101037365Y-41145477D01*
X100782841Y-41399999D01*
X100600000Y-41399999D01*
X100600000Y-41380109D01*
X100584776Y-41343355D01*
X100556645Y-41315224D01*
X100519891Y-41300000D01*
X100480109Y-41300000D01*
X100443355Y-41315224D01*
X100415224Y-41343355D01*
X100400000Y-41380109D01*
X100197266Y-41380109D01*
X99882037Y-41064880D01*
X99882036Y-41064880D01*
X99879667Y-41068427D01*
X99879666Y-41068428D01*
X99826902Y-41195813D01*
X99826899Y-41195823D01*
X99800000Y-41331053D01*
X99800000Y-41468946D01*
X99799999Y-41468946D01*
X80793989Y-41468946D01*
X80867782Y-41419639D01*
X81007139Y-41280282D01*
X81116632Y-41116414D01*
X81192051Y-40934335D01*
X81218772Y-40800000D01*
X81222345Y-40782036D01*
X100164880Y-40782036D01*
X100164880Y-40782037D01*
X100499998Y-41117157D01*
X100499999Y-41117157D01*
X100760883Y-40856274D01*
X100917157Y-40699999D01*
X100917157Y-40699998D01*
X100897268Y-40680109D01*
X101100000Y-40680109D01*
X101100000Y-40719891D01*
X101115224Y-40756645D01*
X101143355Y-40784776D01*
X101180109Y-40800000D01*
X101219891Y-40800000D01*
X101256645Y-40784776D01*
X101284776Y-40756645D01*
X101300000Y-40719891D01*
X101300000Y-40699998D01*
X101482842Y-40699998D01*
X101482842Y-40699999D01*
X101900000Y-41117157D01*
X102160883Y-40856274D01*
X102317157Y-40699999D01*
X102317157Y-40699998D01*
X102297268Y-40680109D01*
X102500000Y-40680109D01*
X102500000Y-40719891D01*
X102515224Y-40756645D01*
X102543355Y-40784776D01*
X102580109Y-40800000D01*
X102619891Y-40800000D01*
X102656645Y-40784776D01*
X102684776Y-40756645D01*
X102700000Y-40719891D01*
X102700000Y-40699998D01*
X102882842Y-40699998D01*
X102882842Y-40699999D01*
X103300000Y-41117157D01*
X103300001Y-41117157D01*
X103635119Y-40782037D01*
X103631574Y-40779668D01*
X103504182Y-40726901D01*
X103504176Y-40726899D01*
X103392699Y-40704725D01*
X103330788Y-40672340D01*
X103296214Y-40611624D01*
X103295274Y-40607299D01*
X103273100Y-40495825D01*
X103273097Y-40495813D01*
X103220334Y-40368429D01*
X103217962Y-40364880D01*
X103217961Y-40364880D01*
X102882842Y-40699998D01*
X102700000Y-40699998D01*
X102700000Y-40680109D01*
X102684776Y-40643355D01*
X102656645Y-40615224D01*
X102619891Y-40600000D01*
X102580109Y-40600000D01*
X102543355Y-40615224D01*
X102515224Y-40643355D01*
X102500000Y-40680109D01*
X102297268Y-40680109D01*
X101982037Y-40364880D01*
X101963148Y-40366741D01*
X101949486Y-40378160D01*
X101880161Y-40386869D01*
X101838407Y-40366892D01*
X101817961Y-40364880D01*
X101482842Y-40699998D01*
X101300000Y-40699998D01*
X101300000Y-40680109D01*
X101284776Y-40643355D01*
X101256645Y-40615224D01*
X101219891Y-40600000D01*
X101180109Y-40600000D01*
X101143355Y-40615224D01*
X101115224Y-40643355D01*
X101100000Y-40680109D01*
X100897268Y-40680109D01*
X100582037Y-40364880D01*
X100582036Y-40364880D01*
X100579667Y-40368427D01*
X100579666Y-40368428D01*
X100526902Y-40495813D01*
X100526899Y-40495823D01*
X100504725Y-40607300D01*
X100472340Y-40669211D01*
X100411624Y-40703785D01*
X100407300Y-40704725D01*
X100295823Y-40726899D01*
X100295813Y-40726902D01*
X100168428Y-40779666D01*
X100168427Y-40779667D01*
X100164880Y-40782036D01*
X81222345Y-40782036D01*
X81230500Y-40741043D01*
X81230500Y-40543956D01*
X81192052Y-40350670D01*
X81192051Y-40350669D01*
X81192051Y-40350665D01*
X81116632Y-40168586D01*
X81116629Y-40168581D01*
X81116628Y-40168579D01*
X81058802Y-40082036D01*
X100864880Y-40082036D01*
X100864880Y-40082037D01*
X101200000Y-40417157D01*
X101200001Y-40417157D01*
X101535119Y-40082037D01*
X101535118Y-40082036D01*
X102264880Y-40082036D01*
X102264880Y-40082037D01*
X102600000Y-40417157D01*
X102600001Y-40417157D01*
X102935119Y-40082037D01*
X102931574Y-40079668D01*
X102804182Y-40026901D01*
X102804176Y-40026899D01*
X102668946Y-40000000D01*
X102531054Y-40000000D01*
X102395823Y-40026899D01*
X102395813Y-40026902D01*
X102268428Y-40079666D01*
X102268427Y-40079667D01*
X102264880Y-40082036D01*
X101535118Y-40082036D01*
X101531574Y-40079668D01*
X101404182Y-40026901D01*
X101404176Y-40026899D01*
X101268946Y-40000000D01*
X101131054Y-40000000D01*
X100995823Y-40026899D01*
X100995813Y-40026902D01*
X100868428Y-40079666D01*
X100868427Y-40079667D01*
X100864880Y-40082036D01*
X81058802Y-40082036D01*
X81007139Y-40004718D01*
X81007136Y-40004714D01*
X80867785Y-39865363D01*
X80867781Y-39865360D01*
X80703920Y-39755871D01*
X80703907Y-39755864D01*
X80521839Y-39680450D01*
X80521829Y-39680447D01*
X80328543Y-39642000D01*
X80328541Y-39642000D01*
X79695863Y-39642000D01*
X79628824Y-39622315D01*
X79583069Y-39569511D01*
X79573125Y-39500353D01*
X79588475Y-39456001D01*
X79596295Y-39442455D01*
X79623095Y-39396036D01*
X79655500Y-39275101D01*
X79655500Y-39149899D01*
X79623095Y-39028964D01*
X79560495Y-38920536D01*
X79471964Y-38832005D01*
X79363536Y-38769405D01*
X79363537Y-38769405D01*
X79323224Y-38758603D01*
X79242601Y-38737000D01*
X79117399Y-38737000D01*
X79036775Y-38758603D01*
X78996463Y-38769405D01*
X78888037Y-38832004D01*
X78888034Y-38832006D01*
X78799506Y-38920534D01*
X78799504Y-38920537D01*
X78736905Y-39028963D01*
X78736905Y-39028964D01*
X78704500Y-39149899D01*
X78704500Y-39275101D01*
X78736905Y-39396036D01*
X78799504Y-39504462D01*
X78799506Y-39504465D01*
X78804044Y-39509003D01*
X78837529Y-39570326D01*
X78832545Y-39640018D01*
X78790673Y-39695951D01*
X78763815Y-39711245D01*
X78656092Y-39755864D01*
X78656079Y-39755871D01*
X78492218Y-39865360D01*
X78492214Y-39865363D01*
X78351897Y-40005681D01*
X78290574Y-40039166D01*
X78264216Y-40042000D01*
X76765784Y-40042000D01*
X76698745Y-40022315D01*
X76678103Y-40005681D01*
X76537785Y-39865363D01*
X76537781Y-39865360D01*
X76373920Y-39755871D01*
X76373907Y-39755864D01*
X76191832Y-39680447D01*
X76188501Y-39679437D01*
X76186970Y-39678433D01*
X76186208Y-39678118D01*
X76186267Y-39677973D01*
X76130063Y-39641138D01*
X76101609Y-39577325D01*
X76100500Y-39560778D01*
X76100500Y-33084221D01*
X76120185Y-33017182D01*
X76172989Y-32971427D01*
X76188509Y-32965559D01*
X76191820Y-32964553D01*
X76191835Y-32964551D01*
X76373914Y-32889132D01*
X76537782Y-32779639D01*
X76537785Y-32779636D01*
X76678103Y-32639319D01*
X76739426Y-32605834D01*
X76765784Y-32603000D01*
X78264216Y-32603000D01*
X78331255Y-32622685D01*
X78351897Y-32639319D01*
X78492214Y-32779636D01*
X78492218Y-32779639D01*
X78656079Y-32889128D01*
X78656083Y-32889130D01*
X78656086Y-32889132D01*
X78763818Y-32933756D01*
X78818218Y-32977594D01*
X78840284Y-33043888D01*
X78823005Y-33111587D01*
X78804049Y-33135992D01*
X78799504Y-33140536D01*
X78799504Y-33140537D01*
X78736905Y-33248963D01*
X78736905Y-33248964D01*
X78704500Y-33369899D01*
X78704500Y-33495101D01*
X78736905Y-33616036D01*
X78799505Y-33724464D01*
X78888036Y-33812995D01*
X78996464Y-33875595D01*
X79117399Y-33908000D01*
X79117401Y-33908000D01*
X79242599Y-33908000D01*
X79242601Y-33908000D01*
X79363536Y-33875595D01*
X79471964Y-33812995D01*
X79560495Y-33724464D01*
X79623095Y-33616036D01*
X79655500Y-33495101D01*
X79655500Y-33369899D01*
X79623095Y-33248964D01*
X79588475Y-33188999D01*
X79572004Y-33121098D01*
X79594857Y-33055072D01*
X79649778Y-33011882D01*
X79695863Y-33003000D01*
X80328543Y-33003000D01*
X80510116Y-32966882D01*
X80521835Y-32964551D01*
X80703914Y-32889132D01*
X80867782Y-32779639D01*
X81007139Y-32640282D01*
X81116632Y-32476414D01*
X81192051Y-32294335D01*
X81224903Y-32129179D01*
X81230500Y-32101043D01*
X81230500Y-31903956D01*
X81192052Y-31710670D01*
X81192051Y-31710669D01*
X81192051Y-31710665D01*
X81171908Y-31662034D01*
X81116635Y-31528592D01*
X81116628Y-31528579D01*
X81007139Y-31364718D01*
X81007136Y-31364714D01*
X80867785Y-31225363D01*
X80867781Y-31225360D01*
X80703920Y-31115871D01*
X80703907Y-31115864D01*
X80521839Y-31040450D01*
X80521829Y-31040447D01*
X80328543Y-31002000D01*
X80328541Y-31002000D01*
X79031459Y-31002000D01*
X79031457Y-31002000D01*
X78838170Y-31040447D01*
X78838160Y-31040450D01*
X78656092Y-31115864D01*
X78656079Y-31115871D01*
X78492218Y-31225360D01*
X78492214Y-31225363D01*
X78351897Y-31365681D01*
X78290574Y-31399166D01*
X78264216Y-31402000D01*
X76765784Y-31402000D01*
X76698745Y-31382315D01*
X76678103Y-31365681D01*
X76537785Y-31225363D01*
X76537781Y-31225360D01*
X76373920Y-31115871D01*
X76373907Y-31115864D01*
X76191839Y-31040450D01*
X76191829Y-31040447D01*
X75998543Y-31002000D01*
X75998541Y-31002000D01*
X75001459Y-31002000D01*
X75001457Y-31002000D01*
X74808170Y-31040447D01*
X74808160Y-31040450D01*
X74626092Y-31115864D01*
X74626079Y-31115871D01*
X74462218Y-31225360D01*
X74462214Y-31225363D01*
X74322863Y-31364714D01*
X74322860Y-31364718D01*
X74213371Y-31528579D01*
X74213364Y-31528592D01*
X74137950Y-31710660D01*
X74137947Y-31710670D01*
X74099500Y-31903956D01*
X74099500Y-31903959D01*
X74099500Y-32101041D01*
X74099500Y-32101043D01*
X74099499Y-32101043D01*
X73000500Y-32101043D01*
X73000500Y-30671153D01*
X99634500Y-30671153D01*
X99634500Y-30828846D01*
X99665261Y-30983489D01*
X99665264Y-30983501D01*
X99725602Y-31129172D01*
X99725609Y-31129185D01*
X99813210Y-31260288D01*
X99813213Y-31260292D01*
X99924707Y-31371786D01*
X99924711Y-31371789D01*
X100055814Y-31459390D01*
X100055827Y-31459397D01*
X100201498Y-31519735D01*
X100201503Y-31519737D01*
X100309349Y-31541189D01*
X100356153Y-31550499D01*
X100356156Y-31550500D01*
X100356158Y-31550500D01*
X100513844Y-31550500D01*
X100513845Y-31550499D01*
X100668497Y-31519737D01*
X100814179Y-31459394D01*
X100814185Y-31459390D01*
X100945875Y-31371398D01*
X101012553Y-31350520D01*
X101014766Y-31350500D01*
X103670234Y-31350500D01*
X103737273Y-31370185D01*
X103739125Y-31371398D01*
X103870814Y-31459390D01*
X103870827Y-31459397D01*
X104016498Y-31519735D01*
X104016503Y-31519737D01*
X104124349Y-31541189D01*
X104171153Y-31550499D01*
X104171156Y-31550500D01*
X104171158Y-31550500D01*
X104328844Y-31550500D01*
X104328845Y-31550499D01*
X104483497Y-31519737D01*
X104629179Y-31459394D01*
X104760289Y-31371789D01*
X104871789Y-31260289D01*
X104959394Y-31129179D01*
X105019737Y-30983497D01*
X105050500Y-30828842D01*
X105050500Y-30671158D01*
X105050500Y-30671155D01*
X105050499Y-30671153D01*
X105025280Y-30544369D01*
X105019737Y-30516503D01*
X105019735Y-30516498D01*
X104959397Y-30370827D01*
X104959390Y-30370814D01*
X104871789Y-30239711D01*
X104871786Y-30239707D01*
X104760292Y-30128213D01*
X104760288Y-30128210D01*
X104685211Y-30078045D01*
X104640406Y-30024433D01*
X104631699Y-29955108D01*
X104661853Y-29892080D01*
X104680677Y-29875770D01*
X104680581Y-29875653D01*
X104684967Y-29872053D01*
X104685217Y-29871837D01*
X104685289Y-29871789D01*
X104796789Y-29760289D01*
X104884394Y-29629179D01*
X104944737Y-29483497D01*
X104975500Y-29328842D01*
X104975500Y-29171158D01*
X104975500Y-29171155D01*
X104975499Y-29171153D01*
X104956089Y-29073572D01*
X104944737Y-29016503D01*
X104940315Y-29005827D01*
X104884397Y-28870827D01*
X104884390Y-28870814D01*
X104796789Y-28739711D01*
X104796786Y-28739707D01*
X104681468Y-28624389D01*
X104647983Y-28563066D01*
X104652967Y-28493374D01*
X104690492Y-28440849D01*
X104694604Y-28437474D01*
X104806099Y-28325979D01*
X104806102Y-28325976D01*
X104893707Y-28194866D01*
X104893708Y-28194863D01*
X104893710Y-28194860D01*
X104943019Y-28075815D01*
X104986859Y-28021411D01*
X105010128Y-28008706D01*
X105026746Y-28001823D01*
X105038724Y-27996860D01*
X105129173Y-27959397D01*
X105129176Y-27959395D01*
X105129179Y-27959394D01*
X105260289Y-27871789D01*
X105371789Y-27760289D01*
X105459394Y-27629179D01*
X105519737Y-27483497D01*
X105550500Y-27328842D01*
X105550500Y-27171158D01*
X105550500Y-27171155D01*
X105550499Y-27171153D01*
X105541957Y-27128211D01*
X105519737Y-27016503D01*
X105512770Y-26999682D01*
X105459397Y-26870827D01*
X105459390Y-26870814D01*
X105371789Y-26739711D01*
X105371786Y-26739707D01*
X105260292Y-26628213D01*
X105260288Y-26628210D01*
X105129185Y-26540609D01*
X105129172Y-26540602D01*
X104983501Y-26480264D01*
X104983491Y-26480261D01*
X104828149Y-26449361D01*
X104811392Y-26440595D01*
X104792914Y-26436576D01*
X104767877Y-26417833D01*
X104766238Y-26416976D01*
X104764660Y-26415425D01*
X104762590Y-26413355D01*
X104762588Y-26413352D01*
X104643717Y-26294481D01*
X104643709Y-26294475D01*
X104536551Y-26232608D01*
X104536548Y-26232607D01*
X104506787Y-26215424D01*
X104506786Y-26215423D01*
X104506785Y-26215423D01*
X104354057Y-26174499D01*
X104195943Y-26174499D01*
X104188347Y-26174499D01*
X104188331Y-26174500D01*
X103829766Y-26174500D01*
X103762727Y-26154815D01*
X103760875Y-26153602D01*
X103629185Y-26065609D01*
X103629172Y-26065602D01*
X103483501Y-26005264D01*
X103483489Y-26005261D01*
X103328845Y-25974500D01*
X103328842Y-25974500D01*
X103171158Y-25974500D01*
X103171155Y-25974500D01*
X103016510Y-26005261D01*
X103016498Y-26005264D01*
X102870827Y-26065602D01*
X102870814Y-26065609D01*
X102739711Y-26153210D01*
X102739707Y-26153213D01*
X102628213Y-26264707D01*
X102628210Y-26264711D01*
X102540609Y-26395814D01*
X102540602Y-26395827D01*
X102480264Y-26541498D01*
X102480261Y-26541510D01*
X102449500Y-26696153D01*
X102449500Y-26853846D01*
X102480260Y-27008488D01*
X102482030Y-27014320D01*
X102480072Y-27014914D01*
X102486527Y-27075106D01*
X102455235Y-27137577D01*
X102452184Y-27140737D01*
X102353213Y-27239707D01*
X102353210Y-27239711D01*
X102265609Y-27370814D01*
X102265602Y-27370827D01*
X102205264Y-27516498D01*
X102205261Y-27516510D01*
X102174500Y-27671153D01*
X102174500Y-27828846D01*
X102205261Y-27983489D01*
X102205264Y-27983501D01*
X102265602Y-28129172D01*
X102265609Y-28129185D01*
X102353210Y-28260288D01*
X102353213Y-28260292D01*
X102464707Y-28371786D01*
X102464711Y-28371789D01*
X102540452Y-28422398D01*
X102585257Y-28476010D01*
X102593964Y-28545335D01*
X102563810Y-28608363D01*
X102504366Y-28645082D01*
X102471561Y-28649500D01*
X102079766Y-28649500D01*
X102012727Y-28629815D01*
X102010875Y-28628602D01*
X101879185Y-28540609D01*
X101879172Y-28540602D01*
X101733501Y-28480264D01*
X101733489Y-28480261D01*
X101578845Y-28449500D01*
X101578842Y-28449500D01*
X101421158Y-28449500D01*
X101421155Y-28449500D01*
X101266510Y-28480261D01*
X101266498Y-28480264D01*
X101120827Y-28540602D01*
X101120814Y-28540609D01*
X100989711Y-28628210D01*
X100989707Y-28628213D01*
X100878213Y-28739707D01*
X100878210Y-28739711D01*
X100790609Y-28870814D01*
X100790602Y-28870827D01*
X100730264Y-29016498D01*
X100730261Y-29016510D01*
X100699500Y-29171153D01*
X100699500Y-29328846D01*
X100730261Y-29483489D01*
X100730264Y-29483501D01*
X100790602Y-29629172D01*
X100790609Y-29629185D01*
X100878210Y-29760288D01*
X100878213Y-29760292D01*
X100962835Y-29844914D01*
X100996320Y-29906237D01*
X100991336Y-29975929D01*
X100949464Y-30031862D01*
X100884000Y-30056279D01*
X100819930Y-30042642D01*
X100819808Y-30042937D01*
X100818216Y-30042277D01*
X100816705Y-30041956D01*
X100814174Y-30040603D01*
X100668501Y-29980264D01*
X100668489Y-29980261D01*
X100513845Y-29949500D01*
X100513842Y-29949500D01*
X100356158Y-29949500D01*
X100356155Y-29949500D01*
X100201510Y-29980261D01*
X100201498Y-29980264D01*
X100055827Y-30040602D01*
X100055814Y-30040609D01*
X99924711Y-30128210D01*
X99924707Y-30128213D01*
X99813213Y-30239707D01*
X99813210Y-30239711D01*
X99725609Y-30370814D01*
X99725602Y-30370827D01*
X99665264Y-30516498D01*
X99665261Y-30516510D01*
X99634500Y-30671153D01*
X73000500Y-30671153D01*
X73000500Y-26713338D01*
X88491685Y-26713338D01*
X88491685Y-26871031D01*
X88522446Y-27025674D01*
X88522449Y-27025686D01*
X88582787Y-27171357D01*
X88582794Y-27171370D01*
X88670395Y-27302473D01*
X88670398Y-27302477D01*
X88781892Y-27413971D01*
X88781896Y-27413974D01*
X88912999Y-27501575D01*
X88913012Y-27501582D01*
X89058683Y-27561920D01*
X89058688Y-27561922D01*
X89213338Y-27592684D01*
X89213341Y-27592685D01*
X89213343Y-27592685D01*
X89371029Y-27592685D01*
X89371030Y-27592684D01*
X89525682Y-27561922D01*
X89671364Y-27501579D01*
X89772168Y-27434224D01*
X89792464Y-27420663D01*
X89859142Y-27399785D01*
X89861355Y-27399765D01*
X90969499Y-27399765D01*
X91036538Y-27419450D01*
X91038390Y-27420663D01*
X91170079Y-27508655D01*
X91170092Y-27508662D01*
X91315763Y-27569000D01*
X91315768Y-27569002D01*
X91434825Y-27592684D01*
X91470418Y-27599764D01*
X91470421Y-27599765D01*
X91470423Y-27599765D01*
X91628109Y-27599765D01*
X91628110Y-27599764D01*
X91782762Y-27569002D01*
X91928444Y-27508659D01*
X92059554Y-27421054D01*
X92171054Y-27309554D01*
X92258659Y-27178444D01*
X92259792Y-27175710D01*
X92293586Y-27094121D01*
X92319002Y-27032762D01*
X92349765Y-26878107D01*
X92349765Y-26720423D01*
X92349765Y-26720420D01*
X92349764Y-26720418D01*
X92344937Y-26696153D01*
X92319002Y-26565768D01*
X92283940Y-26481120D01*
X92258662Y-26420092D01*
X92258655Y-26420079D01*
X92171054Y-26288976D01*
X92171051Y-26288972D01*
X92059557Y-26177478D01*
X92059553Y-26177475D01*
X91928450Y-26089874D01*
X91928437Y-26089867D01*
X91782766Y-26029529D01*
X91782754Y-26029526D01*
X91628110Y-25998765D01*
X91628107Y-25998765D01*
X91470423Y-25998765D01*
X91470420Y-25998765D01*
X91315775Y-26029526D01*
X91315763Y-26029529D01*
X91170092Y-26089867D01*
X91170079Y-26089874D01*
X91038390Y-26177867D01*
X90971712Y-26198745D01*
X90969499Y-26198765D01*
X89881410Y-26198765D01*
X89814371Y-26179080D01*
X89802745Y-26170618D01*
X89802474Y-26170395D01*
X89671370Y-26082794D01*
X89671357Y-26082787D01*
X89525686Y-26022449D01*
X89525674Y-26022446D01*
X89371030Y-25991685D01*
X89371027Y-25991685D01*
X89213343Y-25991685D01*
X89213340Y-25991685D01*
X89058695Y-26022446D01*
X89058683Y-26022449D01*
X88913012Y-26082787D01*
X88912999Y-26082794D01*
X88781896Y-26170395D01*
X88781892Y-26170398D01*
X88670398Y-26281892D01*
X88670395Y-26281896D01*
X88582794Y-26412999D01*
X88582787Y-26413012D01*
X88522449Y-26558683D01*
X88522446Y-26558695D01*
X88491685Y-26713338D01*
X73000500Y-26713338D01*
X73000500Y-25124500D01*
X73020185Y-25057461D01*
X73072989Y-25011706D01*
X73124500Y-25000500D01*
X109189127Y-25000500D01*
X109198878Y-25003363D01*
G37*
%TD.AperFunction*%
%TD*%
M02*
